<?xml version="1.0" encoding="UTF-8" standalone="no"?>
<!-- Created with Inkscape (http://www.inkscape.org/) -->

<svg
   xmlns:dc="http://purl.org/dc/elements/1.1/"
   xmlns:cc="http://creativecommons.org/ns#"
   xmlns:rdf="http://www.w3.org/1999/02/22-rdf-syntax-ns#"
   xmlns:svg="http://www.w3.org/2000/svg"
   xmlns="http://www.w3.org/2000/svg"
   xmlns:sodipodi="http://sodipodi.sourceforge.net/DTD/sodipodi-0.dtd"
   xmlns:inkscape="http://www.inkscape.org/namespaces/inkscape"
   width="210mm"
   height="297mm"
   viewBox="0 0 210 297"
   version="1.1"
   id="svg51"
   inkscape:version="0.92.0 r15299"
   sodipodi:docname="MuestraBarrasMov.svg">
  <defs
     id="defs45" />
  <sodipodi:namedview
     id="base"
     pagecolor="#ffffff"
     bordercolor="#666666"
     borderopacity="1.0"
     inkscape:pageopacity="0.0"
     inkscape:pageshadow="2"
     inkscape:zoom="2.55"
     inkscape:cx="236.50069"
     inkscape:cy="1090.4561"
     inkscape:document-units="mm"
     inkscape:current-layer="layer1"
     showgrid="false"
     inkscape:window-width="1366"
     inkscape:window-height="705"
     inkscape:window-x="-8"
     inkscape:window-y="-8"
     inkscape:window-maximized="1" />
  <metadata
     id="metadata48">
    <rdf:RDF>
      <cc:Work
         rdf:about="">
        <dc:format>image/svg+xml</dc:format>
        <dc:type
           rdf:resource="http://purl.org/dc/dcmitype/StillImage" />
        <dc:title />
      </cc:Work>
    </rdf:RDF>
  </metadata>
  <g
     inkscape:label="Layer 1"
     inkscape:groupmode="layer"
     id="layer1">
    <path
       id="path383"
       style="fill:#000000;stroke-width:0.10636345"
       d="m 36.803103,14.588924 c -0.606716,0.07255 -1.217908,0.110842 -1.838131,0.12454 -3.461581,0.0603 -6.924543,0.05489 -10.386963,0.0553 -4.39525,0.009 -8.79067,0.01371 -13.185758,-0.0181 -1.8538957,-0.02278 -3.7087577,-0.02807 -5.5619337,-0.07131 5.3e-4,0.06364 1.04e-4,0.127179 -0.0036,0.190687 0.04396,0.06648 0.07753,0.135136 0.07235,0.203605 -0.0024,0.0303 -0.0096,0.05215 -0.01497,0.077 1.609336,-0.02606 3.219609,-0.03593 4.8291617,-0.05478 4.418491,-0.0314 8.836882,-0.02667 13.255521,-0.0181 3.398822,-0.0158 6.797291,0.0199 10.195761,0.04289 0.774819,2.65e-4 1.547604,-0.03173 2.310453,-0.126606 l 0.328147,-0.174151 z"
       inkscape:connector-curvature="0" />
    <path
       id="path383-7"
       style="fill:#000000;stroke-width:0.10552307"
       d="m 36.381421,4.6887533 c -1.652873,0.02872 -3.306791,0.03893 -4.959903,0.05839 -4.348959,0.03083 -8.698174,0.02572 -13.047265,0.01654 -3.34532,0.0154 -6.690069,-0.02101 -10.0350447,-0.04444 -0.762622,-5.29e-4 -1.522913,0.03131 -2.273763,0.126092 l -0.135393,0.07286 c -0.0016,0.05356 -0.05147,0.105614 -0.146762,0.134874 0.09827,0.138589 0.182544,0.257265 0.182417,0.03876 -0.0081,-0.01011 -0.01738,-0.01937 -0.02429,-0.02997 0.01889,0.0113 0.02471,0.01431 0.02479,0.02479 2.4e-5,0.0027 -5.29e-4,0.0026 -5.29e-4,0.0052 0.0097,0.01206 0.01791,0.02506 0.02119,0.03979 0.0064,0.02876 0.01175,0.0584 0.01707,0.08785 0.511159,-0.05312 1.025879,-0.08138 1.547193,-0.09302 3.4071267,-0.05983 6.8157457,-0.05383 10.2236657,-0.05374 4.32607,-0.008 8.652616,-0.01267 12.978535,0.01963 1.865569,0.02352 3.731768,0.02814 5.596557,0.07441 l 0.156064,-0.08062 c -0.0074,-0.05789 -0.0085,-0.119203 -0.0093,-0.178801 0.01013,-2.54e-4 0.06038,-0.03669 0.10542,-0.06976 0.0063,-0.0326 0.0096,-0.05841 0.0047,-0.06821 l -0.0016,-0.0016 c -0.0061,-0.0071 -0.01992,0.0013 -0.04754,0.03772 -0.03608,0.04759 -0.05491,0.07553 -0.0615,0.08992 -1.8e-5,-0.0013 1.9e-5,-0.0028 0,-0.0041 -0.007,0.01831 -0.01823,-0.01677 -0.01654,-0.01035 0.003,0.01299 0.02416,0.04706 0.01447,0.03772 -0.0436,-0.042 -0.06117,-0.09103 -0.08527,-0.143661 -0.0167,-0.03636 -0.02453,-0.064 -0.02739,-0.0863 z"
       inkscape:connector-curvature="0" />
    <path
       id="path383-3"
       style="fill:#000000;stroke-width:0.06399057"
       d="m 36.136994,4.6851363 c 0.139798,0.262292 0.201782,0.531752 0.223242,0.809252 0.0733,1.1721756 0.0768,2.3496556 0.0863,3.5264006 0.02069,1.4932031 0.03822,2.9863811 0.01601,4.4824121 -0.01548,0.505137 -0.02437,1.010134 -0.04599,1.515671 0.0094,-2.3e-4 0.01791,-0.0016 0.02791,-0.0011 0.02098,-5.29e-4 0.09645,-0.0046 0.167431,-0.0072 0.02119,-0.01061 0.04068,-0.01847 0.06098,-0.02791 0.01154,-0.02466 0.02985,-0.04095 0.04444,-0.06201 -0.034,0.035 -0.02106,0.02609 0.02016,-0.05633 0.0266,-0.0535 0.04736,-0.08045 0.06356,-0.08785 0.03527,-0.01611 0.04829,0.06541 0.05633,0.166915 0.0079,0.0016 0.01596,0.0034 0.02376,0.0062 -0.01823,-0.413071 -0.03116,-0.82663 -0.04961,-1.239719 -0.0451,-1.499468 -0.05176,-3.001732 -0.05426,-4.5041181 -0.0258,-1.154018 0.0029,-2.31131 0.0186,-3.4680046 -0.0021,-0.263358 -0.03755,-0.523708 -0.14056,-0.776179 z"
       inkscape:connector-curvature="0" />
    <path
       id="path383-3-3"
       style="fill:#000000;stroke-width:0.0599158"
       d="m 5.8080583,5.0470243 c -4.5e-4,0.0125 -0.001,0.02741 -8.79e-4,0.03189 8.05e-4,-7.04e-4 0.0015,-0.0014 0.0023,-0.0022 5.43e-4,-5.66e-4 0.0039,-0.02222 0.0049,-0.0261 z m 0.02939,0.01704 c -0.0037,0.0065 -0.0069,0.0136 -0.01109,0.01924 -0.01349,0.06252 -0.02217,0.100955 -0.02324,0.103613 7.8e-5,0.0011 9.1e-5,0.003 1.81e-4,0.0038 0.0025,0.02541 0.0042,0.05121 0.0061,0.07667 0.0088,0.173381 -0.0075,0.202747 -0.0822,0.382588 -0.0026,0.0062 -0.0062,0.01092 -0.0095,0.01621 0.01301,0.393453 0.0196,0.7872876 0.03238,1.1807416 0.02435,1.383935 0.01195,2.76928 -0.0042,4.1545881 0.0103,1.06483 -0.03153,2.131011 -0.06055,3.19702 -0.0016,0.242874 0.02967,0.484118 0.124448,0.720098 l 0.489168,0.27045 c -0.12964,-0.24618 -0.18546,-0.496553 -0.20243,-0.753081 -0.0553,-1.083039 -0.0436,-2.168639 -0.0382,-3.253914 -0.001,-1.3774021 5.6e-4,-2.7550171 0.0401,-4.1336971 0.0268,-0.594888 0.0343,-1.1894816 0.0841,-1.7848576 z m -0.04242,0.15281 c -0.0027,0.01012 -8.3e-5,-0.0014 -0.0069,0.02556 -0.002,0.0079 0.0058,-0.01503 0.0069,-0.02336 8.4e-5,-7.04e-4 -6.8e-5,-0.0014 0,-0.0022 z"
       inkscape:connector-curvature="0" />
    <path
       id="path383-8"
       style="fill:#000000;stroke-width:0.09862921"
       d="m 35.070908,12.775597 c -0.530325,0.07495 -1.064403,0.11371 -1.606621,0.12764 -2.97647,0.0603 -5.954565,0.05499 -8.931754,0.0553 -3.779279,0.008 -7.558648,0.01371 -11.337809,-0.0181 -1.62978,-0.02331 -3.2599967,-0.02728 -4.8891077,-0.07338 l -0.551386,0.325559 c 0.01611,0.006 -0.0042,-5.29e-4 0.02946,0.01085 0.0836,0.0011 0.114763,0.03156 0.202054,0.07906 0.0493,0.0268 0.07066,0.04779 0.07286,0.0646 1.51724,-0.0325 3.0351437,-0.0409 4.5526927,-0.06149 3.799271,-0.0314 7.598881,-0.02617 11.398271,-0.01757 2.922511,-0.0158 5.84418,0.0199 8.766389,0.04289 0.666232,2.65e-4 1.330513,-0.03175 1.986442,-0.126608 l 0.323495,-0.19947 c -0.0079,-0.02958 -0.01765,-0.05589 -0.02273,-0.08992 -0.0059,-0.03938 -2.64e-4,-0.0793 0.0078,-0.119372 z"
       inkscape:connector-curvature="0" />
    <path
       id="path383-8-8"
       style="fill:#000000;stroke-width:0.0994961"
       d="m 34.822345,6.1057213 c -1.554898,0.03223 -3.110669,0.04162 -4.665866,0.0615 -3.866398,0.02879 -7.732305,0.02111 -11.598775,0.0098 -2.974139,0.01378 -5.948161,-0.02355 -8.9219347,-0.04858 -0.678,-7.94e-4 -1.35445,0.03064 -2.022099,0.125058 l -0.02119,0.01291 c 0.03428,0.0956 0.02569,0.201721 -0.03928,0.285771 -0.01397,0.01542 -0.03953,0.05039 -0.06976,0.0894 0.479425,-0.05907 0.961777,-0.09442 1.451076,-0.106455 3.0290897,-0.05823 6.0596167,-0.0508 9.0893657,-0.04909 3.84601,-0.0059 7.692485,-0.0086 11.538315,0.02582 1.65853,0.02442 3.317616,0.02984 4.975407,0.077 l 0.374653,-0.21704 c -0.04082,-0.05701 -0.06708,-0.1399346 -0.07028,-0.2470146 -0.0057,-0.0064 -0.01439,-0.01265 -0.01963,-0.01913 z"
       inkscape:connector-curvature="0" />
    <path
       id="path383-8-7"
       style="fill:#000000;stroke-width:0.05189184"
       d="m 7.5826633,6.3734049 c 0.0546,0.437126 0.06605,0.874747 0.09715,1.312064 0.0471,0.970005 0.05439,1.940314 0.05839,2.9104161 0.0271,0.746168 -0.0016,1.491949 -0.01654,2.238108 0.0019,0.170106 0.03908,0.339619 0.144176,0.506945 l 0.03462,0.01291 c 0.07901,-0.02961 0.151566,-0.04807 0.274402,-0.07803 0.02148,-0.0052 0.03761,-0.0034 0.05736,-0.0062 -0.03466,-0.08618 -0.0554,-0.172881 -0.06615,-0.260451 -0.0755,-0.759875 -0.07983,-1.520322 -0.09043,-2.28048 -0.02151,-0.9649381 -0.04114,-1.9299401 -0.01963,-2.8949121 0.01961,-0.416166 0.01865,-0.832475 0.06305,-1.248503 z"
       inkscape:connector-curvature="0" />
    <path
       id="path383-8-7-5"
       style="fill:#000000;stroke-width:0.05172342"
       d="m 34.569131,6.1005543 c -0.02471,0.01196 -0.04951,0.01794 -0.07441,0.02016 0.0429,0.110157 0.06756,0.2211176 0.07906,0.3333116 0.0686,0.826214 0.07193,1.652539 0.08113,2.478918 0.0195,1.049009 0.03622,2.0981401 0.01601,3.1470971 -0.01601,0.397917 -0.02167,0.79593 -0.04961,1.193723 0.03049,-0.0199 0.05879,-0.03722 0.10387,-0.05374 0.01124,-0.01214 0.0074,-0.0097 0.171048,-0.06046 0.01236,-0.04443 0.02394,-0.07783 0.03152,-0.07803 0.0453,-0.0013 0.08949,0.02207 0.133326,0.04806 -0.01749,-0.295783 -0.02901,-0.591507 -0.04651,-0.887283 -0.0424,-1.054576 -0.04898,-2.109046 -0.05168,-3.1636301 -0.02429,-0.811205 0.0021,-1.622354 0.01654,-2.433445 -0.0011,-0.180432 -0.03487,-0.360129 -0.125573,-0.5379496 -0.02029,3.1e-5 -0.04068,-5.3e-4 -0.06098,0 -0.0746,0.0013 -0.14918,-0.0021 -0.223758,-0.0067 z m 0.32711,7.0610667 c -0.01672,0.0072 -0.04145,0.01762 -0.031,0.01344 0.01045,-0.0042 0.01976,-0.0056 0.02997,-0.0093 2.64e-4,-0.0013 7.94e-4,-0.0029 0.0011,-0.0041 z"
       inkscape:connector-curvature="0" />
    <path
       style="fill:#2c89a0;stroke-width:0.04908781"
       d="m 9.2382093,14.707457 c -1.680472,-0.01754 -3.072112,-0.04863 -3.092532,-0.06905 -0.05115,-0.05116 -0.047,-7.3485271 0.0048,-8.4795787 l 0.04195,-0.915654 0.129857,-0.02921 c 0.07142,-0.01606 1.510451,-0.05357 3.197845,-0.08335 3.1768987,-0.05607 24.3461927,-0.01836 25.9674557,0.04625 l 0.809948,0.03228 0.03509,0.319069 c 0.05607,0.509833 0.132717,6.4305017 0.101129,7.8117107 l -0.02878,1.258488 -0.225529,0.03114 c -0.791059,0.109204 -18.924031,0.161639 -26.9412527,0.0779 z M 21.595751,13.308986 c 6.871067,-0.01053 12.625387,-0.0284 12.787375,-0.03974 0.161992,-0.01132 0.390308,-0.04983 0.507373,-0.08555 l 0.21285,-0.06494 -0.0287,-0.224131 c -0.01579,-0.123272 -0.04054,-1.615771 -0.05502,-3.3166631 -0.01757,-2.064721 -0.04484,-3.164205 -0.08205,-3.308181 l -0.05573,-0.2156426 -0.543893,0.04085 c -0.299141,0.02246 -6.331347,0.04566 -13.4049,0.05154 -7.073554,0.0059 -12.9667797,0.02932 -13.0960577,0.05208 -0.129275,0.02275 -0.233947,0.05806 -0.232606,0.07843 0.0013,0.02037 -0.02981,0.114258 -0.06924,0.208624 -0.05854,0.140113 -0.05966,0.171572 -0.0061,0.171572 0.103216,0 0.12361,0.465622 0.155887,3.5588677 0.02289,2.192888 0.04462,2.883286 0.09461,3.004601 l 0.06491,0.157509 0.629222,-0.02506 c 0.346072,-0.01378 6.2510027,-0.03366 13.1220707,-0.04418 z"
       id="path264"
       inkscape:connector-curvature="0" />
    <path
       inkscape:connector-curvature="0"
       id="path383-75"
       style="fill:#000000;stroke-width:0.10636346"
       d="m 36.791571,35.817163 c -0.60672,0.0726 -1.21791,0.11084 -1.83813,0.12454 -3.46158,0.0603 -6.92455,0.0549 -10.38697,0.0553 -4.39525,0.009 -8.79067,0.0137 -13.18575,-0.0181 -1.8538947,-0.0228 -3.7087497,-0.0281 -5.5619297,-0.0713 5.3e-4,0.0636 1.1e-4,0.12718 -0.004,0.19069 0.0439,0.0665 0.0775,0.13514 0.0723,0.20361 -0.002,0.0303 -0.01,0.0521 -0.015,0.077 1.60934,-0.0261 3.21961,-0.0359 4.8291497,-0.0548 4.41849,-0.0314 8.83688,-0.0267 13.25552,-0.0181 3.39882,-0.0158 6.79729,0.0199 10.19576,0.0429 0.77482,2.6e-4 1.54761,-0.0317 2.31046,-0.12661 l 0.32814,-0.17415 z" />
    <path
       inkscape:connector-curvature="0"
       id="path383-7-4"
       style="fill:#000000;stroke-width:0.10552308"
       d="m 36.369891,20.625293 c -1.65288,0.0287 -3.30679,0.0389 -4.95991,0.0584 -4.34896,0.0308 -8.69817,0.0257 -13.04726,0.0165 -3.34532,0.0154 -6.69007,-0.021 -10.0350397,-0.0444 -0.76262,-5.3e-4 -1.52291,0.0313 -2.27376,0.12609 l -0.13539,0.0729 c -0.002,0.0536 -0.0515,0.10562 -0.14676,0.13488 0.0983,0.13859 0.18254,0.25726 0.18241,0.0388 -0.008,-0.0101 -0.0174,-0.0194 -0.0243,-0.03 0.0189,0.0113 0.0247,0.0143 0.0248,0.0248 3e-5,0.003 -5.2e-4,0.003 -5.2e-4,0.005 0.01,0.0121 0.0179,0.025 0.0212,0.0398 0.006,0.0288 0.0118,0.0584 0.0171,0.0879 0.51116,-0.0531 1.02588,-0.0814 1.5472,-0.093 3.4071097,-0.0598 6.8157297,-0.0538 10.2236497,-0.0537 4.32607,-0.008 8.65262,-0.0127 12.97854,0.0196 1.86557,0.0235 3.73177,0.0281 5.59656,0.0744 l 0.15606,-0.0806 c -0.007,-0.0579 -0.008,-0.1192 -0.009,-0.1788 0.0101,-2.5e-4 0.0604,-0.0367 0.10542,-0.0698 0.006,-0.0326 0.01,-0.0584 0.005,-0.0682 l -0.002,-0.002 c -0.006,-0.007 -0.0199,0.001 -0.0475,0.0377 -0.0361,0.0476 -0.0549,0.0755 -0.0615,0.0899 -2e-5,-10e-4 2e-5,-0.003 0,-0.004 -0.007,0.0183 -0.0182,-0.0168 -0.0165,-0.0104 0.003,0.013 0.0242,0.0471 0.0145,0.0377 -0.0436,-0.042 -0.0612,-0.091 -0.0853,-0.14366 -0.0167,-0.0363 -0.0245,-0.064 -0.0274,-0.0863 z" />
    <path
       inkscape:connector-curvature="0"
       id="path383-3-35"
       style="fill:#000000;stroke-width:0.07884735"
       d="m 36.125461,20.621673 c 0.1398,0.39824 0.20178,0.80734 0.22324,1.22866 0.0733,1.77964 0.0768,3.56734 0.0863,5.35394 0.0207,2.26704 0.0382,4.53406 0.016,6.8054 -0.0155,0.76693 -0.0244,1.53363 -0.046,2.30116 0.009,-3.5e-4 0.0179,-0.003 0.0279,-0.002 0.021,-8e-4 0.0965,-0.008 0.16743,-0.0106 0.0212,-0.0161 0.0407,-0.0281 0.061,-0.0424 0.0115,-0.0375 0.0299,-0.0623 0.0444,-0.0941 -0.034,0.0531 -0.0211,0.0396 0.0202,-0.0855 0.0266,-0.0812 0.0474,-0.12207 0.0636,-0.13346 0.0353,-0.0244 0.0483,0.0993 0.0563,0.25341 0.008,0.003 0.016,0.005 0.0238,0.009 -0.0182,-0.62712 -0.0312,-1.25501 -0.0496,-1.88218 -0.0451,-2.27657 -0.0518,-4.55738 -0.0543,-6.83836 -0.0258,-1.75209 0.003,-3.50914 0.0186,-5.2653 -0.002,-0.39983 -0.0376,-0.7951 -0.14056,-1.17843 z" />
    <path
       id="path383-3-3-1"
       style="fill:#000000;stroke-width:0.07406411"
       d="m 5.7965313,20.983563 c -4.5e-4,0.0191 -10e-4,0.0419 -8.8e-4,0.0487 8.1e-4,-0.001 10e-4,-0.002 0.002,-0.003 5.5e-4,-8.7e-4 0.004,-0.0339 0.005,-0.0399 z m 0.0294,0.026 c -0.004,0.009 -0.007,0.0208 -0.0111,0.0293 -0.0135,0.0955 -0.0222,0.15428 -0.0232,0.15834 8e-5,0.002 9e-5,0.005 1.8e-4,0.006 0.002,0.0388 0.004,0.0782 0.006,0.1172 0.009,0.26493 -0.007,0.3098 -0.0822,0.5846 -0.003,0.009 -0.006,0.0166 -0.009,0.0247 0.013,0.60122 0.0196,1.20301 0.0324,1.80423 0.0243,2.11469 0.0119,4.23155 -0.004,6.34833 0.0103,1.6271 -0.0315,3.25626 -0.0605,4.88516 -0.002,0.37113 0.0297,0.73975 0.12445,1.10034 l 0.48917,0.41325 c -0.12964,-0.37617 -0.18546,-0.75874 -0.20243,-1.15073 -0.0553,-1.65492 -0.0436,-3.31375 -0.0382,-4.97208 -0.001,-2.10473 5.6e-4,-4.20977 0.0401,-6.31644 0.0268,-0.90901 0.0343,-1.81756 0.0841,-2.72732 z m -0.0424,0.2335 c -0.003,0.0154 -8e-5,-0.002 -0.007,0.0391 -0.002,0.0122 0.006,-0.0229 0.007,-0.0358 9e-5,-10e-4 -7e-5,-0.002 0,-0.003 z"
       inkscape:connector-curvature="0" />
    <path
       id="path383-8-3"
       style="fill:#000000;stroke-width:0.09862921"
       d="m 34.784691,34.033913 c -0.44025,0.052 -0.88277,0.0861 -1.3317,0.0977 -2.97647,0.0603 -5.95456,0.055 -8.93175,0.0553 -3.77928,0.008 -7.55865,0.0137 -11.33781,-0.0181 -1.62978,-0.0233 -3.2600037,-0.0273 -4.8891067,-0.0734 l -0.551389,0.32556 c 0.01609,0.006 -0.004,-5.3e-4 0.02946,0.0109 0.0836,10e-4 0.114755,0.0316 0.202054,0.0791 0.0493,0.0268 0.07067,0.0478 0.07286,0.0646 1.517237,-0.0325 3.0351417,-0.0409 4.5526917,-0.0615 3.79927,-0.0314 7.59888,-0.0262 11.39827,-0.0176 2.92251,-0.0158 5.84418,0.0199 8.76639,0.0429 0.6303,2.6e-4 1.25861,-0.0303 1.87999,-0.11369 0.0138,-0.0266 0.0395,-0.058 0.0853,-0.0971 0.023,-0.0197 0.0457,-0.0392 0.0687,-0.0589 -10e-4,-0.0144 -0.002,-0.0275 -0.003,-0.0439 -0.003,-0.0392 -0.0113,-0.11792 -0.0109,-0.19172 z"
       inkscape:connector-curvature="0" />
    <path
       id="path383-8-8-1"
       style="fill:#000000;stroke-width:0.0994961"
       d="m 34.581532,22.574999 c -0.0592,0.0011 -0.118528,0.0021 -0.177765,0.0031 0.0921,0.149359 0.141806,0.107153 0.177765,-0.0031 z m -0.1788,0.0031 c -1.419,0.02601 -2.838471,0.03709 -4.257622,0.05529 -3.86638,0.0288 -7.732305,0.02072 -11.598775,0.0098 -2.974139,0.01381 -5.948159,-0.02357 -8.9219347,-0.04857 -0.484185,-5.29e-4 -0.967031,0.0186 -1.44694,0.06253 -0.03184,0.01333 -0.06466,0.02516 -0.100253,0.03359 -0.01947,0.0046 -0.04892,0.01871 -0.07648,0.03101 -0.0055,0.01132 -0.02249,0.01503 -0.03411,0.0217 -0.04449,0.0254 -0.0874,0.0546 -0.134874,0.0739 -0.112903,0.04598 -0.176877,0.066 -0.240298,0.07855 -0.0075,0.04313 -0.02127,0.08518 -0.05013,0.122472 -0.014,0.0154 -0.03946,0.0504 -0.06976,0.0894 0.479431,-0.0591 0.961771,-0.0944 1.451076,-0.106453 3.0290817,-0.0582 6.0596167,-0.05079 9.0893657,-0.04909 3.84601,-0.006 7.692485,-0.009 11.538315,0.02585 1.65853,0.02439 3.317616,0.0298 4.975405,0.077 l 0.161232,-0.09353 c -0.0021,-0.006 -0.0047,-0.0122 -0.0067,-0.0186 -0.01169,0.0163 -0.04121,-0.0407 -0.06201,-0.0584 -0.006,-0.005 0.01969,0.02101 0.01498,0.0155 -0.106789,-0.125351 -0.165325,-0.204356 -0.230476,-0.321945 z"
       inkscape:connector-curvature="0" />
    <path
       id="path383-8-7-8"
       style="fill:#000000;stroke-width:0.06844618"
       d="m 8.1076973,22.680419 c -0.01048,0.003 -0.01966,0.0078 -0.03049,0.01035 -0.01947,0.0046 -0.04892,0.01871 -0.07648,0.03101 -0.0055,0.01132 -0.02249,0.01503 -0.03411,0.0217 -0.04449,0.0254 -0.0874,0.0546 -0.134874,0.0739 -0.107961,0.04396 -0.170651,0.06373 -0.231511,0.07648 0.02746,0.566237 0.04507,1.132361 0.06821,1.698603 0.0471,1.687611 0.05439,3.375983 0.05839,5.063773 0.0271,1.298192 -0.0021,2.59565 -0.01654,3.89382 0.0021,0.295961 0.03911,0.590998 0.144179,0.882116 l 0.03462,0.02223 c 0.079,-0.0515 0.151564,-0.08338 0.274402,-0.135393 0.02151,-0.009 0.03756,-0.0054 0.05736,-0.01085 -0.0347,-0.149968 -0.05545,-0.300323 -0.06614,-0.452683 -0.0755,-1.32202 -0.07983,-2.645188 -0.09043,-3.967718 -0.02151,-1.678789 -0.04114,-3.358042 -0.01963,-5.036902 0.01958,-0.723524 0.01876,-1.447115 0.06305,-2.170409 z"
       inkscape:connector-curvature="0" />
    <path
       id="path383-8-7-5-2"
       style="fill:#000000;stroke-width:0.06835648"
       d="m 34.578947,22.217915 c -0.02114,0.02774 -0.03778,0.05817 -0.04702,0.0925 -0.0034,0.01259 5.29e-4,0.02447 0.0016,0.03669 0.01683,-0.03638 0.03379,-0.07268 0.05064,-0.109037 -0.0013,-0.0067 -0.0036,-0.01341 -0.0052,-0.02016 z M 34.2322,22.460278 c 0.0046,0.0489 0.01106,0.0976 0.01394,0.146762 0.0686,1.443045 0.07193,2.88613 0.08113,4.329451 0.0195,1.832168 0.03624,3.664741 0.01601,5.496822 -0.01601,0.694989 -0.0217,1.390383 -0.04961,2.085144 0.0305,-0.0347 0.0588,-0.06525 0.103871,-0.09405 0.01119,-0.02109 0.007,-0.01725 0.171047,-0.105421 0.01241,-0.0775 0.02392,-0.136078 0.03152,-0.136424 0.0453,-0.0021 0.08949,0.03831 0.133326,0.08371 -0.01749,-0.51662 -0.02901,-1.032658 -0.04651,-1.54926 -0.0424,-1.84187 -0.04898,-3.683849 -0.05168,-5.525759 -0.02432,-1.416812 0.0021,-2.833251 0.01654,-4.24987 -2.64e-4,-0.100907 -0.0061,-0.201734 -0.01394,-0.302308 -0.01376,-0.01291 -0.03579,-0.05789 -0.05633,-0.09664 -0.0086,-0.0019 -0.01733,-0.003 -0.02585,-0.0052 -0.07828,-0.01968 -0.154985,-0.04433 -0.232543,-0.06666 -0.03026,-0.0039 -0.06078,-0.0068 -0.09095,-0.01035 z m 0.388607,0.03876 c 0.0016,0.0019 0.003,0.0038 0.0047,0.0057 -2.12e-4,-0.0019 -2.65e-4,-0.0038 -5.3e-4,-0.0057 -0.0013,-1.5e-5 -0.0028,-3.4e-5 -0.0041,0 z m -0.05219,11.823052 c -0.0167,0.0122 -0.0414,0.03108 -0.031,0.02376 0.0104,-0.007 0.01976,-0.01082 0.02997,-0.01601 2.59e-4,-0.0021 7.93e-4,-0.0047 0.0011,-0.0067 z"
       inkscape:connector-curvature="0" />
    <path
       style="fill:#2c89a0;stroke-width:0.06375502"
       d="m 7.8912233,35.914944 -1.727954,-0.01802 -0.04087,-0.524971 c -0.05906,-0.758682 -0.04494,-10.011529 0.0186,-12.19214 0.03335,-1.144434 0.03105,-1.876988 -0.006,-1.922629 -0.04398,-0.05413 0.08918,-0.08803 0.500798,-0.127511 0.667975,-0.06406 29.5070337,-0.0735 29.5708517,-0.0097 0.122714,0.122732 0.168299,2.198346 0.178477,8.126997 0.0062,3.582405 -0.01021,6.534949 -0.03638,6.561206 -0.110236,0.110636 -4.064198,0.146296 -15.062372,0.135842 -6.416942,-0.0061 -12.4447447,-0.01918 -13.3951177,-0.0291 z M 22.054207,34.533528 c 11.959521,-0.0051 12.441875,-0.0098 12.61396,-0.122555 0.153189,-0.100373 0.173159,-0.146227 0.138838,-0.318776 -0.06954,-0.349562 -0.166521,-5.633203 -0.156422,-8.521567 0.0053,-1.525339 0.0058,-2.835616 0.0011,-2.911726 -0.01066,-0.170807 -0.373303,-0.280565 -0.460557,-0.139391 -0.04472,0.07235 -2.17954,0.08747 -13.045877,0.09238 l -12.9924057,0.0059 -0.286899,0.134291 c -0.306662,0.143542 -0.530516,0.395889 -0.351192,0.395889 0.120232,0 0.103402,-0.591167 0.161534,5.674195 0.02717,2.927948 0.06129,5.388221 0.07584,5.467268 0.05591,0.303821 0.20365,0.344549 1.070144,0.295008 0.438317,-0.02506 6.3927037,-0.04796 13.2319707,-0.05089 z M 34.60232,22.287246 c 0.02019,-0.0526 0.0089,-0.09563 -0.02506,-0.09563 -0.03396,0 -0.06176,0.04303 -0.06176,0.09563 0,0.0526 0.01127,0.09563 0.02506,0.09563 0.01378,0 0.04157,-0.04303 0.06175,-0.09563 z"
       id="path1000"
       inkscape:connector-curvature="0" />
    <path
       style="fill:#2c89a0;stroke-width:0.06375502"
       d="m 6.1784113,35.66409 c -0.02487,-0.132557 -0.03686,-3.432421 -0.02666,-7.33303 0.01654,-6.325661 0.02922,-7.097337 0.117234,-7.141229 0.136895,-0.06826 29.4614667,-0.101256 29.7237907,-0.03344 0.2076,0.05367 0.213366,0.06454 0.263748,0.497229 0.02833,0.2433 0.05702,3.503486 0.06376,7.244855 0.0099,5.508636 -0.0035,6.818292 -0.07062,6.885543 -0.0675,0.06765 -2.859138,0.08657 -15.054451,0.102066 L 6.2236313,35.905104 Z M 30.753964,34.541352 c 2.982629,-0.01429 3.825753,-0.03605 3.944691,-0.101786 0.145619,-0.08047 0.149778,-0.103002 0.111358,-0.603149 -0.02196,-0.285753 -0.05818,-2.922336 -0.08051,-5.859074 -0.02854,-3.752884 -0.06163,-5.36794 -0.111357,-5.435152 -0.06073,-0.08208 -0.18365,-0.0868 -0.867694,-0.03328 -0.480644,0.0376 -5.712407,0.06292 -13.182046,0.06379 -12.3803807,0.0013 -12.3852117,0.0016 -12.6651707,0.133093 -0.154035,0.07241 -0.331893,0.188916 -0.395239,0.258914 -0.09875,0.109114 -0.101897,0.135466 -0.02207,0.184774 0.07956,0.04914 0.103812,0.871307 0.166786,5.654365 0.04053,3.078271 0.07639,5.601981 0.07969,5.608241 0.09575,0.181496 0.186267,0.183039 9.7029107,0.165253 5.23888,-0.0098 11.232274,-0.02598 13.318659,-0.03598 z m 3.889055,-12.289745 c 0,-0.033 -0.02869,-0.05999 -0.06375,-0.05999 -0.03507,0 -0.06376,0.04473 -0.06376,0.09939 0,0.05467 0.02869,0.08167 0.06376,0.06 0.03506,-0.02167 0.06375,-0.0664 0.06375,-0.0994 z"
       id="path1004"
       inkscape:connector-curvature="0" />
  </g>
</svg>
