<?xml version="1.0" encoding="UTF-8" standalone="no"?>
<!-- Created with Inkscape (http://www.inkscape.org/) -->

<svg
   xmlns:dc="http://purl.org/dc/elements/1.1/"
   xmlns:cc="http://creativecommons.org/ns#"
   xmlns:rdf="http://www.w3.org/1999/02/22-rdf-syntax-ns#"
   xmlns:svg="http://www.w3.org/2000/svg"
   xmlns="http://www.w3.org/2000/svg"
   xmlns:sodipodi="http://sodipodi.sourceforge.net/DTD/sodipodi-0.dtd"
   xmlns:inkscape="http://www.inkscape.org/namespaces/inkscape"
   width="210mm"
   height="297mm"
   viewBox="0 0 744.09448819 1052.3622047"
   id="svg3400"
   version="1.1"
   inkscape:version="0.91 r13725"
   sodipodi:docname="numeros_selected.svg">
  <defs
     id="defs3402">
    <inkscape:path-effect
       effect="spiro"
       id="path-effect3971"
       is_visible="true" />
    <inkscape:path-effect
       effect="spiro"
       id="path-effect3697"
       is_visible="true" />
    <inkscape:path-effect
       effect="spiro"
       id="path-effect3693"
       is_visible="true" />
    <inkscape:path-effect
       effect="spiro"
       id="path-effect3689"
       is_visible="true" />
    <inkscape:path-effect
       effect="spiro"
       id="path-effect3685"
       is_visible="true" />
    <inkscape:path-effect
       effect="spiro"
       id="path-effect3679"
       is_visible="true" />
  </defs>
  <sodipodi:namedview
     id="base"
     pagecolor="#ffffff"
     bordercolor="#666666"
     borderopacity="1.0"
     inkscape:pageopacity="0.0"
     inkscape:pageshadow="2"
     inkscape:zoom="0.49497475"
     inkscape:cx="644.85656"
     inkscape:cy="878.89206"
     inkscape:document-units="px"
     inkscape:current-layer="layer1"
     showgrid="false"
     inkscape:window-width="959"
     inkscape:window-height="576"
     inkscape:window-x="65"
     inkscape:window-y="24"
     inkscape:window-maximized="1" />
  <metadata
     id="metadata3405">
    <rdf:RDF>
      <cc:Work
         rdf:about="">
        <dc:format>image/svg+xml</dc:format>
        <dc:type
           rdf:resource="http://purl.org/dc/dcmitype/StillImage" />
        <dc:title></dc:title>
      </cc:Work>
    </rdf:RDF>
  </metadata>
  <g
     inkscape:label="Capa 1"
     inkscape:groupmode="layer"
     id="layer1">
    <path
       style="fill:#000000;fill-opacity:1"
       id="path3340-9"
       d="m 56.545713,61.381984 c 2.59375,-2.26466 5.12557,-4.58769 7.6656,-6.90235 3.89896,-3.23285 7.88139,-6.3782 11.7474,-9.64588 8.94199,-8.36375 12.89944,-9.12536 26.787457,-16.28042 3.91236,1.04429 1.87214,5.68905 1.19512,8.15186 -0.36156,1.31522 -0.73374,2.628 -1.10061,3.94202 -4.113047,13.18637 -7.930337,26.44355 -11.421507,39.77856 -2.74384,10.73764 -5.45134,21.481416 -7.53941,32.343276 0,0 -17.49058,7.7467 -17.49058,7.7467 l 0,0 c 2.64516,-10.92823 5.32552,-21.848786 8.23371,-32.721976 3.40036,-13.09964 6.95098,-26.16604 10.31391,-39.27336 0.0858,-0.39214 1.50729,-8.32979 1.82851,-8.69947 0.1368,-0.15745 0.20516,1.33176 -0.38304,0.49133 5.58945,-2.98098 11.17895,-5.96189 16.768317,-8.94297 0.46962,-0.25046 -0.96385,0.46586 -1.40903,0.75113 -2.563557,1.64266 -4.711867,3.7586 -7.011957,5.67827 -3.75309,3.25698 -7.57516,6.44716 -11.53038,9.49958 -2.44965,2.24116 -4.91044,4.47328 -7.30325,6.76531 0,0 -19.35026,7.31839 -19.35026,7.31839 z"
       inkscape:connector-curvature="0" />
    <path
       style="fill:#000000;fill-opacity:1"
       id="path3350-3"
       d="m 158.88986,45.827988 c 9.24238,-6.77028 18.89419,-11.83533 29.39534,-15.49288 5.60503,-1.8964 11.43037,-2.28689 17.18956,-1.13279 3.01094,1.0231 6.94252,2.33992 8.20391,5.83764 0.22765,0.63128 0.27012,1.32157 0.40519,1.98235 -8.1e-4,5.90041 -3.26827,10.92605 -6.07541,15.76069 -4.09484,6.8723 -9.21917,12.93212 -14.42726,18.85084 -5.52736,6.3813 -11.41689,12.39609 -16.84359,18.87482 -3.35067,4.06297 -7.00829,7.87267 -9.82423,12.395372 -1.37744,2.8764 -0.95042,4.65533 1.9265,5.73614 4.73858,1.14523 9.67044,0.0813 14.42114,-0.53498 4.64349,-0.34475 9.21885,-1.20191 13.80243,-2.02886 1.46298,0.0106 3.03407,-0.75827 4.50628,-0.55112 0.18011,0.0253 1.2665,0.51003 1.47218,0.59954 0.71815,0.57224 1.31732,1.27451 1.86401,2.02515 0,0 -16.19563,10.24332 -16.19563,10.24332 l 0,0 c -0.30208,-0.4496 -0.62015,-0.88501 -1.15982,-0.99706 -1.71917,-0.30736 -3.53242,0.42508 -5.25427,0.48477 -4.51404,0.66632 -9.02194,1.35443 -13.56632,1.75382 -5.05958,0.61486 -10.33116,1.68911 -15.27867,-0.12367 -0.56503,-0.32325 -1.17884,-0.5643 -1.69507,-0.96973 -2.28739,-1.7965 -2.63951,-5.07233 -1.69976,-7.71727 2.7207,-4.8853 6.6813,-8.75229 10.23768,-12.933162 5.40749,-6.55431 11.37992,-12.5388 16.91706,-18.96768 5.12995,-5.81017 10.25609,-11.6914 14.35175,-18.40129 2.57895,-4.44859 5.60093,-8.95216 6.19749,-14.27444 -0.0386,-0.45635 0.005,-0.92907 -0.11582,-1.36899 -0.80631,-2.95249 -4.79267,-3.77406 -7.0863,-4.52598 -5.59845,-0.86464 -11.16415,-0.21954 -16.51408,1.78851 -2.77623,1.05134 -5.51982,2.16233 -8.22947,3.39782 -0.75928,0.3462 -2.96863,1.53162 -2.26366,1.0732 2.62826,-1.70903 19.77869,-12.26284 12.77406,-7.95133 0,0 -17.4353,7.16734 -17.4353,7.16734 z"
       inkscape:connector-curvature="0" />
    <path
       style="fill:#000000;fill-opacity:1"
       id="path3352-1"
       d="m 275.97972,25.036725 c 2.2228,-1.63681 4.94037,-1.9993 7.50893,-2.2798 4.15763,-0.47082 8.31553,-0.29176 12.44553,0.37131 4.46286,0.89567 7.45836,2.40672 10.74684,5.9942 2.69102,3.24797 3.41231,7.26169 3.08362,11.60346 -0.64059,4.9492 -3.31804,8.65261 -6.35489,11.98847 -6.49148,6.21212 -14.10187,10.60959 -21.57131,15.05327 -1.274,0.9727 -2.84965,1.1769 -4.21179,1.86945 -0.20339,0.10341 -0.74906,0.55175 -0.55572,0.42522 3.95349,-2.58754 7.89168,-5.20608 11.83751,-7.80911 -11.73723,7.13173 -22.11396,15.39078 -0.94248,0.51302 0.15361,-0.10795 -0.33788,-0.22414 -0.39877,-0.41945 1.41949,1.37709 2.77792,2.83124 4.17186,4.24464 2.82971,2.92363 5.2244,6.19519 7.07004,10.02326 1.90099,4.24241 2.01449,8.60867 1.0594,13.1541 -1.29536,4.59468 -4.40065,7.53599 -7.78722,10.06594 -10.77016,7.653135 -14.08395,10.118595 -24.80774,11.713785 -3.88173,0.7605 -7.79789,1.16744 -11.6809,1.91214 -2.39,0.50517 -4.81001,0.73698 -7.22969,0.9463 -0.19912,0.0159 -0.39823,0.0317 -0.59734,0.0477 0,0 11.53519,-9.78033 11.53519,-9.78033 l 0,0 c 0.18057,-0.007 0.36113,-0.0142 0.5417,-0.0212 2.32394,-0.13171 4.63303,-0.45612 6.93064,-0.8774 3.85341,-0.64941 7.73545,-1.03829 11.57717,-1.78971 2.21702,-0.38469 4.39637,-0.81998 6.55805,-1.52395 4.84789,-1.578755 13.0616,-6.751825 -5.76499,5.15482 3.31337,-2.24232 6.52936,-4.71769 8.14031,-8.926195 1.14278,-4.33736 1.24727,-7.89507 -0.53435,-12.0707 -1.76188,-3.6763 -4.12865,-6.74937 -6.91631,-9.45162 -1.54241,-1.46023 -3.14232,-2.83821 -4.65443,-4.33539 -0.0571,-0.10469 -0.87228,-1.69359 -0.60103,-1.89455 0.63615,-0.47127 31.94436,-21.43808 0.96272,-0.72526 4.23664,-2.80623 8.44934,-5.66112 12.7099,-8.41866 0.41862,-0.27093 0.92133,-0.31436 1.37031,-0.51009 1.081,-0.47126 2.12536,-1.04895 3.16092,-1.6377 4.30421,-2.51231 11.1792,-7.33774 -7.4232,5.17367 -0.58051,0.39044 1.18725,-0.72991 1.75345,-1.14742 0.62663,-0.46208 2.91185,-2.42907 3.49094,-2.92284 2.98697,-2.95299 5.79287,-6.26739 6.6295,-10.86867 0.52035,-3.86679 0.0424,-7.40739 -2.43182,-10.29921 -2.91884,-3.1641 -6.21829,-4.58541 -10.16845,-5.22169 -4.10621,-0.52609 -8.23166,-0.60599 -12.33628,0.0398 -2.661,0.50504 -5.20299,1.27841 -7.5052,2.96762 0,0 11.18938,-10.33107 11.18938,-10.33107 z"
       inkscape:connector-curvature="0" />
    <path
       style="fill:#000000;fill-opacity:1"
       d="m 362.73875,425.0349 c -0.0315,0.008 -0.0307,0.0142 -0.0698,0.0244 -0.002,5.5e-4 0.006,-0.004 0.005,-0.004 -0.17896,0.0971 -0.3897,0.1129 -0.58719,0.17087 -0.0481,0.0425 -0.0961,0.0857 -0.1468,0.12407 -0.20712,0.15686 -0.47246,0.22674 -0.69641,0.31732 -0.10534,0.003 -0.20733,-5e-4 -0.3097,-0.004 -0.0217,0.0154 -0.0487,0.0523 -0.068,0.061 -0.15439,0.10671 -0.28806,0.26328 -0.46188,0.31936 -0.0166,0.005 -0.0518,0.008 -0.0734,0.0142 -0.0227,0.0183 -0.0454,0.0365 -0.068,0.0549 -0.0244,0.0505 -0.0399,0.10746 -0.0716,0.15255 -0.27379,0.38946 -0.74154,0.47768 -1.07235,0.77905 -0.0666,0.0607 -0.1257,0.0815 -0.18976,0.12611 -0.0289,0.0552 -0.0622,0.10766 -0.0913,0.16273 0.0892,7.8e-4 0.17768,0.009 0.26496,0.0346 0.12767,0.0369 -0.0896,0.26508 -0.25421,0.3336 l -0.002,0 c -0.006,0.002 -0.0119,0.004 -0.0179,0.006 l -0.17186,0.30104 c -0.171,0.18511 -0.34249,0.36959 -0.50665,0.56141 -0.4528,0.7945 -0.91298,1.58206 -1.36593,2.36158 -3.02942,5.00029 -6.55134,9.56124 -10.1506,14.03315 -3.77743,4.73155 -7.7269,9.27071 -11.74568,13.73617 -2.07226,2.48331 -4.48035,4.62033 -6.43765,7.22506 -0.66916,0.83532 -1.85302,1.47929 -1.6667,2.75416 0.45761,1.47577 1.84387,1.30389 2.97893,1.26723 3.11376,-0.38652 6.21068,-0.92947 9.29487,-1.54591 5.29784,-1.12909 10.54656,-2.52688 15.76294,-4.06409 3.84521,-1.08456 7.67446,-2.24295 11.58994,-2.9535 1.42618,-0.25612 2.86622,-0.35008 4.30728,-0.39257 0.52359,0.002 0.99945,0.0937 1.5038,-0.0976 l 7.82328,-7.17014 c -0.17609,0.11578 -0.37463,0.16606 -0.6767,0.10577 -1.5507,0.005 -3.09502,0.20645 -4.62953,0.44546 -4.04609,0.75054 -7.98734,1.99824 -11.96051,3.12843 -5.14528,1.56898 -10.32845,2.97563 -15.57676,4.02952 -2.95956,0.56873 -5.93074,1.03565 -8.91891,1.35266 -0.10695,0.0192 -0.92877,0.0857 -1.43756,0.13222 0.47875,-0.50473 1.16202,-1.47302 1.33372,-1.64558 1.95619,-2.39861 4.07444,-4.61983 6.07245,-6.97284 3.92216,-4.48955 7.80187,-9.0234 11.54875,-13.70363 3.08547,-3.85613 6.09636,-7.79711 8.84552,-11.97058 l 0,-0.75059 c -0.0121,-0.10165 -0.002,-0.19961 0.0178,-0.29494 -0.004,-0.0564 -0.0178,-0.0982 -0.0178,-0.15866 l 0,-0.88279 c -0.13479,-0.13047 -0.24059,-0.23795 -0.33119,-0.41089 -0.0904,-0.0516 -0.18094,-0.11216 -0.24884,-0.15662 -0.26207,-0.18899 -0.37393,-0.28933 -0.5872,-0.50039 -0.006,-0.006 -0.0208,-0.0167 -0.0304,-0.0243 -0.0454,-0.0312 -0.0925,-0.0679 -0.13069,-0.0813 -0.042,-0.022 -0.0858,-0.0416 -0.12711,-0.0651 -0.14993,-0.0851 -0.3088,-0.15356 -0.44755,-0.26037 -0.002,-7.8e-4 -0.002,-0.003 -0.004,-0.004 z m -0.52812,0.0875 c -0.0378,0.0282 -0.0734,0.0601 -0.10921,0.0915 0.0438,-0.0261 0.0897,-0.0474 0.12891,-0.0813 0.005,-0.005 -0.0137,-0.0151 -0.0197,-0.0104 z m 18.38385,28.09682 -0.54602,0.50242 c 0.17694,-0.1174 0.33261,-0.30083 0.54602,-0.50242 z"
       id="path3362-7"
       inkscape:connector-curvature="0" />
    <path
       style="fill:#000000;fill-opacity:1"
       d="m 364.01518,425.94007 c -0.11622,0.12697 -0.25559,0.23181 -0.44756,0.2807 -0.091,0.0264 -0.1829,0.0755 -0.27391,0.10175 -0.0645,0.068 -0.12693,0.14688 -0.34014,0.33562 -0.24652,0.16669 -0.89295,0.62977 -1.14932,0.61633 -0.22928,0.0916 -0.25593,0.10787 -0.57288,0.18104 -0.029,0.006 0.0572,-0.0221 0.0806,-0.0427 0.005,-0.005 -0.0113,-0.0177 -0.0179,-0.0142 -0.0748,0.04 -0.14164,0.0986 -0.21662,0.13832 -0.0131,0.007 -0.0286,1.6e-4 -0.043,0 -0.0718,0.0671 -0.14186,0.13598 -0.21483,0.20137 -0.0284,0.0255 -0.0976,0.11132 -0.0896,0.0712 0.0185,-0.0914 0.18196,-0.31031 0.12353,-0.24408 -0.78002,0.88397 0.003,0.3143 -0.80202,0.77296 0.0468,-0.0343 0.0977,-0.0624 0.14143,-0.10175 0.0188,-0.017 -0.047,0.0181 -0.0662,0.0346 -0.28819,0.24686 -0.41344,0.3643 -0.71788,0.48412 -0.26975,0.49183 -0.60975,0.68517 -0.90406,0.63463 -0.0543,0.0714 -0.0864,0.11831 -0.17007,0.21561 -0.006,0.007 -0.0284,0.009 -0.0483,0.0163 l -0.0519,0.0834 c -0.002,0.002 -0.004,0.0125 -0.005,0.0142 -0.0377,0.095 -0.0702,0.19258 -0.11278,0.28477 -0.009,0.0194 -0.0334,0.0268 -0.0411,0.0468 -0.0907,0.23596 -0.17297,0.52777 -0.28464,0.76684 -0.003,0.0117 3.7e-4,0.0252 -0.004,0.0367 -0.23505,0.67985 -0.46226,0.89383 -0.99895,1.21639 -0.24233,0.14563 -0.39976,0.14854 -0.50484,0.0671 -0.10952,0.17481 -0.0497,0.11135 -0.47084,0.58988 -0.13776,0.15654 -0.27587,0.27053 -0.40995,0.35597 0.15015,1.85049 0.18838,3.71815 0.25242,5.56729 0.15887,5.87469 0.17502,11.75265 0.20408,17.62941 0.27025,6.37239 0.31385,12.75751 0.63374,19.1265 0.25171,4.11352 0.44744,8.22814 0.51738,12.35095 -0.0682,1.84364 0.35156,3.63898 0.55318,5.45542 0.10972,1.27849 0.43309,2.5178 0.63016,3.7834 l 9.38795,-5.70154 c -0.23726,-1.2303 -0.5067,-2.45965 -0.60868,-3.71628 -0.22872,-1.75325 -0.65133,-3.47731 -0.66416,-5.26013 -0.23808,-4.06409 -0.55934,-8.12114 -0.85574,-12.18011 -0.36564,-6.32513 -0.54691,-12.6651 -0.7143,-19.00038 0.0232,-5.93204 0.0543,-11.86424 0.0304,-17.7962 -0.0188,-1.97085 -0.0383,-3.94802 -0.13068,-5.9192 -0.0409,-0.13457 -0.0874,-0.28629 -0.10027,-0.33969 -0.004,-0.0132 0.0174,0.0179 0.0268,0.0265 -0.009,-0.0318 -0.0163,-0.0639 -0.025,-0.0956 -0.0496,-0.12097 -0.11129,-0.23622 -0.15933,-0.35799 -0.003,-0.006 0.0117,-5e-5 0.0179,0 -0.0415,-0.0876 -0.0982,-0.1672 -0.12353,-0.2624 -0.0143,-0.0538 0.12007,0.17834 0.0895,0.13424 -0.12988,-0.18712 -0.23796,-0.3883 -0.3491,-0.58784 z m -0.44577,0.11187 c -0.0962,0.0982 -0.10444,0.0977 -0.15038,0.14646 0.0154,-0.007 0.0411,-0.0109 0.0519,-0.0183 0.0425,-0.0296 0.13556,-0.16602 0.0985,-0.12814 z m -7.35067,5.9965 c -0.0353,0.0146 -0.0702,0.0308 -0.10562,0.0448 -0.063,0.025 0.014,0.006 0.11279,-0.0346 -0.003,-0.003 -0.005,-0.006 -0.007,-0.0104 z"
       id="path3364-8"
       inkscape:connector-curvature="0" />
    <path
       style="fill:#000000;fill-opacity:1"
       id="path3368-4"
       d="m 510.41203,46.005321 c -3.79116,-0.2844 -7.5404,-0.24091 -11.28982,0.55703 -0.79344,0.25226 -1.59122,0.48276 -2.38034,0.75679 -2.55568,0.88748 -2.57245,0.87571 -4.97286,2.34658 -0.8107,0.49676 -3.17584,2.15681 -2.4023,1.56914 15.21497,-11.55877 15.64201,-12.05019 9.93614,-7.01342 -3.79297,3.52814 -6.71385,8.12233 -9.07273,13.28446 -1.31494,3.10416 -1.91691,6.50678 -2.17974,9.99503 -0.0524,1.34762 -0.0521,2.70145 0.003,4.04916 0.006,0.11021 0.0605,0.42625 0.0174,0.33088 -3.54758,-7.82692 12.51385,-11.09997 -15.43492,9.13142 -0.18983,0.13737 0.3298,-0.37227 0.51778,-0.51385 5.28557,-3.98111 10.59876,-7.90048 15.89813,-11.85072 3.52934,-1.53908 7.18775,-1.68656 10.84466,-1.07329 4.64178,1.12563 8.98052,3.4888 12.7142,7.21697 3.99006,4.49163 4.03574,9.7228 3.12944,15.99572 -0.97359,6.08453 -3.74517,10.527679 -7.2418,14.537669 -6.82405,6.67931 -2.40649,2.50667 -18.50569,14.343 -1.08377,0.79679 -3.20518,1.87924 -4.39141,2.34016 -1.81466,0.70515 -3.13244,0.92872 -4.99753,1.35117 -4.52894,0.81976 -9.10782,0.98056 -13.67372,1.09994 -1.82554,0.0156 -3.65078,0.0632 -5.47616,0.095 -0.0737,6.2e-4 -0.14738,9.7e-4 -0.22118,0.002 0,0 14.41134,-13.4785 14.41134,-13.4785 l 0,0 c 0.0621,0.006 0.12413,0.01 0.18623,0.0156 1.70042,0.12781 3.4043,0.16924 5.10739,0.16044 4.44308,-0.0273 8.90598,-0.18292 13.2866,-1.24045 2.44586,-0.71457 4.74353,-1.51229 7.02131,-2.90377 0.71057,-0.43409 2.76666,-1.92711 2.09271,-1.40425 -15.51306,12.03509 -16.35157,12.85248 -10.7762,7.94521 3.51049,-3.55474 6.55789,-7.43325 7.73884,-13.19846 0.94329,-5.166429 1.26663,-10.070449 -2.24456,-13.742229 -3.60937,-3.3708 -7.70092,-5.57267 -12.15235,-6.2276 -3.5998,-0.23777 -7.30205,0.1364 -10.52199,2.43423 37.52663,-28.11291 -1.34869,0.86983 -1.8892,1.24139 -0.28664,0.19704 -1.49218,-1.66284 -1.2218,-2.12839 -0.006,-1.46719 -0.0305,-2.93352 0.0835,-4.39714 0.2255,-3.81892 0.88027,-7.52689 2.11095,-11.02937 2.32247,-5.45106 5.17991,-10.41575 9.01043,-14.2691 8.56755,-8.58667 18.57354,-16.34225 29.36126,-19.05184 3.93659,-0.61179 7.88033,-0.56768 11.83928,-0.68779 0,0 -14.26368,13.41173 -14.26368,13.41173 z"
       inkscape:connector-curvature="0" />
    <path
       style="fill:#000000;fill-opacity:1"
       id="path3376-5"
       d="m 616.70549,41.39361 c -4.56953,3.37983 1.28988,-0.97112 10.73829,-7.13933 0.48443,-0.31624 -0.91845,0.72774 -1.37832,1.09052 -1.92224,1.51646 -3.80038,3.06913 -5.65511,4.69691 -5.45103,5.04887 -10.65732,10.44141 -15.87808,15.80746 -6.50832,6.66343 -12.20112,14.22121 -17.03143,22.58911 -2.94784,5.91479 -6.11808,12.22537 -6.59704,19.21745 -0.0716,1.04528 0.0182,2.09712 0.0273,3.14567 0.92927,6.87592 5.02633,9.1731 10.2408,11.10969 6.24439,1.95364 12.53445,1.0471 18.65272,-0.96368 0.91986,-0.45103 1.86132,-0.84617 2.75958,-1.35307 0.8739,-0.49316 3.39909,-2.19041 2.54929,-1.64286 -3.22592,2.07858 -6.3306,4.43712 -9.67767,6.23594 -0.87823,0.472 1.51532,-1.41066 2.19425,-2.21411 1.76677,-2.09088 1.95788,-2.81929 3.21635,-5.31529 1.43636,-3.94399 2.19292,-8.73608 -0.0392,-12.52417 -0.36101,-0.61264 -0.83483,-1.12344 -1.25224,-1.68516 -4.26241,-3.81716 -9.65567,-2.44923 -14.39185,-0.75946 -0.98367,0.47105 -1.99063,0.88062 -2.951,1.41313 -1.01517,0.56289 -3.94501,2.51571 -2.96739,1.86856 2.959,-1.95877 5.83058,-4.12164 8.91201,-5.80372 1.10949,-0.60564 -1.98618,1.67455 -2.95367,2.5512 -2.67104,2.42027 -3.12566,2.99187 -5.63575,5.62413 -3.06451,3.32354 -5.87313,6.94886 -8.72785,10.51306 0,0 -13.13383,6.3875 -13.13383,6.3875 l 0,0 c 3.00785,-3.57643 5.90155,-7.28004 8.99366,-10.75776 8.5903,-9.33592 18.52521,-17.17281 29.63357,-21.8211 5.48148,-1.62486 10.92977,-2.4799 15.55504,2.13327 0.46902,0.66834 1.00234,1.28166 1.40705,2.00498 2.39817,4.28599 1.92405,9.52977 0.4719,14.09927 -1.15999,2.66436 -1.36453,3.53219 -3.05812,5.82105 -5.43666,7.34758 -14.28632,11.68325 -22.07671,15.22029 -6.33913,1.80822 -12.79097,2.33368 -19.15337,0.21329 -5.96272,-2.40867 -10.0394,-5.02864 -11.17863,-12.82513 -0.0216,-1.14753 -0.13249,-2.2975 -0.0647,-3.44258 0.42921,-7.25555 3.64778,-13.84158 6.64857,-20.01242 4.74191,-8.4961 10.39021,-16.14439 16.84327,-22.95103 5.09175,-5.30305 10.17514,-10.61774 15.42109,-15.7134 6.55776,-6.05088 13.64633,-11.21422 21.12669,-15.63797 0,0 -11.58935,10.81976 -11.58935,10.81976 z"
       inkscape:connector-curvature="0" />
    <path
       style="fill:#000000;fill-opacity:1"
       id="path3394-0"
       d="m 65.941196,176.03581 c 3.30906,0.54898 6.65056,0.42458 9.96698,0.35968 5.39823,-0.15788 10.80894,0.074 16.21113,0.41004 4.17768,0.43699 8.362294,0.001 12.535524,0.32277 1.56943,0.15757 3.13257,0.41475 4.7005,0.59931 0.45446,0.2732 0.39459,0.17596 0.7026,1.18971 0.40681,1.33887 -1.18248,2.05659 -1.85569,2.61964 -3.59248,3.03186 -6.92873,6.47618 -10.192574,10.02072 -5.34313,5.89831 -10.14324,12.4756 -14.6891,19.31524 -4.35993,6.65081 -7.35063,14.41017 -9.56962,22.52627 -1.54723,6.03698 -2.29238,12.35292 -2.82485,18.66787 -0.1923,2.56902 -0.26266,5.15916 -0.11982,7.74544 0,0 -11.47962,8.18531 -11.47962,8.18531 l 0,0 c -0.008,-2.74476 0.0756,-5.48636 0.35544,-8.20267 0.70016,-6.47673 1.53816,-12.95901 3.06974,-19.19627 2.16844,-8.28023 5.10995,-16.2266 9.44207,-23.07618 4.48483,-6.85579 9.22451,-13.44772 14.45514,-19.44259 3.07174,-3.48138 6.21338,-6.84694 9.56501,-9.9113 1.21598,-0.99806 1.71685,-2.17389 2.70672,-0.22521 -1.44497,-0.3222 -2.8973,-0.60455 -4.35622,-0.77247 -4.08918,-0.2572 -8.1847,-0.17571 -12.27345,-0.57169 -5.41165,-0.34525 -10.82988,-0.52261 -16.23369,-0.24037 -3.50024,0.10696 -7.01374,0.25194 -10.51599,-0.17573 0,0 10.39977,-10.1475 10.39977,-10.1475 z"
       inkscape:connector-curvature="0" />
    <path
       style="fill:#000000;fill-opacity:1"
       d="m 201.73424,174.02229 c -3.81237,-0.0481 -7.62138,0.16759 -11.39063,0.67802 0.0486,-0.13758 0.10703,-0.27067 0.15999,-0.40632 -0.0677,-0.001 -0.13516,0.001 -0.20265,0.002 -0.0681,0.002 -0.0926,0.01 -0.13865,0.0144 -0.0594,0.005 -0.11535,0.009 -0.17332,0.0144 0.11727,0.0603 0.26553,0.14266 0.29063,0.15628 0.0968,0.0524 -0.28447,-0.092 -0.34395,-0.15148 -0.27929,0.0262 -0.55178,0.0437 -0.84257,-0.0457 -0.16341,-0.0502 -0.31054,-0.13256 -0.45594,-0.21879 -0.058,0.004 -0.11536,0.004 -0.17331,0.007 -0.0756,0.0646 -0.13671,0.11129 -0.24264,0.21639 -0.45022,9e-5 -0.90162,0.002 -1.35184,0 -0.48706,-0.004 -0.9717,-0.004 -1.45849,0.0144 -0.0803,-9.8e-4 -0.91252,0.0226 -0.93589,-0.0673 -0.0216,-0.0831 0.11741,-0.006 0.032,-0.0481 -0.44596,0.1954 -0.90758,0.34061 -1.4105,0.29332 -0.0476,-0.005 -0.10593,0.01 -0.14398,-0.0169 -10e-4,-0.001 0.0123,-0.004 0.0109,-0.005 -0.27582,0.0915 -0.56095,0.15652 -0.84523,0.22361 l 0,-0.002 c -0.0373,0.0276 -0.0773,0.0519 -0.11468,0.0794 -0.047,0.0435 -0.0883,0.0948 -0.1493,0.11781 -0.32629,0.12332 -0.66954,0.21376 -1.01588,0.2789 -0.0494,0.01 -0.0991,-0.009 -0.14932,-0.0192 -0.17427,0.25514 -0.37529,0.54275 -0.6879,0.56503 -0.16882,0.0875 -0.33467,0.17961 -0.50662,0.26207 -0.0261,0.0126 -0.095,0.0417 -0.0853,0.0217 -0.35017,0.31678 -0.70409,0.63201 -1.0532,0.94971 -0.28178,0.25642 -0.55882,0.4004 -0.82657,0.5001 -0.31475,0.65691 -0.59947,1.32431 -0.82657,2.01244 -0.11303,0.0595 -0.22189,0.12549 -0.33329,0.18754 0.10976,0.20115 0.14637,0.44468 0.048,0.75016 -0.10006,0.31046 -0.0367,0.14109 -0.19464,0.51212 -0.0411,0.0135 -0.23791,0.68477 -0.30663,0.74294 -0.003,0.14957 -0.008,0.30012 -0.0136,0.44961 l 0.11726,-0.0409 c -0.0343,0.17066 -0.0677,0.34145 -0.10129,0.51212 0.0573,0.23807 0.10061,0.41916 0.0481,0.73092 -0.0673,0.3987 -0.17032,0.45036 -0.24531,0.49289 -0.0294,0.18483 -0.0607,0.3692 -0.0853,0.55541 -0.20884,6.87673 2.27254,13.47496 5.27402,19.69878 2.80472,4.99023 6.12938,9.71415 9.56152,14.37557 -1.48052,1.90556 -2.96663,3.80708 -4.4288,5.72474 -4.65367,6.05083 -9.55471,12.03741 -12.99575,18.74666 -2.15654,5.18424 -3.04111,9.54214 -1.01056,14.92135 2.59987,5.19474 5.22029,7.05594 11.53727,8.00166 0.95154,0.0556 1.90228,0.18141 2.85566,0.1659 10.22996,-0.16618 18.93486,-6.29644 27.01009,-11.31003 0.73364,-0.63368 1.53094,-1.21226 2.19974,-1.90183 3.56305,-3.67378 4.51448,-8.49829 3.94352,-13.2287 -0.21829,-1.03051 -0.35811,-2.07781 -0.65592,-3.09199 -1.79976,-6.12897 -6.13055,-11.36539 -9.81749,-16.64286 -1.67484,-2.22633 -3.34804,-4.46067 -5.00472,-6.70571 3.10225,-3.96737 6.20547,-7.93296 9.25487,-11.93516 2.53798,-3.86142 5.65006,-7.80371 6.68988,-12.2886 0.15791,-0.68082 0.1796,-1.38173 0.26929,-2.07254 0.36065,-3.29659 -0.78281,-6.13315 -3.07963,-8.63881 -3.11807,-2.83698 -7.46087,-3.57688 -11.69192,-4.00323 -1.26981,-0.0737 -2.5421,-0.11855 -3.81288,-0.13465 z m -18.77108,0.43759 c -0.034,-0.0459 0.50302,-0.0636 0.21331,-0.12742 -0.0715,0.0421 -0.1331,0.10082 -0.21331,0.12742 z m 6.9725,-0.12983 c 0.0177,-0.001 0.0355,-0.004 0.0534,-0.005 -0.0175,-0.009 -0.0247,-0.0146 -0.0426,-0.024 -0.007,6.7e-4 -0.0142,-7.4e-4 -0.0213,0 -0.0224,0.002 -0.001,0.017 0.0109,0.0288 z m -7.43377,0.0769 c -0.0969,0.0619 -0.18759,0.13211 -0.27997,0.19957 0.0606,-0.0272 0.12123,-0.0533 0.17598,-0.089 0.043,-0.0279 0.14726,-0.13823 0.10403,-0.11054 z m -1.65314,0.50973 c -0.0157,0.0201 -0.0371,0.052 -0.0534,0.0745 0.003,-8.8e-4 0.005,-0.001 0.008,-0.002 0.0319,-0.0426 0.0628,-0.0944 0.0453,-0.0721 z m 8.50565,7.15292 c 1.23673,0.002 2.47611,0.0293 3.71421,0.0938 3.80325,0.28551 7.79924,0.87029 10.69739,3.31079 2.20889,2.25456 2.98387,4.45661 2.66635,7.49674 -0.86247,5.02074 -3.8348,9.42078 -6.87651,13.6206 -0.0157,0.021 -0.0322,0.0415 -0.048,0.0625 -2.02631,-2.98302 -3.93957,-6.02615 -5.63399,-9.17498 -2.26625,-4.92474 -4.19681,-10.08124 -4.51946,-15.40943 z m -21.63206,2.87559 c -0.0689,0.0468 -0.13948,0.0924 -0.20798,0.13946 l 0.23997,-0.0865 c -0.0109,-0.0209 -0.0225,-0.0331 -0.0319,-0.0529 z m 27.39936,39.7438 c 0.448,0.59929 0.89837,1.19835 1.34384,1.79844 3.5102,5.225 7.71331,10.43242 9.25489,16.4962 0.24659,0.96997 0.33557,1.96905 0.50394,2.95254 0.31525,4.1164 -0.66458,8.10921 -3.6049,11.2355 -2.17724,0.45115 -4.34418,0.57538 -6.62587,0.56262 -5.7318,-0.67296 -8.19431,-1.98017 -10.52674,-6.75141 -1.79695,-4.93614 -0.76073,-9.1721 1.34651,-13.85141 2.34213,-4.36898 5.2656,-8.44261 8.30833,-12.44248 z"
       id="path3400-2-3"
       inkscape:connector-curvature="0" />
    <path
       style="fill:#000000;fill-opacity:1"
       id="path3408-6"
       d="m 319.03412,184.36261 c -2.70142,-3.44817 -5.3591,-4.36862 -9.49593,-5.16046 -2.86186,-0.17363 -5.66052,0.42778 -8.31762,1.50009 -1.05196,0.42453 -4.04264,2.0631 -3.07068,1.47339 14.58884,-8.85137 11.74134,-6.96357 6.56326,-3.16675 -5.23178,4.64586 -10.45005,10.09534 -12.82747,16.90807 -0.3764,1.07861 -0.54377,2.2213 -0.81566,3.33194 -0.28473,3.07601 0.15213,6.88087 3.5307,8.03394 1.78188,0.60813 3.0181,0.2336 4.83915,0.0183 0.95859,-0.28243 1.93002,-0.52312 2.87577,-0.8473 1.0019,-0.34341 2.00431,-0.69817 2.96204,-1.15368 0.98801,-0.46992 3.80677,-2.16767 2.86068,-1.61566 -17.7932,10.38192 -10.50763,6.49709 -5.33619,2.02824 3.19611,-2.97985 5.76491,-6.48901 7.14595,-10.67955 0.31743,-1.06305 0.0685,-2.69512 -0.95539,-0.99918 23.55913,-13.54728 13.85483,-11.38386 12.24218,-5.30432 -0.735,2.77094 -1.04332,5.61888 -1.38681,8.45861 -0.9402,9.70144 -1.49188,19.42841 -1.83092,29.16864 -0.13802,9.47554 0.27327,18.93841 1.27009,28.35808 0,0 -13.66567,7.22189 -13.66567,7.22189 l 0,0 c -0.48624,-9.58001 -0.99614,-19.16022 -0.86859,-28.75874 0.26444,-9.67241 0.7437,-19.33144 1.26936,-28.99195 0.22685,-3.3952 0.49163,-6.79069 1.08161,-10.14526 0.0792,-0.45027 -0.079,-1.08308 0.29334,-1.33943 4.64956,-3.20042 9.63106,-5.87097 14.4466,-8.80646 2.07334,0.35217 2.98266,2.15199 2.61075,4.20563 -1.45524,4.50052 -3.92085,8.38107 -7.30416,11.67245 -6.55027,6.10592 -12.37553,8.76277 -21.07439,13.75268 -2.86217,1.64182 -5.98909,2.65467 -9.22336,3.18488 -2.30046,-8.9e-4 -3.40632,0.28228 -5.52125,-0.78962 -3.71907,-1.88493 -4.44751,-6.07953 -4.14017,-9.88719 0.26864,-1.21351 0.4259,-2.4582 0.80591,-3.6405 2.2533,-7.01023 7.43519,-12.69853 12.5721,-17.66328 7.75377,-6.14842 4.26473,-3.61922 19.66566,-12.28967 3.68589,-2.07509 8.03378,-2.76969 12.17353,-2.34761 4.48273,1.02533 7.40752,2.42611 10.59532,5.83663 0,0 -13.96974,8.43314 -13.96974,8.43314 z"
       inkscape:connector-curvature="0" />
    <path
       style="opacity:0.98999999;fill:#000000;fill-opacity:1"
       id="path3450-1"
       d="m 391.61656,183.63913 c -2.76378,2.63539 -6.82153,6.04636 6.26306,-5.58215 0.31366,-0.27877 -0.61736,0.58391 -0.92413,0.88071 -0.55534,0.53734 -1.3929,1.37255 -1.93829,1.91402 -2.26309,2.27964 -4.13768,5.2953 -5.89475,8.44412 -2.21473,3.98234 -3.88236,8.53282 -5.31642,13.27648 -1.57994,5.47923 -1.99958,11.37049 -2.0486,17.30424 -0.0244,6.46173 1.0696,11.57198 3.11245,17.10198 2.23796,5.37699 5.65039,8.79562 9.26049,11.5844 4.30982,2.92729 8.2513,3.36757 12.86693,2.70683 3.08647,-0.67765 6.00694,-2.25329 8.79667,-4.38606 0.76462,-0.5846 2.99616,-2.52545 2.25769,-1.86424 -1.84712,1.6538 -3.72295,3.22865 -5.58443,4.84294 4.33125,-4.41131 7.90813,-10.20996 11.06881,-16.53204 2.54131,-5.30329 4.3182,-11.31113 5.79005,-17.48197 1.14686,-4.5969 1.16451,-9.35711 0.53987,-14.12043 -0.66978,-4.50059 -2.16473,-8.33974 -4.15236,-11.70498 -2.53665,-4.26012 -5.88802,-6.73445 -9.25884,-8.98259 -3.68793,-2.37485 -7.5604,-3.98125 -11.53623,-4.50689 -3.45581,-0.36822 -6.88894,0.43862 -10.25733,1.56489 -0.47873,0.25591 -0.96268,0.48925 -1.43619,0.76772 -1.3001,0.76461 -1.55335,0.9868 -2.7732,2.03774 -0.45588,0.39276 -1.80903,1.61124 -1.35567,1.21142 7.0771,-6.24137 8.77298,-8.28183 5.41702,-4.47073 -2.67304,3.14645 -4.63007,7.32862 -6.35922,11.73531 -1.08695,3.00868 -0.57926,1.54486 -1.52983,4.38577 0,0 -8.59473,6.01668 -8.59473,6.01668 l 0,0 c 1.01583,-2.90974 0.49002,-1.41046 1.57816,-4.49723 1.68814,-4.51241 3.53452,-8.89049 6.17379,-12.21313 4.03131,-5.06327 1.05985,-1.4876 10.63449,-10.16129 1.80039,-1.63099 3.71838,-2.93347 5.75165,-3.66931 3.40342,-0.99775 6.87184,-1.6118 10.33627,-1.10557 4.01802,0.78914 7.94177,2.41849 11.67425,4.89018 3.48681,2.36421 6.92252,5.00988 9.55596,9.41307 2.09542,3.56664 3.74398,7.56912 4.46686,12.33378 0.67652,4.9992 0.74354,10.09452 -0.43119,14.94672 -1.47987,6.33064 -3.31061,12.48221 -5.83138,17.9879 -3.14104,6.4504 -6.68733,12.39836 -10.98834,17.02531 -6.85738,6.28364 -13.3093,13.56057 -21.36438,15.0615 -4.66494,0.43845 -8.8714,-0.21877 -13.16793,-3.3267 -3.75621,-2.96543 -7.26845,-6.6378 -9.59723,-12.25285 -2.10645,-5.73851 -3.31258,-11.07548 -3.34394,-17.77481 8.4e-4,-6.08252 0.33898,-12.13802 1.84439,-17.82849 1.36447,-4.82956 2.9527,-9.46455 5.10869,-13.56935 1.69996,-3.24697 3.53382,-6.32449 5.71187,-8.81393 4.28619,-4.2375 8.62646,-8.34748 13.10091,-12.09269 0,0 -7.62572,9.50372 -7.62572,9.50372 z"
       inkscape:connector-curvature="0" />
    <path
       style="fill:#000000;fill-opacity:1"
       id="path3340-0-6"
       d="m 51.942092,453.56959 c 1.7921,-1.77213 3.54142,-3.58994 5.29641,-5.4012 2.69392,-2.52975 5.44551,-4.99103 8.11666,-7.54804 6.1783,-6.54477 8.91263,-7.14074 18.50831,-12.73968 2.70318,0.81717 1.29353,4.45177 0.82575,6.37896 -0.24982,1.02917 -0.50696,2.05645 -0.76045,3.08468 -2.84184,10.31854 -5.47932,20.69249 -7.89148,31.12734 -1.89581,8.40232 -3.76651,16.80951 -5.20923,25.30911 0,0 -12.0848,6.06191 -12.0848,6.06191 l 0,0 c 1.82763,-8.55149 3.67957,-17.09702 5.68894,-25.60546 2.34941,-10.25066 4.80265,-20.47532 7.12621,-30.73199 0.0593,-0.30686 1.04143,-6.51819 1.26337,-6.80747 0.0945,-0.12321 0.14176,1.04211 -0.26466,0.38447 3.86194,-2.33267 7.72391,-4.66527 11.58578,-6.99801 0.32447,-0.19599 -0.66596,0.36454 -0.97354,0.58777 -1.77125,1.28541 -3.25558,2.94116 -4.84479,4.44333 -2.59314,2.54864 -5.23393,5.045 -7.96671,7.43357 -1.69255,1.75374 -3.39278,3.50041 -5.04606,5.29395 0,0 -13.36971,5.72676 -13.36971,5.72676 z"
       inkscape:connector-curvature="0" />
    <path
       style="fill:#000000;fill-opacity:1"
       id="path3350-6-6"
       d="m 149.67561,442.82683 c 7.09345,-5.29787 14.50112,-9.26137 22.56066,-12.12347 4.30181,-1.48397 8.77271,-1.78953 13.19283,-0.88643 2.31087,0.8006 5.32832,1.83103 6.29643,4.56807 0.17472,0.49398 0.20731,1.03415 0.31098,1.55122 -6.2e-4,4.61718 -2.50837,8.54984 -4.66282,12.33303 -3.14276,5.3777 -7.07563,10.11961 -11.0728,14.75111 -4.24219,4.99348 -8.76236,9.70018 -12.9273,14.76996 -2.57161,3.17929 -5.3788,6.16046 -7.54001,9.69955 -1.05717,2.25084 -0.72944,3.64294 1.47857,4.48869 3.63682,0.89614 7.42198,0.0634 11.0681,-0.41865 3.56384,-0.26981 7.07538,-0.94051 10.59324,-1.58765 1.12282,0.009 2.32862,-0.59331 3.45853,-0.43125 0.13823,0.0196 0.97203,0.39909 1.12988,0.4692 0.55118,0.44776 1.01104,0.99732 1.43061,1.58468 0,0 -12.42999,8.01557 -12.42999,8.01557 l 0,0 c -0.23185,-0.35182 -0.47596,-0.69253 -0.89016,-0.78017 -1.31944,-0.24054 -2.7111,0.33257 -4.0326,0.37929 -3.46449,0.52147 -6.92426,1.05992 -10.41203,1.37246 -3.88318,0.48109 -7.92907,1.32175 -11.72624,-0.0968 -0.43366,-0.25299 -0.90475,-0.44157 -1.30095,-0.75881 -1.75555,-1.40579 -2.0258,-3.96925 -1.30455,-6.03893 2.08811,-3.82284 5.12784,-6.84884 7.85733,-10.12047 4.15019,-5.12886 8.73398,-9.81185 12.98369,-14.84258 3.93719,-4.54651 7.87145,-9.14874 11.01483,-14.39929 1.97933,-3.48111 4.29867,-7.00526 4.75652,-11.17005 -0.0296,-0.3571 0.004,-0.72701 -0.0889,-1.07126 -0.61883,-2.31037 -3.67833,-2.95327 -5.43867,-3.54166 -4.29676,-0.6766 -8.56838,-0.17179 -12.67441,1.39954 -2.13073,0.8227 -4.23641,1.69207 -6.31604,2.65886 -0.58274,0.27091 -2.2784,1.19852 -1.73734,0.8398 2.01717,-1.33735 15.17997,-9.5959 9.80398,-6.22207 0,0 -13.38144,5.60858 -13.38144,5.60858 z"
       inkscape:connector-curvature="0" />
    <path
       style="fill:#000000;fill-opacity:1"
       id="path3352-3-4"
       d="m 253.7111,425.58579 c 1.68566,-1.28083 3.74652,-1.56449 5.69439,-1.78398 3.15293,-0.36843 6.30607,-0.22831 9.43805,0.29055 3.38441,0.70088 5.65604,1.88331 8.14986,4.69058 2.04073,2.54159 2.58772,5.68241 2.33846,9.07992 -0.48579,3.87284 -2.51623,6.77083 -4.81922,9.3812 -4.92281,4.8611 -10.69414,8.30221 -16.35859,11.77947 -0.96613,0.76116 -2.16103,0.92095 -3.194,1.46288 -0.15424,0.0809 -0.56805,0.43175 -0.42143,0.33274 2.99812,-2.0248 5.98465,-4.07385 8.97696,-6.11077 -8.90092,5.58071 -16.7701,12.04357 -0.71473,0.40144 0.11649,-0.0845 -0.25623,-0.17539 -0.3024,-0.32822 1.07646,1.0776 2.10663,2.2155 3.16372,3.32151 2.14591,2.28779 3.96192,4.84785 5.36156,7.84339 1.44161,3.31976 1.52769,6.73644 0.80339,10.29333 -0.98233,3.59542 -3.33722,5.89705 -5.90543,7.87678 -8.16754,5.98873 -10.68055,7.918 -18.81292,9.16626 -2.94371,0.59511 -5.91352,0.91354 -8.8582,1.49629 -1.81245,0.3953 -3.64767,0.5767 -5.48263,0.74049 -0.151,0.0125 -0.302,0.0248 -0.45299,0.0373 0,0 8.7477,-7.65329 8.7477,-7.65329 l 0,0 c 0.13693,-0.005 0.27386,-0.0111 0.4108,-0.0166 1.76235,-0.10307 3.51345,-0.35692 5.25584,-0.68658 2.92223,-0.50818 5.86617,-0.81248 8.77954,-1.40048 1.68127,-0.30103 3.33398,-0.64165 4.97329,-1.19252 3.67639,-1.23541 9.90525,-5.28344 -4.37188,4.03374 2.51269,-1.75466 4.95154,-3.69168 6.1732,-6.98492 0.86662,-3.39406 0.94586,-6.17804 -0.40523,-9.44555 -1.33611,-2.87677 -3.13095,-5.28151 -5.24497,-7.39607 -1.16969,-1.14265 -2.38298,-2.22095 -3.52968,-3.39252 -0.0433,-0.0819 -0.6615,-1.32527 -0.45579,-1.48252 0.48242,-0.36878 24.22497,-16.7757 0.73007,-0.56753 3.21285,-2.19593 6.40755,-4.42993 9.63854,-6.58776 0.31746,-0.21201 0.69869,-0.24599 1.03918,-0.39915 0.81977,-0.36877 1.61176,-0.82083 2.39708,-1.28154 3.26409,-1.96593 8.47773,-5.74191 -5.62938,4.0485 -0.44023,0.30552 0.90035,-0.57117 1.32973,-0.89788 0.4752,-0.36159 2.2082,-1.90079 2.64735,-2.28718 2.26516,-2.31077 4.39302,-4.90435 5.02747,-8.50493 0.39461,-3.02584 0.0322,-5.79643 -1.84417,-8.05933 -2.21349,-2.47597 -4.71563,-3.58817 -7.71123,-4.08607 -3.11394,-0.41167 -6.24247,-0.4742 -9.3552,0.0311 -2.01797,0.3952 -3.94569,1.00038 -5.69157,2.32221 0,0 8.48546,-8.08425 8.48546,-8.08425 z"
       inkscape:connector-curvature="0" />
    <path
       style="fill:#000000;fill-opacity:1"
       id="path3368-2-9"
       d="m 479.2321,431.59959 c -2.89483,-0.22255 -5.75766,-0.18852 -8.62062,0.43589 -0.60585,0.19739 -1.21501,0.37776 -1.81756,0.5922 -1.95146,0.69447 -1.96426,0.68526 -3.79715,1.83624 -0.61903,0.38872 -2.42499,1.68774 -1.83434,1.22788 11.61776,-9.04495 11.94384,-9.4295 7.58698,-5.48813 -2.89621,2.76084 -5.12652,6.35587 -6.9277,10.39534 -1.00405,2.42906 -1.4637,5.09167 -1.66439,7.8213 -0.04,1.05453 -0.0398,2.11393 0.002,3.16854 0.005,0.0862 0.0462,0.33355 0.0133,0.25892 -2.70884,-6.12471 9.55525,-8.68594 -11.78571,7.14551 -0.14495,0.10749 0.25183,-0.29131 0.39536,-0.4021 4.03593,-3.11529 8.09294,-6.18227 12.1394,-9.27341 2.69492,-1.20436 5.48838,-1.31977 8.28071,-0.83987 3.54434,0.88083 6.85729,2.73005 9.70823,5.64741 3.04671,3.51479 3.08159,7.60828 2.38956,12.51695 -0.74341,4.76126 -2.85971,8.23811 -5.52965,11.376 -5.21067,5.22669 -1.83753,1.96152 -14.13047,11.22367 -0.82754,0.6235 -2.44739,1.47054 -3.35316,1.83122 -1.38563,0.55179 -2.39185,0.72674 -3.81599,1.05731 -3.45818,0.64148 -6.9545,0.76731 -10.4409,0.86073 -1.39393,0.0122 -2.78764,0.0494 -4.18145,0.0743 -0.0563,4.9e-4 -0.11254,7.6e-4 -0.16889,0.002 0,0 11.00413,-10.54718 11.00413,-10.54718 l 0,0 c 0.0474,0.005 0.0948,0.008 0.1422,0.0122 1.29839,0.10001 2.59943,0.13243 3.89987,0.12555 3.39262,-0.0214 6.80037,-0.14314 10.1453,-0.97068 1.8676,-0.55916 3.62204,-1.18339 5.36129,-2.27225 0.54258,-0.33969 2.11255,-1.508 1.59794,-1.09886 -11.84537,9.41769 -12.48563,10.05731 -8.22843,6.21728 2.68052,-2.78165 5.00744,-5.81666 5.90918,-10.32804 0.72027,-4.04283 0.96717,-7.88032 -1.71389,-10.75355 -2.75602,-2.63772 -5.88022,-4.36072 -9.27922,-4.87322 -2.74871,-0.18606 -5.57565,0.10674 -8.03431,1.90483 28.65436,-21.99887 -1.02983,0.68066 -1.44255,0.97141 -0.21887,0.15419 -1.13939,-1.3012 -0.93293,-1.6655 -0.005,-1.1481 -0.0233,-2.29553 0.0637,-3.44084 0.17219,-2.98838 0.67216,-5.88994 1.61187,-8.63069 1.77338,-4.26556 3.95525,-8.15052 6.88013,-11.16584 6.54196,-6.71923 14.18228,-12.78812 22.4195,-14.90842 3.00588,-0.47874 6.01722,-0.44422 9.04017,-0.53821 0,0 -10.89138,10.49493 -10.89138,10.49493 z"
       inkscape:connector-curvature="0" />
    <path
       style="fill:#000000;fill-opacity:1"
       id="path3376-0-5"
       d="m 564.25265,429.57215 c -3.43786,2.64479 0.97044,-0.75992 8.0789,-5.58665 0.36446,-0.24747 -0.69099,0.56946 -1.03697,0.85334 -1.44619,1.18666 -2.8592,2.40165 -4.2546,3.67543 -4.10105,3.95083 -8.01798,8.17059 -11.94579,12.36964 -4.8965,5.21425 -9.17945,11.12835 -12.81351,17.67639 -2.21779,4.62845 -4.60291,9.56659 -4.96325,15.03803 -0.0539,0.81794 0.0137,1.64104 0.0205,2.46155 0.69912,5.38052 3.78153,7.17812 7.70462,8.69353 4.69792,1.52876 9.43022,0.81938 14.03327,-0.7541 0.69205,-0.35293 1.40036,-0.66213 2.07616,-1.05879 0.65748,-0.38592 2.55728,-1.71405 1.91794,-1.28558 -2.427,1.62654 -4.76279,3.47214 -7.28094,4.87974 -0.66073,0.36936 1.14004,-1.10386 1.65083,-1.73257 1.32922,-1.63616 1.473,-2.20615 2.4198,-4.15933 1.08064,-3.08624 1.64984,-6.83614 -0.0295,-9.80039 -0.2716,-0.4794 -0.62808,-0.87912 -0.94212,-1.31868 -3.2068,-2.987 -7.26439,-1.91656 -10.82763,-0.59428 -0.74006,0.36861 -1.49765,0.6891 -2.22017,1.10579 -0.76376,0.44048 -2.96801,1.96859 -2.23251,1.46219 2.2262,-1.53278 4.38662,-3.22526 6.70492,-4.54152 0.83471,-0.47393 -1.4943,1.31036 -2.22219,1.99637 -2.00953,1.8939 -2.35157,2.34119 -4.24002,4.40098 -2.30557,2.60073 -4.41863,5.43761 -6.56636,8.22667 0,0 -9.88117,4.99834 -9.88117,4.99834 l 0,0 c 2.26294,-2.79863 4.44,-5.69677 6.76634,-8.41816 6.46286,-7.30552 13.93735,-13.43805 22.29466,-17.07542 4.12397,-1.27148 8.22297,-1.94056 11.70276,1.66933 0.35287,0.52298 0.75411,1.00292 1.05859,1.56894 1.80425,3.35387 1.44755,7.45721 0.35503,11.03293 -0.87271,2.08492 -1.0266,2.76401 -2.30076,4.55509 -4.09024,5.74962 -10.74824,9.14237 -16.60931,11.91017 -4.76921,1.41496 -9.62321,1.82614 -14.40993,0.16689 -4.48603,-1.88483 -7.5531,-3.935 -8.41019,-10.03589 -0.0162,-0.89797 -0.0997,-1.79784 -0.0487,-2.6939 0.32291,-5.67759 2.74438,-10.83129 5.00201,-15.66009 3.56755,-6.64835 7.81702,-12.63329 12.67195,-17.95962 3.83075,-4.14973 7.65522,-8.30858 11.60198,-12.29602 4.9337,-4.73494 10.26675,-8.77534 15.89456,-12.23701 0,0 -8.71919,8.46666 -8.71919,8.46666 z"
       inkscape:connector-curvature="0" />
    <path
       style="fill:#000000;fill-opacity:1"
       id="path3394-6-0"
       d="m 629.36664,419.67691 c 2.39968,0.42959 4.82287,0.33224 7.22788,0.28146 3.9147,-0.12355 7.83845,0.0579 11.75602,0.32086 3.02957,0.34195 6.06418,7.8e-4 9.09053,0.25257 1.13812,0.12331 2.27168,0.32455 3.40872,0.46898 0.32956,0.21378 0.28614,0.13769 0.50951,0.93097 0.29501,1.04769 -0.85751,1.60932 -1.34571,2.04991 -2.60521,2.37249 -5.02459,5.06774 -7.39147,7.84141 -3.87474,4.61553 -7.3557,9.76239 -10.65227,15.11454 -3.16174,5.20438 -5.33054,11.27623 -6.93972,17.62723 -1.12202,4.72405 -1.66239,9.66639 -2.04853,14.60796 -0.13945,2.0103 -0.19047,4.03714 -0.0869,6.06095 0,0 -8.32481,6.40516 -8.32481,6.40516 l 0,0 c -0.006,-2.14783 0.0548,-4.29318 0.25776,-6.41874 0.50774,-5.06817 1.11544,-10.14067 2.22612,-15.02145 1.57251,-6.47943 3.70564,-12.69762 6.84722,-18.05754 3.25231,-5.36479 6.68944,-10.5231 10.4826,-15.2142 2.22757,-2.72424 4.50583,-5.35786 6.93637,-7.75578 0.88181,-0.781 1.24503,-1.70111 1.96287,-0.17623 -1.04787,-0.25213 -2.10107,-0.47307 -3.15905,-0.60447 -2.9654,-0.20126 -5.9354,-0.1375 -8.90049,-0.44736 -3.92443,-0.27016 -7.85363,-0.40895 -11.77237,-0.18809 -2.53832,0.0837 -5.08624,0.19715 -7.62601,-0.13751 0,0 7.54172,-7.94061 7.54172,-7.94061 z"
       inkscape:connector-curvature="0" />
    <path
       style="fill:#000000;fill-opacity:1"
       d="m 77.463023,546.36987 c -2.73075,-0.0376 -5.4591,0.13115 -8.15896,0.53057 0.0348,-0.10766 0.0767,-0.21181 0.1146,-0.31796 -0.0485,-7.8e-4 -0.0968,7.9e-4 -0.14516,0.002 -0.0488,0.002 -0.0663,0.008 -0.0993,0.0113 -0.0426,0.004 -0.0826,0.007 -0.12415,0.0113 0.084,0.0472 0.1902,0.11163 0.20817,0.12229 0.0693,0.041 -0.20376,-0.072 -0.24636,-0.11854 -0.20005,0.0205 -0.39524,0.0342 -0.60352,-0.0358 -0.11705,-0.0393 -0.22244,-0.10373 -0.32659,-0.17121 -0.0415,0.003 -0.0826,0.003 -0.12414,0.005 -0.0541,0.0506 -0.0979,0.0871 -0.1738,0.16933 -0.32248,7e-5 -0.64582,0.002 -0.9683,0 -0.34888,-0.003 -0.69602,-0.003 -1.0447,0.0113 -0.0575,-7.7e-4 -0.65363,0.0177 -0.67037,-0.0527 -0.0155,-0.065 0.0841,-0.005 0.0229,-0.0376 -0.31943,0.1529 -0.65008,0.26653 -1.01032,0.22953 -0.0341,-0.004 -0.0759,0.008 -0.10313,-0.0132 -7.2e-4,-7.8e-4 0.009,-0.003 0.008,-0.004 -0.19757,0.0716 -0.4018,0.12248 -0.60543,0.17498 l 0,-0.002 c -0.0267,0.0216 -0.0554,0.0406 -0.0821,0.0621 -0.0337,0.034 -0.0633,0.0742 -0.10695,0.0922 -0.23371,0.0965 -0.47958,0.16728 -0.72766,0.21825 -0.0354,0.008 -0.071,-0.007 -0.10695,-0.015 -0.12483,0.19965 -0.26882,0.42471 -0.49274,0.44214 -0.12092,0.0685 -0.23972,0.14055 -0.36288,0.20508 -0.0187,0.01 -0.068,0.0326 -0.0611,0.017 -0.25082,0.24789 -0.50433,0.49456 -0.75439,0.74317 -0.20184,0.20066 -0.40028,0.31332 -0.59207,0.39134 -0.22545,0.51405 -0.42939,1.0363 -0.59206,1.57478 -0.081,0.0466 -0.15893,0.0982 -0.23873,0.14675 0.0786,0.15741 0.10484,0.34798 0.0344,0.58702 -0.0717,0.24294 -0.0263,0.11041 -0.13942,0.40075 -0.0294,0.0106 -0.17041,0.53585 -0.21963,0.58137 -0.002,0.11704 -0.006,0.23485 -0.01,0.35183 l 0.084,-0.032 c -0.0246,0.13355 -0.0485,0.26719 -0.0725,0.40075 0.041,0.18629 0.0721,0.328 0.0344,0.57196 -0.0482,0.31199 -0.122,0.35241 -0.17571,0.38569 -0.0211,0.14464 -0.0435,0.28892 -0.0611,0.43463 -0.14959,5.3812 1.62779,10.54447 3.77771,15.41475 2.00899,3.90497 4.3904,7.60154 6.84879,11.24921 -1.06047,1.49114 -2.12495,2.97913 -3.17229,4.47974 -3.33336,4.73491 -6.84391,9.41955 -9.30869,14.66969 -1.5447,4.05678 -2.1783,7.46694 -0.72385,11.67629 1.86226,4.06501 3.73923,5.52151 8.264,6.26151 0.68158,0.043 1.36258,0.142 2.04547,0.1298 7.32759,-0.13 13.562796,-4.92711 19.346976,-8.85036 0.5255,-0.49587 1.09659,-0.94862 1.57565,-1.48823 2.55216,-2.87481 3.23366,-6.6501 2.82469,-10.35176 -0.15636,-0.80639 -0.25651,-1.62593 -0.46983,-2.41955 -1.28914,-4.79606 -4.39123,-8.89367 -7.03214,-13.02341 -1.19967,-1.74216 -2.39816,-3.49058 -3.584816,-5.24738 2.222106,-3.10455 4.444896,-6.20772 6.629146,-9.33953 1.81792,-3.02165 4.04706,-6.10658 4.79187,-9.61611 0.11311,-0.53276 0.12865,-1.08124 0.19289,-1.62181 0.25833,-2.57966 -0.56071,-4.79934 -2.2059,-6.76007 -2.23343,-2.22001 -5.34412,-2.79899 -8.37477,-3.13262 -0.909546,-0.0577 -1.820866,-0.0928 -2.731116,-0.10537 z m -13.44548,0.34243 c -0.0244,-0.0359 0.3603,-0.0498 0.15279,-0.0997 -0.0512,0.0329 -0.0953,0.0789 -0.15279,0.0997 z m 4.99431,-0.1016 c 0.0127,-7.8e-4 0.0254,-0.003 0.0383,-0.004 -0.0125,-0.007 -0.0177,-0.0114 -0.0305,-0.0188 -0.005,5.2e-4 -0.0102,-5.8e-4 -0.0153,0 -0.016,0.002 -7.2e-4,0.0133 0.008,0.0225 z m -5.32472,0.0602 c -0.0694,0.0484 -0.13436,0.10338 -0.20053,0.15617 0.0434,-0.0213 0.0868,-0.0417 0.12605,-0.0696 0.0308,-0.0218 0.10548,-0.10817 0.0745,-0.0865 z m -1.18412,0.39887 c -0.0112,0.0157 -0.0266,0.0407 -0.0383,0.0583 0.002,-6.9e-4 0.004,-7.8e-4 0.006,-0.002 0.0229,-0.0333 0.045,-0.0739 0.0325,-0.0564 z m 6.09249,5.59733 c 0.88585,0.002 1.7736,0.0229 2.66044,0.0734 2.72422,0.22342 5.58649,0.68102 7.6624,2.59077 1.582196,1.76425 2.137306,3.4874 1.909866,5.86637 -0.61777,3.92885 -2.746806,7.37198 -4.925546,10.65843 -0.0113,0.0164 -0.0231,0.0325 -0.0344,0.0489 -1.45142,-2.33428 -2.82187,-4.7156 -4.03556,-7.17963 -1.62328,-3.85372 -3.00612,-7.8888 -3.23723,-12.05824 z m -15.49477,2.25022 c -0.0494,0.0366 -0.0999,0.0723 -0.14897,0.10913 l 0.17189,-0.0677 c -0.008,-0.0163 -0.0161,-0.0259 -0.0229,-0.0414 z m 19.62581,31.10043 c 0.3209,0.46896 0.64349,0.93773 0.96258,1.40732 2.51431,4.08868 5.52494,8.16361 6.629146,12.90865 0.17663,0.75902 0.24037,1.54083 0.36097,2.31043 0.22581,3.22118 -0.47603,6.34564 -2.582136,8.79204 -1.55953,0.35303 -3.11168,0.45024 -4.74603,0.44026 -4.10561,-0.52661 -5.86948,-1.54953 -7.54017,-5.28313 -1.28713,-3.86265 -0.5449,-7.17738 0.96449,-10.83905 1.67764,-3.41882 3.77168,-6.60653 5.95115,-9.73652 z"
       id="path3400-2-8-4"
       inkscape:connector-curvature="0" />
    <path
       style="fill:#000000;fill-opacity:1"
       id="path3408-9-8"
       d="m 169.248,556.19464 c -1.97624,-2.69825 -3.92047,-3.41852 -6.94679,-4.03815 -2.0936,-0.13587 -4.14097,0.33474 -6.08479,1.17385 -0.76956,0.3322 -2.9574,1.61441 -2.24636,1.15295 10.67252,-6.92636 8.58942,-5.44912 4.80137,-2.47804 -3.82732,3.63547 -7.64477,7.89979 -9.38398,13.23088 -0.27536,0.84404 -0.3978,1.73821 -0.5967,2.60731 -0.20829,2.40703 0.11129,5.38441 2.5829,6.28671 1.30354,0.47587 2.2079,0.1828 3.5401,0.0143 0.70126,-0.22101 1.41191,-0.40935 2.10378,-0.66303 0.73294,-0.26872 1.46626,-0.54633 2.16689,-0.90278 0.72278,-0.36772 2.78486,-1.69624 2.09274,-1.26428 -13.01668,8.12405 -7.6869,5.0841 -3.90371,1.58714 2.33813,-2.33179 4.21734,-5.07778 5.22765,-8.35695 0.23221,-0.83186 0.0501,-2.10899 -0.69892,-0.78188 17.23477,-10.601 10.13555,-8.90809 8.95581,-4.15073 -0.53769,2.16831 -0.76324,4.39688 -1.01452,6.61902 -0.68781,7.59156 -1.0914,15.2031 -1.33942,22.82501 -0.10097,7.41479 0.19991,14.81967 0.92914,22.19073 0,0 -9.99718,5.65122 -9.99718,5.65122 l 0,0 c -0.35571,-7.49649 -0.72873,-14.99318 -0.63542,-22.50421 0.19346,-7.56884 0.54406,-15.12721 0.92861,-22.68674 0.16595,-2.65681 0.35965,-5.31385 0.79126,-7.93886 0.0579,-0.35235 -0.0578,-0.84753 0.21459,-1.04813 3.4014,-2.50439 7.04564,-4.59415 10.56846,-6.89122 1.51676,0.27558 2.18198,1.68397 1.90991,3.29098 -1.06459,3.52174 -2.86831,6.55835 -5.34339,9.13391 -4.79187,4.778 -9.05336,6.85704 -15.41705,10.76174 -2.09383,1.28475 -4.38134,2.07733 -6.74738,2.49222 -1.68291,-6.9e-4 -2.49191,0.22089 -4.03909,-0.61789 -2.7207,-1.47499 -3.2536,-4.75734 -3.02876,-7.73691 0.19652,-0.9496 0.31157,-1.92359 0.58957,-2.84876 1.64841,-5.48564 5.43924,-9.93684 9.19716,-13.82185 5.6723,-4.81126 3.11988,-2.83211 14.38649,-9.6169 2.69643,-1.6238 5.87714,-2.16733 8.90559,-1.83705 3.27936,0.80234 5.419,1.89848 7.75105,4.56727 0,0 -10.21961,6.5991 -10.21961,6.5991 z"
       inkscape:connector-curvature="0" />
    <path
       style="opacity:0.98999999;fill:#000000;fill-opacity:1"
       id="path3450-2-7"
       d="m 240.11545,559.2297 c -2.12805,2.06224 -5.25242,4.73139 4.8224,-4.36814 0.24151,-0.21814 -0.47535,0.45692 -0.71155,0.68917 -0.4276,0.42048 -1.0725,1.07405 -1.49244,1.49776 -1.74253,1.78386 -3.18592,4.14367 -4.53882,6.60768 -1.70529,3.11626 -2.98932,6.6771 -4.09352,10.3891 -1.21651,4.2876 -1.53963,8.89762 -1.57737,13.54089 -0.0188,5.05643 0.82357,9.0553 2.39651,13.38263 1.72318,4.20759 4.35067,6.88273 7.13036,9.06501 3.31846,2.29066 6.3533,2.63518 9.90723,2.11814 2.37651,-0.53027 4.6252,-1.76324 6.77323,-3.43217 0.58874,-0.45746 2.30697,-1.97621 1.73836,-1.45881 -1.42223,1.29413 -2.86658,2.52648 -4.29987,3.7897 3.33496,-3.45194 6.08907,-7.98949 8.52272,-12.93664 1.95674,-4.14992 3.32491,-8.85117 4.4582,-13.67997 0.88305,-3.59716 0.89664,-7.32211 0.41568,-11.0495 -0.51571,-3.5218 -1.66679,-6.526 -3.19721,-9.15937 -1.95316,-3.33362 -4.53364,-5.26983 -7.12909,-7.02904 -2.83962,-1.85837 -5.82133,-3.11541 -8.88262,-3.52673 -2.66089,-0.28814 -5.30432,0.34323 -7.8979,1.22456 -0.36861,0.20025 -0.74124,0.38284 -1.10584,0.60075 -1.00104,0.59832 -1.19604,0.77219 -2.13529,1.59457 -0.35102,0.30734 -1.39291,1.26083 -1.04384,0.94796 5.4492,-4.88399 6.75499,-6.48069 4.17098,-3.49843 -2.05818,2.46216 -3.56504,5.73478 -4.89645,9.1831 -0.83692,2.35435 -0.44602,1.20888 -1.17793,3.43195 0,0 -6.61774,4.70816 -6.61774,4.70816 l 0,0 c 0.78217,-2.27692 0.3773,-1.10371 1.21515,-3.51916 1.29982,-3.53105 2.72149,-6.95698 4.75367,-9.55701 3.10401,-3.9621 0.81606,-1.16407 8.1883,-7.9514 1.38626,-1.27628 2.86307,-2.29549 4.42864,-2.8713 2.62055,-0.78076 5.29115,-1.26127 7.95868,-0.86513 3.09378,0.61751 6.11497,1.89251 8.98889,3.82666 2.68476,1.85003 5.33018,3.92032 7.35786,7.3659 1.61343,2.79096 2.88278,5.92298 3.43938,9.65142 0.5209,3.91196 0.57251,7.89915 -0.33201,11.69609 -1.13946,4.95384 -2.54909,9.76756 -4.49002,14.07587 -2.41853,5.04756 -5.14908,9.70195 -8.46076,13.32262 -5.28002,4.91707 -10.24784,10.61141 -16.45006,11.78591 -3.5919,0.34307 -6.83077,-0.17119 -10.139,-2.6032 -2.89219,-2.32051 -5.59653,-5.19421 -7.38964,-9.58809 -1.62191,-4.49049 -2.5506,-8.66677 -2.57475,-13.90912 6.5e-4,-4.75969 0.26101,-9.49823 1.42014,-13.95113 1.05061,-3.77923 2.27351,-7.40619 3.93357,-10.61828 1.30892,-2.54081 2.72095,-4.94903 4.398,-6.89706 3.30026,-3.31593 6.64217,-6.53206 10.08739,-9.46276 0,0 -5.87162,7.43684 -5.87162,7.43684 z"
       inkscape:connector-curvature="0" />
    <path
       style="fill:#000000;fill-opacity:1"
       d="m 390.94564,35.319103 c -0.0403,0.011 -0.0393,0.018 -0.0893,0.031 -0.002,7e-4 0.008,0 0.007,0 -0.22883,0.1241 -0.49829,0.1443 -0.75081,0.2184 -0.0615,0.054 -0.1229,0.1095 -0.18771,0.1585 -0.26483,0.2005 -0.6041,0.2898 -0.89046,0.4055 -0.13469,0 -0.2651,-6e-4 -0.396,-0.01 -0.0278,0.02 -0.0623,0.067 -0.087,0.078 -0.19741,0.1364 -0.36832,0.3365 -0.59058,0.4081 -0.0212,0.01 -0.0662,0.011 -0.0939,0.018 -0.029,0.023 -0.0581,0.047 -0.087,0.07 -0.0312,0.065 -0.051,0.1374 -0.0915,0.195 -0.35008,0.4977 -0.94817,0.6104 -1.37116,0.9956 -0.0852,0.078 -0.16072,0.1042 -0.24264,0.1611 -0.0369,0.071 -0.0795,0.1376 -0.11673,0.208 0.11404,10e-4 0.22718,0.012 0.33879,0.044 0.16324,0.047 -0.11462,0.3387 -0.32505,0.4263 l -0.002,0 c -0.008,0 -0.0152,0 -0.0229,0.01 l -0.21975,0.3847 c -0.21864,0.2366 -0.43792,0.4723 -0.64782,0.7174 -0.57897,1.0153 -1.16738,2.0218 -1.74655,3.0179 -3.87356,6.39 -8.37686,12.2186 -12.97904,17.9333 -4.83,6.0466 -9.87999,11.8473 -15.01859,17.5538 -2.6497,3.1735 -5.72879,5.9044 -8.2315,9.2331 -0.85562,1.0675 -2.36935,1.8904 -2.13112,3.5196 0.58513,1.8859 2.35767,1.6663 3.80901,1.6194 3.9814,-0.4939 7.94127,-1.1878 11.88486,-1.9755 6.77408,-1.4429 13.48534,-3.2292 20.15526,-5.1936 4.91667,-1.386 9.81294,-2.8664 14.81945,-3.7744 1.82359,-0.3273 3.66489,-0.4474 5.5075,-0.5017 0.66949,0 1.27795,0.1198 1.92283,-0.1247 l 10.00323,-9.1629 c -0.22516,0.148 -0.47903,0.2123 -0.86527,0.1352 -1.9828,0.01 -3.95744,0.2638 -5.91953,0.5693 -5.17353,0.9591 -10.21301,2.5536 -15.29329,3.9979 -6.579,2.005 -13.20645,3.8026 -19.9172,5.1494 -3.78423,0.7268 -7.58333,1.3235 -11.40415,1.7286 -0.13674,0.024 -1.18756,0.1095 -1.83813,0.1689 0.61215,-0.645 1.48582,-1.8824 1.70536,-2.1029 2.50128,-3.0652 5.20978,-5.9038 7.76453,-8.9107 5.01506,-5.7373 9.97584,-11.5313 14.76679,-17.5122 3.94523,-4.9279 7.7951,-9.9641 11.31031,-15.2975 l 0,-0.9592 c -0.0155,-0.1299 -0.002,-0.2551 0.0228,-0.3769 -0.005,-0.072 -0.0228,-0.1255 -0.0228,-0.2028 l 0,-1.1281 c -0.17235,-0.1667 -0.30764,-0.3041 -0.42348,-0.5251 -0.11556,-0.066 -0.23136,-0.1433 -0.31818,-0.2001 -0.33509,-0.2416 -0.47813,-0.3698 -0.75082,-0.6395 -0.008,-0.01 -0.0266,-0.021 -0.0389,-0.031 -0.058,-0.04 -0.11826,-0.087 -0.16711,-0.1039 -0.0537,-0.028 -0.1097,-0.053 -0.16252,-0.083 -0.19171,-0.1088 -0.39485,-0.1963 -0.57226,-0.3328 -0.002,-10e-4 -0.002,0 -0.005,0 z m -0.67527,0.1118 c -0.0483,0.036 -0.0939,0.077 -0.13964,0.117 0.056,-0.033 0.11463,-0.061 0.16482,-0.1039 0.007,-0.01 -0.0175,-0.019 -0.0252,-0.013 z m 23.50647,35.9056 -0.69817,0.6421 c 0.22625,-0.1501 0.42529,-0.3845 0.69817,-0.6421 z"
       id="path3362"
       inkscape:connector-curvature="0" />
    <path
       style="fill:#000000;fill-opacity:1"
       d="m 392.57775,36.475903 c -0.14861,0.1622 -0.32681,0.2962 -0.57227,0.3587 -0.11638,0.034 -0.23386,0.097 -0.35023,0.13 -0.0825,0.087 -0.16231,0.1877 -0.43492,0.4289 -0.31522,0.213 -1.14177,0.8048 -1.46958,0.7876 -0.29317,0.117 -0.32724,0.1379 -0.73251,0.2314 -0.0371,0.01 0.0731,-0.028 0.10302,-0.055 0.007,-0.01 -0.0145,-0.023 -0.0229,-0.018 -0.0957,0.051 -0.18111,0.126 -0.27698,0.1767 -0.0168,0.01 -0.0366,2e-4 -0.055,0 -0.0918,0.086 -0.18139,0.1738 -0.27469,0.2574 -0.0363,0.033 -0.12481,0.1422 -0.11451,0.091 0.0236,-0.1169 0.23266,-0.3966 0.15794,-0.312 -0.99736,1.1297 0.004,0.4017 -1.0255,0.9878 0.0599,-0.044 0.12493,-0.08 0.18084,-0.13 0.0241,-0.022 -0.0601,0.023 -0.0847,0.044 -0.36849,0.3155 -0.52864,0.4655 -0.91791,0.6187 -0.34491,0.6285 -0.77966,0.8756 -1.15598,0.811 -0.0694,0.091 -0.11052,0.1512 -0.21746,0.2755 -0.008,0.01 -0.0363,0.012 -0.0618,0.021 l -0.0663,0.1066 c -0.002,0 -0.005,0.016 -0.007,0.018 -0.0482,0.1214 -0.0897,0.2461 -0.1442,0.3639 -0.0117,0.025 -0.0427,0.034 -0.0526,0.06 -0.11602,0.3016 -0.22116,0.6745 -0.36395,0.98 -0.004,0.015 4.7e-4,0.032 -0.005,0.047 -0.30055,0.8688 -0.59106,1.1422 -1.2773,1.5544 -0.30986,0.1861 -0.51116,0.1898 -0.64551,0.086 -0.14004,0.2234 -0.0635,0.1423 -0.60204,0.7539 -0.17615,0.2 -0.35275,0.3457 -0.52419,0.4549 0.19199,2.3647 0.24087,4.7515 0.32276,7.1145 0.20314,7.5074 0.22379,15.019 0.26095,22.5291 0.34555,8.1434 0.4013,16.3031 0.81033,24.4422 0.32184,5.256697 0.57212,10.514897 0.66154,15.783597 -0.0872,2.356 0.44952,4.6503 0.70733,6.9716 0.14029,1.6338 0.55377,3.2175 0.80575,4.8349 l 12.00389,-7.2862 c -0.30338,-1.5722 -0.64789,-3.1432 -0.77829,-4.7491 -0.29245,-2.2405 -0.83283,-4.4437 -0.84923,-6.722 -0.30442,-5.1936 -0.7152,-10.378197 -1.09419,-15.565297 -0.46752,-8.083 -0.69931,-16.185 -0.91334,-24.281 0.0296,-7.5807 0.0694,-15.1616 0.0389,-22.7422 -0.024,-2.5186 -0.049,-5.0453 -0.1671,-7.5643 -0.0523,-0.172 -0.1117,-0.3659 -0.1282,-0.4341 -0.005,-0.017 0.0223,0.023 0.0343,0.034 -0.0117,-0.041 -0.0209,-0.082 -0.032,-0.1222 -0.0634,-0.1546 -0.14231,-0.3019 -0.20373,-0.4575 -0.004,-0.01 0.015,0 0.0229,0 -0.0531,-0.1119 -0.12552,-0.2136 -0.15795,-0.3353 -0.0183,-0.069 0.15353,0.2279 0.1145,0.1716 -0.16607,-0.2392 -0.30427,-0.4963 -0.44637,-0.7513 z m -0.56998,0.1429 c -0.12301,0.1255 -0.13354,0.1249 -0.19228,0.1872 0.0197,-0.01 0.0526,-0.014 0.0663,-0.023 0.0544,-0.038 0.17334,-0.2122 0.12589,-0.1638 z m -9.39892,7.6631 c -0.0451,0.019 -0.0898,0.039 -0.13505,0.057 -0.0806,0.032 0.0179,0.01 0.14421,-0.044 -0.004,0 -0.006,-0.01 -0.009,-0.013 z"
       id="path3364"
       inkscape:connector-curvature="0" />
  </g>
</svg>
