<?xml version="1.0" encoding="UTF-8" standalone="no"?>
<!-- Created with Inkscape (http://www.inkscape.org/) -->

<svg
   xmlns:dc="http://purl.org/dc/elements/1.1/"
   xmlns:cc="http://creativecommons.org/ns#"
   xmlns:rdf="http://www.w3.org/1999/02/22-rdf-syntax-ns#"
   xmlns:svg="http://www.w3.org/2000/svg"
   xmlns="http://www.w3.org/2000/svg"
   xmlns:sodipodi="http://sodipodi.sourceforge.net/DTD/sodipodi-0.dtd"
   xmlns:inkscape="http://www.inkscape.org/namespaces/inkscape"
   width="210mm"
   height="297mm"
   viewBox="0 0 210 297"
   version="1.1"
   id="svg112"
   inkscape:version="0.92.0 r15299"
   sodipodi:docname="ObjetosBonus.svg">
  <defs
     id="defs106">
    <pattern
       y="0"
       x="0"
       height="6"
       width="6"
       patternUnits="userSpaceOnUse"
       id="EMFhbasepattern" />
    <filter
       inkscape:label="Combined Lighting"
       inkscape:menu="Bevels"
       inkscape:menu-tooltip="Basic specular bevel to use for building textures"
       style="color-interpolation-filters:sRGB;"
       id="filter5110">
      <feGaussianBlur
         stdDeviation="6"
         in="SourceGraphic"
         result="result0"
         id="feGaussianBlur5092" />
      <feDiffuseLighting
         lighting-color="rgb(255,255,255)"
         diffuseConstant="1"
         surfaceScale="4"
         result="result5"
         id="feDiffuseLighting5096">
        <feDistantLight
           elevation="45"
           azimuth="235"
           id="feDistantLight5094" />
      </feDiffuseLighting>
      <feComposite
         k1="1.4"
         in2="SourceGraphic"
         in="result5"
         result="fbSourceGraphic"
         operator="arithmetic"
         id="feComposite5098" />
      <feGaussianBlur
         result="result0"
         in="fbSourceGraphic"
         stdDeviation="6"
         id="feGaussianBlur5100" />
      <feSpecularLighting
         specularExponent="25"
         specularConstant="1"
         surfaceScale="4"
         lighting-color="rgb(255,255,255)"
         result="result1"
         in="result0"
         id="feSpecularLighting5104">
        <feDistantLight
           azimuth="235"
           elevation="45"
           id="feDistantLight5102" />
      </feSpecularLighting>
      <feComposite
         k3="1"
         k2="1"
         operator="arithmetic"
         in="fbSourceGraphic"
         in2="result1"
         result="result4"
         id="feComposite5106" />
      <feComposite
         operator="in"
         result="result2"
         in2="SourceGraphic"
         in="result4"
         id="feComposite5108" />
    </filter>
    <filter
       inkscape:label="Combined Lighting"
       inkscape:menu="Bevels"
       inkscape:menu-tooltip="Basic specular bevel to use for building textures"
       style="color-interpolation-filters:sRGB;"
       id="filter5130">
      <feGaussianBlur
         stdDeviation="6"
         in="SourceGraphic"
         result="result0"
         id="feGaussianBlur5112" />
      <feDiffuseLighting
         lighting-color="rgb(255,255,255)"
         diffuseConstant="1"
         surfaceScale="4"
         result="result5"
         id="feDiffuseLighting5116">
        <feDistantLight
           elevation="45"
           azimuth="235"
           id="feDistantLight5114" />
      </feDiffuseLighting>
      <feComposite
         k1="1.4"
         in2="SourceGraphic"
         in="result5"
         result="fbSourceGraphic"
         operator="arithmetic"
         id="feComposite5118" />
      <feGaussianBlur
         result="result0"
         in="fbSourceGraphic"
         stdDeviation="6"
         id="feGaussianBlur5120" />
      <feSpecularLighting
         specularExponent="25"
         specularConstant="1"
         surfaceScale="4"
         lighting-color="rgb(255,255,255)"
         result="result1"
         in="result0"
         id="feSpecularLighting5124">
        <feDistantLight
           azimuth="235"
           elevation="45"
           id="feDistantLight5122" />
      </feSpecularLighting>
      <feComposite
         k3="1"
         k2="1"
         operator="arithmetic"
         in="fbSourceGraphic"
         in2="result1"
         result="result4"
         id="feComposite5126" />
      <feComposite
         operator="in"
         result="result2"
         in2="SourceGraphic"
         in="result4"
         id="feComposite5128" />
    </filter>
    <filter
       inkscape:label="Combined Lighting"
       inkscape:menu="Bevels"
       inkscape:menu-tooltip="Basic specular bevel to use for building textures"
       style="color-interpolation-filters:sRGB;"
       id="filter5174">
      <feGaussianBlur
         stdDeviation="6"
         in="SourceGraphic"
         result="result0"
         id="feGaussianBlur5156" />
      <feDiffuseLighting
         lighting-color="rgb(255,255,255)"
         diffuseConstant="1"
         surfaceScale="4"
         result="result5"
         id="feDiffuseLighting5160">
        <feDistantLight
           elevation="45"
           azimuth="235"
           id="feDistantLight5158" />
      </feDiffuseLighting>
      <feComposite
         k1="1.4"
         in2="SourceGraphic"
         in="result5"
         result="fbSourceGraphic"
         operator="arithmetic"
         id="feComposite5162" />
      <feGaussianBlur
         result="result0"
         in="fbSourceGraphic"
         stdDeviation="6"
         id="feGaussianBlur5164" />
      <feSpecularLighting
         specularExponent="25"
         specularConstant="1"
         surfaceScale="4"
         lighting-color="rgb(255,255,255)"
         result="result1"
         in="result0"
         id="feSpecularLighting5168">
        <feDistantLight
           azimuth="235"
           elevation="45"
           id="feDistantLight5166" />
      </feSpecularLighting>
      <feComposite
         k3="1"
         k2="1"
         operator="arithmetic"
         in="fbSourceGraphic"
         in2="result1"
         result="result4"
         id="feComposite5170" />
      <feComposite
         operator="in"
         result="result2"
         in2="SourceGraphic"
         in="result4"
         id="feComposite5172" />
    </filter>
    <filter
       inkscape:label="Combined Lighting"
       inkscape:menu="Bevels"
       inkscape:menu-tooltip="Basic specular bevel to use for building textures"
       style="color-interpolation-filters:sRGB;"
       id="filter5194">
      <feGaussianBlur
         stdDeviation="6"
         in="SourceGraphic"
         result="result0"
         id="feGaussianBlur5176" />
      <feDiffuseLighting
         lighting-color="rgb(255,255,255)"
         diffuseConstant="1"
         surfaceScale="4"
         result="result5"
         id="feDiffuseLighting5180">
        <feDistantLight
           elevation="45"
           azimuth="235"
           id="feDistantLight5178" />
      </feDiffuseLighting>
      <feComposite
         k1="1.4"
         in2="SourceGraphic"
         in="result5"
         result="fbSourceGraphic"
         operator="arithmetic"
         id="feComposite5182" />
      <feGaussianBlur
         result="result0"
         in="fbSourceGraphic"
         stdDeviation="6"
         id="feGaussianBlur5184" />
      <feSpecularLighting
         specularExponent="25"
         specularConstant="1"
         surfaceScale="4"
         lighting-color="rgb(255,255,255)"
         result="result1"
         in="result0"
         id="feSpecularLighting5188">
        <feDistantLight
           azimuth="235"
           elevation="45"
           id="feDistantLight5186" />
      </feSpecularLighting>
      <feComposite
         k3="1"
         k2="1"
         operator="arithmetic"
         in="fbSourceGraphic"
         in2="result1"
         result="result4"
         id="feComposite5190" />
      <feComposite
         operator="in"
         result="result2"
         in2="SourceGraphic"
         in="result4"
         id="feComposite5192" />
    </filter>
    <filter
       inkscape:label="Combined Lighting"
       inkscape:menu="Bevels"
       inkscape:menu-tooltip="Basic specular bevel to use for building textures"
       style="color-interpolation-filters:sRGB;"
       id="filter5214">
      <feGaussianBlur
         stdDeviation="6"
         in="SourceGraphic"
         result="result0"
         id="feGaussianBlur5196" />
      <feDiffuseLighting
         lighting-color="rgb(255,255,255)"
         diffuseConstant="1"
         surfaceScale="4"
         result="result5"
         id="feDiffuseLighting5200">
        <feDistantLight
           elevation="45"
           azimuth="235"
           id="feDistantLight5198" />
      </feDiffuseLighting>
      <feComposite
         k1="1.4"
         in2="SourceGraphic"
         in="result5"
         result="fbSourceGraphic"
         operator="arithmetic"
         id="feComposite5202" />
      <feGaussianBlur
         result="result0"
         in="fbSourceGraphic"
         stdDeviation="6"
         id="feGaussianBlur5204" />
      <feSpecularLighting
         specularExponent="25"
         specularConstant="1"
         surfaceScale="4"
         lighting-color="rgb(255,255,255)"
         result="result1"
         in="result0"
         id="feSpecularLighting5208">
        <feDistantLight
           azimuth="235"
           elevation="45"
           id="feDistantLight5206" />
      </feSpecularLighting>
      <feComposite
         k3="1"
         k2="1"
         operator="arithmetic"
         in="fbSourceGraphic"
         in2="result1"
         result="result4"
         id="feComposite5210" />
      <feComposite
         operator="in"
         result="result2"
         in2="SourceGraphic"
         in="result4"
         id="feComposite5212" />
    </filter>
    <filter
       inkscape:label="Combined Lighting"
       inkscape:menu="Bevels"
       inkscape:menu-tooltip="Basic specular bevel to use for building textures"
       style="color-interpolation-filters:sRGB;"
       id="filter5234">
      <feGaussianBlur
         stdDeviation="6"
         in="SourceGraphic"
         result="result0"
         id="feGaussianBlur5216" />
      <feDiffuseLighting
         lighting-color="rgb(255,255,255)"
         diffuseConstant="1"
         surfaceScale="4"
         result="result5"
         id="feDiffuseLighting5220">
        <feDistantLight
           elevation="45"
           azimuth="235"
           id="feDistantLight5218" />
      </feDiffuseLighting>
      <feComposite
         k1="1.4"
         in2="SourceGraphic"
         in="result5"
         result="fbSourceGraphic"
         operator="arithmetic"
         id="feComposite5222" />
      <feGaussianBlur
         result="result0"
         in="fbSourceGraphic"
         stdDeviation="6"
         id="feGaussianBlur5224" />
      <feSpecularLighting
         specularExponent="25"
         specularConstant="1"
         surfaceScale="4"
         lighting-color="rgb(255,255,255)"
         result="result1"
         in="result0"
         id="feSpecularLighting5228">
        <feDistantLight
           azimuth="235"
           elevation="45"
           id="feDistantLight5226" />
      </feSpecularLighting>
      <feComposite
         k3="1"
         k2="1"
         operator="arithmetic"
         in="fbSourceGraphic"
         in2="result1"
         result="result4"
         id="feComposite5230" />
      <feComposite
         operator="in"
         result="result2"
         in2="SourceGraphic"
         in="result4"
         id="feComposite5232" />
    </filter>
    <filter
       inkscape:label="Combined Lighting"
       inkscape:menu="Bevels"
       inkscape:menu-tooltip="Basic specular bevel to use for building textures"
       style="color-interpolation-filters:sRGB;"
       id="filter5281">
      <feGaussianBlur
         stdDeviation="6"
         in="SourceGraphic"
         result="result0"
         id="feGaussianBlur5263" />
      <feDiffuseLighting
         lighting-color="rgb(255,255,255)"
         diffuseConstant="1"
         surfaceScale="4"
         result="result5"
         id="feDiffuseLighting5267">
        <feDistantLight
           elevation="45"
           azimuth="235"
           id="feDistantLight5265" />
      </feDiffuseLighting>
      <feComposite
         k1="1.4"
         in2="SourceGraphic"
         in="result5"
         result="fbSourceGraphic"
         operator="arithmetic"
         id="feComposite5269" />
      <feGaussianBlur
         result="result0"
         in="fbSourceGraphic"
         stdDeviation="6"
         id="feGaussianBlur5271" />
      <feSpecularLighting
         specularExponent="25"
         specularConstant="1"
         surfaceScale="4"
         lighting-color="rgb(255,255,255)"
         result="result1"
         in="result0"
         id="feSpecularLighting5275">
        <feDistantLight
           azimuth="235"
           elevation="45"
           id="feDistantLight5273" />
      </feSpecularLighting>
      <feComposite
         k3="1"
         k2="1"
         operator="arithmetic"
         in="fbSourceGraphic"
         in2="result1"
         result="result4"
         id="feComposite5277" />
      <feComposite
         operator="in"
         result="result2"
         in2="SourceGraphic"
         in="result4"
         id="feComposite5279" />
    </filter>
    <filter
       inkscape:label="Combined Lighting"
       inkscape:menu="Bevels"
       inkscape:menu-tooltip="Basic specular bevel to use for building textures"
       style="color-interpolation-filters:sRGB;"
       id="filter5301">
      <feGaussianBlur
         stdDeviation="6"
         in="SourceGraphic"
         result="result0"
         id="feGaussianBlur5283" />
      <feDiffuseLighting
         lighting-color="rgb(255,255,255)"
         diffuseConstant="1"
         surfaceScale="4"
         result="result5"
         id="feDiffuseLighting5287">
        <feDistantLight
           elevation="45"
           azimuth="235"
           id="feDistantLight5285" />
      </feDiffuseLighting>
      <feComposite
         k1="1.4"
         in2="SourceGraphic"
         in="result5"
         result="fbSourceGraphic"
         operator="arithmetic"
         id="feComposite5289" />
      <feGaussianBlur
         result="result0"
         in="fbSourceGraphic"
         stdDeviation="6"
         id="feGaussianBlur5291" />
      <feSpecularLighting
         specularExponent="25"
         specularConstant="1"
         surfaceScale="4"
         lighting-color="rgb(255,255,255)"
         result="result1"
         in="result0"
         id="feSpecularLighting5295">
        <feDistantLight
           azimuth="235"
           elevation="45"
           id="feDistantLight5293" />
      </feSpecularLighting>
      <feComposite
         k3="1"
         k2="1"
         operator="arithmetic"
         in="fbSourceGraphic"
         in2="result1"
         result="result4"
         id="feComposite5297" />
      <feComposite
         operator="in"
         result="result2"
         in2="SourceGraphic"
         in="result4"
         id="feComposite5299" />
    </filter>
    <pattern
       y="0"
       x="0"
       height="6"
       width="6"
       patternUnits="userSpaceOnUse"
       id="EMFhbasepattern-9" />
    <filter
       inkscape:label="Combined Lighting"
       inkscape:menu="Bevels"
       inkscape:menu-tooltip="Basic specular bevel to use for building textures"
       style="color-interpolation-filters:sRGB;"
       id="filter5373">
      <feGaussianBlur
         stdDeviation="6"
         in="SourceGraphic"
         result="result0"
         id="feGaussianBlur5355" />
      <feDiffuseLighting
         lighting-color="rgb(255,255,255)"
         diffuseConstant="1"
         surfaceScale="4"
         result="result5"
         id="feDiffuseLighting5359">
        <feDistantLight
           elevation="45"
           azimuth="235"
           id="feDistantLight5357" />
      </feDiffuseLighting>
      <feComposite
         k1="1.4"
         in2="SourceGraphic"
         in="result5"
         result="fbSourceGraphic"
         operator="arithmetic"
         id="feComposite5361" />
      <feGaussianBlur
         result="result0"
         in="fbSourceGraphic"
         stdDeviation="6"
         id="feGaussianBlur5363" />
      <feSpecularLighting
         specularExponent="25"
         specularConstant="1"
         surfaceScale="4"
         lighting-color="rgb(255,255,255)"
         result="result1"
         in="result0"
         id="feSpecularLighting5367">
        <feDistantLight
           azimuth="235"
           elevation="45"
           id="feDistantLight5365" />
      </feSpecularLighting>
      <feComposite
         k3="1"
         k2="1"
         operator="arithmetic"
         in="fbSourceGraphic"
         in2="result1"
         result="result4"
         id="feComposite5369" />
      <feComposite
         operator="in"
         result="result2"
         in2="SourceGraphic"
         in="result4"
         id="feComposite5371" />
    </filter>
    <filter
       inkscape:label="Combined Lighting"
       inkscape:menu="Bevels"
       inkscape:menu-tooltip="Basic specular bevel to use for building textures"
       style="color-interpolation-filters:sRGB;"
       id="filter5393">
      <feGaussianBlur
         stdDeviation="6"
         in="SourceGraphic"
         result="result0"
         id="feGaussianBlur5375" />
      <feDiffuseLighting
         lighting-color="rgb(255,255,255)"
         diffuseConstant="1"
         surfaceScale="4"
         result="result5"
         id="feDiffuseLighting5379">
        <feDistantLight
           elevation="45"
           azimuth="235"
           id="feDistantLight5377" />
      </feDiffuseLighting>
      <feComposite
         k1="1.4"
         in2="SourceGraphic"
         in="result5"
         result="fbSourceGraphic"
         operator="arithmetic"
         id="feComposite5381" />
      <feGaussianBlur
         result="result0"
         in="fbSourceGraphic"
         stdDeviation="6"
         id="feGaussianBlur5383" />
      <feSpecularLighting
         specularExponent="25"
         specularConstant="1"
         surfaceScale="4"
         lighting-color="rgb(255,255,255)"
         result="result1"
         in="result0"
         id="feSpecularLighting5387">
        <feDistantLight
           azimuth="235"
           elevation="45"
           id="feDistantLight5385" />
      </feSpecularLighting>
      <feComposite
         k3="1"
         k2="1"
         operator="arithmetic"
         in="fbSourceGraphic"
         in2="result1"
         result="result4"
         id="feComposite5389" />
      <feComposite
         operator="in"
         result="result2"
         in2="SourceGraphic"
         in="result4"
         id="feComposite5391" />
    </filter>
    <filter
       inkscape:label="Combined Lighting"
       inkscape:menu="Bevels"
       inkscape:menu-tooltip="Basic specular bevel to use for building textures"
       style="color-interpolation-filters:sRGB;"
       id="filter5413">
      <feGaussianBlur
         stdDeviation="6"
         in="SourceGraphic"
         result="result0"
         id="feGaussianBlur5395" />
      <feDiffuseLighting
         lighting-color="rgb(255,255,255)"
         diffuseConstant="1"
         surfaceScale="4"
         result="result5"
         id="feDiffuseLighting5399">
        <feDistantLight
           elevation="45"
           azimuth="235"
           id="feDistantLight5397" />
      </feDiffuseLighting>
      <feComposite
         k1="1.4"
         in2="SourceGraphic"
         in="result5"
         result="fbSourceGraphic"
         operator="arithmetic"
         id="feComposite5401" />
      <feGaussianBlur
         result="result0"
         in="fbSourceGraphic"
         stdDeviation="6"
         id="feGaussianBlur5403" />
      <feSpecularLighting
         specularExponent="25"
         specularConstant="1"
         surfaceScale="4"
         lighting-color="rgb(255,255,255)"
         result="result1"
         in="result0"
         id="feSpecularLighting5407">
        <feDistantLight
           azimuth="235"
           elevation="45"
           id="feDistantLight5405" />
      </feSpecularLighting>
      <feComposite
         k3="1"
         k2="1"
         operator="arithmetic"
         in="fbSourceGraphic"
         in2="result1"
         result="result4"
         id="feComposite5409" />
      <feComposite
         operator="in"
         result="result2"
         in2="SourceGraphic"
         in="result4"
         id="feComposite5411" />
    </filter>
    <filter
       inkscape:label="Combined Lighting"
       inkscape:menu="Bevels"
       inkscape:menu-tooltip="Basic specular bevel to use for building textures"
       style="color-interpolation-filters:sRGB;"
       id="filter5433">
      <feGaussianBlur
         stdDeviation="6"
         in="SourceGraphic"
         result="result0"
         id="feGaussianBlur5415" />
      <feDiffuseLighting
         lighting-color="rgb(255,255,255)"
         diffuseConstant="1"
         surfaceScale="4"
         result="result5"
         id="feDiffuseLighting5419">
        <feDistantLight
           elevation="45"
           azimuth="235"
           id="feDistantLight5417" />
      </feDiffuseLighting>
      <feComposite
         k1="1.4"
         in2="SourceGraphic"
         in="result5"
         result="fbSourceGraphic"
         operator="arithmetic"
         id="feComposite5421" />
      <feGaussianBlur
         result="result0"
         in="fbSourceGraphic"
         stdDeviation="6"
         id="feGaussianBlur5423" />
      <feSpecularLighting
         specularExponent="25"
         specularConstant="1"
         surfaceScale="4"
         lighting-color="rgb(255,255,255)"
         result="result1"
         in="result0"
         id="feSpecularLighting5427">
        <feDistantLight
           azimuth="235"
           elevation="45"
           id="feDistantLight5425" />
      </feSpecularLighting>
      <feComposite
         k3="1"
         k2="1"
         operator="arithmetic"
         in="fbSourceGraphic"
         in2="result1"
         result="result4"
         id="feComposite5429" />
      <feComposite
         operator="in"
         result="result2"
         in2="SourceGraphic"
         in="result4"
         id="feComposite5431" />
    </filter>
  </defs>
  <sodipodi:namedview
     id="base"
     pagecolor="#ffffff"
     bordercolor="#666666"
     borderopacity="1.0"
     inkscape:pageopacity="0.0"
     inkscape:pageshadow="2"
     inkscape:zoom="1.01"
     inkscape:cx="400"
     inkscape:cy="264.17042"
     inkscape:document-units="mm"
     inkscape:current-layer="layer1"
     showgrid="false"
     inkscape:window-width="1366"
     inkscape:window-height="705"
     inkscape:window-x="-8"
     inkscape:window-y="-8"
     inkscape:window-maximized="1" />
  <metadata
     id="metadata109">
    <rdf:RDF>
      <cc:Work
         rdf:about="">
        <dc:format>image/svg+xml</dc:format>
        <dc:type
           rdf:resource="http://purl.org/dc/dcmitype/StillImage" />
        <dc:title />
      </cc:Work>
    </rdf:RDF>
  </metadata>
  <g
     inkscape:label="Layer 1"
     inkscape:groupmode="layer"
     id="layer1">
    <path
       style="fill:#d40000;fill-opacity:1;stroke-width:0.28222224"
       id="path3408-9-8"
       d="m 38.413622,35.266868 c -0.55774,-0.76151 -1.10645,-0.96478 -1.960542,-1.13966 -0.590861,-0.0383 -1.168674,0.0945 -1.717263,0.33129 -0.217187,0.0937 -0.834644,0.45562 -0.633973,0.32539 3.012022,-1.95477 2.424125,-1.53786 1.355053,-0.69936 -1.080155,1.02601 -2.157524,2.2295 -2.648368,3.73405 -0.07771,0.23821 -0.112268,0.49056 -0.168402,0.73584 -0.05878,0.67932 0.03141,1.5196 0.728952,1.77425 0.367888,0.1343 0.623119,0.0516 0.999095,0.004 0.197911,-0.0624 0.398472,-0.11552 0.593733,-0.18712 0.206853,-0.0758 0.413812,-0.15418 0.611545,-0.25478 0.203985,-0.10378 0.785949,-0.47872 0.590618,-0.35681 -3.673597,2.29278 -2.169414,1.43486 -1.101714,0.44793 0.659872,-0.65809 1.190227,-1.43307 1.475359,-2.35852 0.06553,-0.23477 0.01414,-0.59521 -0.197251,-0.22067 4.864038,-2.99183 2.860478,-2.51406 2.527528,-1.17142 -0.15175,0.61194 -0.2154,1.24089 -0.28632,1.86803 -0.19411,2.14251 -0.30802,4.29067 -0.37801,6.44173 -0.0285,2.09263 0.0564,4.18243 0.26222,6.26271 0,0 -2.821426,1.5949 -2.821426,1.5949 v 0 c -0.100389,-2.11568 -0.205664,-4.23142 -0.179329,-6.35119 0.0546,-2.13608 0.153546,-4.26923 0.262074,-6.4027 0.04684,-0.74981 0.101501,-1.49968 0.223311,-2.24052 0.01634,-0.0994 -0.01631,-0.23919 0.06056,-0.29581 0.959951,-0.70679 1.988438,-1.29657 2.982658,-1.94485 0.42806,0.0778 0.6158,0.47525 0.53902,0.92879 -0.30046,0.99391 -0.80951,1.85091 -1.50803,2.57779 -1.35237,1.34846 -2.555057,1.93521 -4.351032,3.0372 -0.590925,0.36258 -1.236512,0.58627 -1.904261,0.70336 -0.474954,-2e-4 -0.703272,0.0623 -1.139921,-0.17439 -0.767842,-0.41627 -0.918238,-1.34261 -0.854783,-2.18352 0.05546,-0.268 0.08793,-0.54288 0.16639,-0.80398 0.465218,-1.54817 1.535074,-2.8044 2.595643,-3.90084 1.600849,-1.35784 0.880499,-0.79928 4.060187,-2.7141 0.760997,-0.45827 1.658657,-0.61167 2.513357,-0.51845 0.92551,0.22643 1.52936,0.53579 2.18752,1.28898 0,0 -2.8842,1.86241 -2.8842,1.86241 z"
       inkscape:connector-curvature="0" />
    <path
       style="opacity:0.98999999;fill:#d40000;fill-opacity:1;stroke-width:1.05983913"
       d="m 71.005423,33.90144 c -0.011,0 -0.0146,0 -0.0183,0 0.0146,0.140785 0.0329,0.279256 0.0391,0.421391 -0.011,0.269613 -0.011,0.539882 -9.9e-4,0.809225 0.0146,0.377999 0.0183,0.75511 0.0183,1.134382 0.011,0.511069 0.0219,1.021406 0.0256,1.532822 0.011,0.588367 0.011,1.177929 0.011,1.766411 -4e-4,0.663503 0,1.326967 0.011,1.990123 0.011,0.636581 0.0219,1.271772 0.0424,1.907389 0.0183,0.715497 0.0219,1.432537 0.0183,2.148728 -9.5e-4,0.835994 -0.011,1.671911 -0.0146,2.507828 0,0.66979 -0.011,1.34012 -0.0366,2.00829 -0.0146,0.542235 -0.0146,1.085319 -0.0219,1.628171 -0.0183,0.427486 -0.0293,0.85528 -0.0293,1.284192 l 0.98575,0.158143 c -0.0256,-0.417033 -0.011,-0.839929 5.1e-4,-1.25808 -5.1e-4,-0.544279 0.011,-1.087247 0.0219,-1.630755 0.0183,-0.67276 0.0146,-1.347565 0.0146,-2.021135 -0.011,-0.836264 0.011,-1.672296 0.011,-2.50829 0.011,-0.718236 0.011,-1.436472 0,-2.154476 -0.0219,-0.635115 -0.0292,-1.270808 -0.0424,-1.906424 -0.011,-0.660996 -0.011,-1.322378 -0.011,-1.983605 0,-0.589986 0,-1.18086 0,-1.770769 0,-0.511069 -0.011,-1.021483 -0.0183,-1.53236 0,-0.380698 0,-0.758851 -0.011,-1.138855 -0.011,-0.202114 0,-0.40442 0,-0.606225 -0.0702,-0.07521 -0.12248,-0.181285 -0.14625,-0.318599 -0.0413,-0.03471 -0.0793,-0.0729 -0.12321,-0.101056 -0.0899,-0.05747 -0.18647,-0.107614 -0.2797,-0.161228 -0.0877,-0.05014 -0.15576,-0.104529 -0.21243,-0.158528 -0.11005,0 -0.20584,-0.01929 -0.23509,-0.04783 z"
       id="path3718-8-8-7"
       inkscape:connector-curvature="0" />
    <path
       style="opacity:0.98999999;fill:#d40000;fill-opacity:1;stroke:none;stroke-width:2.01369405;stroke-miterlimit:4;stroke-dasharray:none;stroke-opacity:1"
       id="path4541-7-8-4"
       d="m 71.352033,35.855924 c -0.0702,-0.162 -0.16124,-0.313971 -0.26032,-0.461313 -0.10384,-0.153128 -0.2351,-0.285427 -0.35539,-0.426482 -0.11407,-0.109929 -0.22156,-0.2268 -0.34003,-0.332871 -0.11882,-0.120342 -0.25447,-0.221784 -0.3918,-0.32207 -0.14625,-0.108771 -0.31005,-0.19247 -0.47187,-0.277713 -0.13638,-0.07946 -0.268,-0.167014 -0.41462,-0.229499 -0.21608,-0.09913 -0.45224,-0.129214 -0.68825,-0.151585 -0.43101,-0.027 -0.86491,0.01157 -1.29117,0.0675 -0.51027,0.05014 -0.99524,0.204813 -1.48435,0.339812 -0.45649,0.126129 -0.90278,0.280799 -1.34081,0.455219 -0.39479,0.150042 -0.76347,0.347141 -1.12329,0.559939 -0.33608,0.227185 -0.656783,0.469837 -0.929099,0.76429 -0.251256,0.26537 -0.462173,0.559978 -0.637694,0.874681 -0.155719,0.280413 -0.259921,0.579533 -0.315532,0.891073 -0.08669,0.345599 -0.113599,0.7003 -0.130747,1.054076 0,0.06403 -0.01024,0.128057 -0.01024,0.192085 0,0.124585 0,0.259199 -0.01024,0.383784 -5.23e-4,0.06326 -9.65e-4,0.252642 -9.65e-4,0.189385 0.01024,-1.150195 -0.01974,-1.458341 0.02157,-0.90897 0.03919,0.363727 0.137548,0.718698 0.272316,1.060478 0.139083,0.322071 0.307709,0.631258 0.495822,0.929877 0.180763,0.285813 0.403761,0.544395 0.649039,0.782457 0.2559,0.224099 0.53193,0.428334 0.81383,0.622347 0.30204,0.207899 0.61665,0.397207 0.94922,0.557895 0.32124,0.150428 0.65586,0.273471 0.991,0.392733 0.37014,0.138085 0.75967,0.199028 1.14961,0.260356 0.43008,0.0675 0.87151,0.06326 1.30521,0.03471 0.40552,-0.01928 0.79083,-0.133842 1.17067,-0.259584 0.33528,-0.127671 0.65326,-0.290056 0.96759,-0.457842 0.26324,-0.148113 0.50942,-0.321298 0.76554,-0.479402 0.17403,-0.106842 0.3477,-0.212142 0.51593,-0.327084 0.0793,-0.08601 0.17111,-0.157371 0.28372,-0.198257 0.0402,-0.0675 0.0402,-0.07521 0.12212,-0.09913 0.06,-0.01929 0.11298,-0.01929 0.17038,0.01157 0.0293,0.027 0.0662,0.04359 0.098,0.0675 0,0 -0.10859,1.336765 -0.10859,1.336765 v 0 c -0.0256,-0.03086 -0.0366,-0.05554 -0.0826,-0.06326 -0.0219,-0.027 0.0537,-0.03086 -0.0183,-0.01157 -0.0366,0.03086 0.011,-0.01543 0,0.01928 -0.0146,0.03857 -0.0896,0.05554 -0.11992,0.07521 -0.0969,0.04474 -0.16709,0.128828 -0.2563,0.184371 -0.17221,0.106842 -0.34588,0.211371 -0.52039,0.315127 -0.25667,0.157371 -0.51034,0.319371 -0.77545,0.464051 -0.32102,0.170485 -0.64686,0.336342 -0.99274,0.457726 -0.3918,0.123814 -0.79053,0.234899 -1.20627,0.251485 -0.44484,0.027 -0.89576,0.03471 -1.33741,-0.03086 -0.3983,-0.0621 -0.79721,-0.116871 -1.17777,-0.251485 -0.33754,-0.125357 -0.67938,-0.241842 -1.00442,-0.395124 -0.34083,-0.1593 -0.66205,-0.350999 -0.96996,-0.562061 -0.29056,-0.190542 -0.57248,-0.3947 -0.836533,-0.616755 -0.260652,-0.234899 -0.487452,-0.504126 -0.682782,-0.789978 -0.194402,-0.300856 -0.372095,-0.608501 -0.518932,-0.933117 -0.148772,-0.342898 -0.254547,-0.700608 -0.31184,-1.068 -0.07429,-0.803362 -0.034,-1.614015 -0.01243,-2.419537 0.02267,-0.358327 0.06296,-0.71488 0.148479,-1.0653 0.0743,-0.313585 0.192245,-0.614711 0.358786,-0.895356 0.193049,-0.309727 0.409443,-0.60553 0.669784,-0.868972 0.289135,-0.290442 0.619338,-0.539188 0.967078,-0.764945 0.36558,-0.214842 0.74459,-0.405269 1.14599,-0.554848 0.4436,-0.171642 0.89412,-0.32747 1.35556,-0.450783 0.49459,-0.137314 0.98823,-0.281184 1.5024,-0.339427 0.4368,-0.06519 0.88112,-0.105685 1.32358,-0.09797 0.2491,0.01543 0.49828,0.04474 0.73119,0.135385 0.15721,0.0567 0.29872,0.138085 0.43358,0.232199 0.16234,0.09257 0.33528,0.169328 0.48778,0.276556 0.14334,0.09604 0.28702,0.198642 0.40449,0.323228 0.13162,0.104528 0.23656,0.227956 0.3627,0.33827 0.12176,0.143099 0.25337,0.276941 0.3669,0.425865 0.10822,0.141171 0.20329,0.294299 0.28007,0.451516 0,0 -0.15649,1.329359 -0.15649,1.329359 z"
       inkscape:connector-curvature="0" />
    <path
       style="opacity:0.98999999;fill:#d40000;fill-opacity:1;stroke-width:1.05983913"
       d="m 70.811823,34.752014 v 0 h -0.0183 c 0.0146,0.140785 0.0329,0.27887 0.0402,0.421082 -0.011,0.269614 -0.0146,0.540692 -0.002,0.809997 0.0183,0.377999 0.0183,0.753953 0.0183,1.133186 0.011,0.511108 0.0219,1.021521 0.0256,1.532938 0.011,0.588366 0.011,1.178353 0.011,1.766835 -4.1e-4,0.663503 -2.2e-4,1.326852 0.011,1.990007 0.011,0.636581 0.0219,1.271464 0.0424,1.90708 0.0183,0.715497 0.0219,1.433425 0.0183,2.149578 -9.5e-4,0.836032 -0.011,1.672797 -0.011,2.508714 0,0.66979 -0.011,1.338963 -0.0366,2.007095 -0.0146,0.542235 -0.0146,1.085743 -0.0183,1.628634 -0.011,0.266142 -0.0146,0.532708 -0.0183,0.799428 0.30419,-0.08948 0.62799,-0.027 0.94923,-0.01157 0.007,-3.09e-4 0.0183,2.31e-4 0.0256,0 -9.5e-4,-0.201342 -0.004,-0.402877 0.002,-0.603834 -5.1e-4,-0.544279 0.011,-1.087247 0.0183,-1.630793 0.0183,-0.672606 0.0183,-1.348298 0.0146,-2.021907 -0.011,-0.836225 0.011,-1.672798 0.011,-2.508791 0.011,-0.718236 0.011,-1.435739 0,-2.153743 -0.0219,-0.635077 -0.0293,-1.271425 -0.0424,-1.907042 -0.011,-0.660996 -0.011,-1.322532 -0.011,-1.98372 V 38.81411 c 0,-0.511108 -0.0146,-1.019902 -0.0183,-1.53074 0,-0.380698 2.6e-4,-0.759622 -0.011,-1.139627 -0.011,-0.202113 0,-0.404072 0,-0.605916 -0.0702,-0.07521 -0.12321,-0.18167 -0.14698,-0.318984 -0.0413,-0.03471 -0.079,-0.07406 -0.12285,-0.102214 -0.0899,-0.05747 -0.1872,-0.107614 -0.28007,-0.161614 -0.0877,-0.05014 -0.15502,-0.103371 -0.21169,-0.157371 -0.11005,0 -0.20658,-0.01929 -0.23583,-0.04899 z"
       id="path3718-8-7-5"
       inkscape:connector-curvature="0" />
    <path
       style="opacity:0.98999999;fill:#d40000;fill-opacity:1;stroke:none;stroke-width:2.01369405;stroke-miterlimit:4;stroke-dasharray:none;stroke-opacity:1"
       id="path4541-7-6-4"
       d="m 71.157853,36.708812 c -0.0702,-0.162 -0.16124,-0.31397 -0.26032,-0.461313 -0.10384,-0.153128 -0.2351,-0.285427 -0.35539,-0.426482 -0.11407,-0.109543 -0.22157,-0.2268 -0.34003,-0.332871 -0.11883,-0.120342 -0.25447,-0.221784 -0.3918,-0.32207 -0.14625,-0.108771 -0.31005,-0.192856 -0.47187,-0.277713 -0.13638,-0.07946 -0.268,-0.167014 -0.41462,-0.229499 -0.21608,-0.09913 -0.45227,-0.129214 -0.68826,-0.151585 -0.43101,-0.027 -0.86491,0.01157 -1.29118,0.0675 -0.51025,0.05014 -0.99523,0.204813 -1.48434,0.339813 -0.4565,0.126128 -0.90278,0.280798 -1.3408,0.455218 -0.3948,0.150042 -0.76349,0.347527 -1.1233,0.559978 -0.336084,0.227184 -0.656786,0.469798 -0.929091,0.764251 -0.251256,0.26537 -0.462177,0.559978 -0.637698,0.874681 -0.155719,0.280413 -0.259921,0.579533 -0.315532,0.891112 -0.08669,0.345599 -0.113599,0.700262 -0.130747,1.054037 0,0.06403 -0.01024,0.128057 -0.01024,0.192085 0,0.124586 0,0.259199 -0.01024,0.383785 -5.16e-4,0.06326 -9.69e-4,0.252641 -9.69e-4,0.189385 0.01024,-1.150157 -0.01974,-1.458342 0.02157,-0.908933 0.0392,0.363727 0.137547,0.71866 0.272316,1.060479 0.139083,0.32207 0.307708,0.631258 0.49581,0.929876 0.180764,0.285814 0.403772,0.544357 0.649043,0.782457 0.255899,0.224099 0.531928,0.428334 0.813828,0.622309 0.30204,0.2079 0.61665,0.397246 0.94922,0.557895 0.32124,0.150428 0.65585,0.273471 0.99101,0.392772 0.37013,0.138085 0.75966,0.199027 1.1496,0.260356 0.43009,0.0675 0.87152,0.06326 1.30522,0.03086 0.40552,-0.01929 0.79082,-0.133843 1.17064,-0.259585 0.33528,-0.127671 0.6533,-0.290056 0.96759,-0.45788 0.26324,-0.148113 0.50946,-0.321298 0.76554,-0.479402 0.17403,-0.106842 0.3477,-0.212142 0.51596,-0.327084 0.0793,-0.08601 0.17112,-0.157371 0.28373,-0.198257 0.0402,-0.0675 0.0402,-0.07521 0.12212,-0.09913 0.06,-0.01929 0.11297,-0.01929 0.17038,0.01157 0.0293,0.027 0.0662,0.04359 0.098,0.0675 0,0 -0.10859,1.336765 -0.10859,1.336765 v 0 c -0.0256,-0.03086 -0.0366,-0.05554 -0.0826,-0.06326 -0.0256,-0.027 0.0537,-0.03086 -0.0183,-0.01157 -0.0366,0.03086 0.011,-0.01543 0,0.01928 -0.0183,0.03857 -0.0899,0.05554 -0.12029,0.07521 -0.0969,0.04474 -0.16709,0.128828 -0.2563,0.184371 -0.17221,0.106842 -0.34588,0.211371 -0.52039,0.315127 -0.25667,0.157371 -0.51037,0.319371 -0.77545,0.464051 -0.32102,0.170485 -0.6469,0.336342 -0.99278,0.457764 -0.39179,0.123814 -0.7905,0.234899 -1.20624,0.251485 -0.44484,0.027 -0.89576,0.03471 -1.3374,-0.03086 -0.39831,-0.0621 -0.79722,-0.116871 -1.17778,-0.251485 -0.33751,-0.125356 -0.67938,-0.241842 -1.00442,-0.395162 -0.34083,-0.1593 -0.66204,-0.350999 -0.96996,-0.562023 -0.29056,-0.190542 -0.572473,-0.394738 -0.836529,-0.616793 -0.260653,-0.234899 -0.487459,-0.504126 -0.682793,-0.789978 -0.194402,-0.300856 -0.372091,-0.608501 -0.518922,-0.933117 -0.148808,-0.343284 -0.254546,-0.700608 -0.311839,-1.068 -0.0743,-0.803362 -0.034,-1.614015 -0.01243,-2.419537 0.02267,-0.358328 0.06296,-0.71488 0.14848,-1.0653 0.07429,-0.313585 0.192244,-0.614711 0.358786,-0.895317 0.193048,-0.309727 0.40945,-0.605569 0.669791,-0.869011 0.289135,-0.290442 0.619325,-0.539188 0.967076,-0.764945 0.36558,-0.214842 0.74459,-0.405269 1.14599,-0.554848 0.4436,-0.171642 0.89411,-0.32747 1.35557,-0.450783 0.49457,-0.137314 0.98821,-0.281184 1.50239,-0.339427 0.43679,-0.06519 0.88112,-0.105685 1.32359,-0.09797 0.2491,0.01543 0.49828,0.04474 0.73118,0.135385 0.15722,0.0567 0.29872,0.138085 0.4336,0.232585 0.16233,0.09257 0.33527,0.169328 0.48774,0.276556 0.14332,0.09566 0.28701,0.198642 0.40452,0.323227 0.13163,0.104528 0.23656,0.228342 0.3627,0.33827 0.12175,0.1431 0.25338,0.276942 0.36694,0.425866 0.10822,0.141171 0.20329,0.294299 0.28007,0.451554 0,0 -0.15649,1.32932 -0.15649,1.32932 z"
       inkscape:connector-curvature="0" />
    <path
       style="opacity:0.98999999;fill:#d40000;fill-opacity:1;stroke-width:1.05983913"
       d="m 70.576033,34.277934 v 0.002 h -0.0183 c 0.0146,0.140786 0.0329,0.278871 0.0402,0.420967 -0.011,0.269614 -0.0146,0.540808 -0.002,0.810113 0.0183,0.377998 0.0183,0.755997 0.0219,1.135268 0.011,0.51107 0.0219,1.019439 0.0256,1.530856 0.011,0.588366 0.011,1.178275 0.011,1.766757 -4e-4,0.663465 -2.5e-4,1.326852 0.011,1.990008 0.011,0.63658 0.0219,1.271541 0.0424,1.907157 0.0146,0.715497 0.0219,1.433309 0.0183,2.1495 -9.8e-4,0.835994 -0.011,1.672875 -0.011,2.508792 0,0.669829 -0.011,1.338847 -0.0366,2.007018 -0.0146,0.542196 -0.0183,1.085704 -0.0219,1.628595 -0.0146,0.427485 -0.0293,0.855279 -0.0293,1.284192 l 0.16928,0.027 c 0.26105,-0.102214 0.53779,-0.08601 0.81622,-0.0621 -0.011,-0.35447 -0.011,-0.710714 0.002,-1.065184 -5.1e-4,-0.54428 0.011,-1.087132 0.0183,-1.630678 0.0183,-0.672838 0.0146,-1.348375 0.0146,-2.021984 -0.011,-0.836264 0.011,-1.672798 0.011,-2.50883 0.011,-0.718236 0.011,-1.4357 0,-2.153743 -0.0219,-0.635076 -0.0293,-1.271425 -0.0424,-1.907041 -0.011,-0.660996 -0.011,-1.322494 -0.011,-1.983721 v -1.770962 c 0,-0.511108 -0.011,-1.019979 -0.0183,-1.530855 0,-0.380699 2.5e-4,-0.759623 -0.011,-1.139627 -0.011,-0.202114 0,-0.404073 0,-0.605916 -0.0702,-0.07521 -0.12322,-0.181671 -0.14698,-0.318985 -0.0413,-0.03471 -0.079,-0.07406 -0.12285,-0.102214 -0.0899,-0.05747 -0.1872,-0.106071 -0.28007,-0.159299 -0.0877,-0.05014 -0.15502,-0.1053 -0.21169,-0.1593 -0.11006,0 -0.20658,-0.01928 -0.23583,-0.04899 z"
       id="path3718-8-6-4"
       inkscape:connector-curvature="0" />
    <path
       style="opacity:0.98999999;fill:#d40000;fill-opacity:1;stroke:none;stroke-width:2.01369405;stroke-miterlimit:4;stroke-dasharray:none;stroke-opacity:1"
       id="path4541-7-9-3"
       d="m 70.921843,36.234964 c -0.0702,-0.162 -0.16124,-0.313971 -0.26032,-0.461313 -0.10384,-0.153128 -0.2351,-0.285427 -0.35539,-0.426521 -0.11407,-0.109543 -0.22157,-0.226799 -0.34003,-0.33287 -0.11883,-0.120343 -0.25447,-0.221785 -0.3918,-0.32207 -0.14625,-0.108771 -0.31005,-0.192857 -0.47187,-0.277714 -0.13638,-0.07946 -0.268,-0.167013 -0.41462,-0.229499 -0.21616,-0.09913 -0.45227,-0.129214 -0.68825,-0.151585 -0.43102,-0.027 -0.86491,0.01157 -1.29118,0.0675 -0.51026,0.05014 -0.99524,0.204813 -1.48434,0.339813 -0.45651,0.126128 -0.90279,0.280799 -1.34082,0.455257 -0.39479,0.150042 -0.76348,0.347527 -1.12329,0.559977 -0.336076,0.227185 -0.656786,0.469837 -0.929095,0.76429 -0.251256,0.265371 -0.462173,0.55994 -0.637693,0.874643 -0.155719,0.280413 -0.259922,0.579572 -0.315533,0.891112 -0.08669,0.345599 -0.113599,0.7003 -0.130747,1.054076 0,0.06403 -0.01024,0.128056 -0.01024,0.192085 0,0.124585 0,0.259199 -0.01024,0.383784 -5.11e-4,0.06326 -9.68e-4,0.252642 -9.68e-4,0.189385 0.01024,-1.150196 -0.01974,-1.458342 0.02157,-0.908971 0.03916,0.363727 0.137548,0.718699 0.272316,1.060479 0.13912,0.32207 0.307708,0.631257 0.49581,0.929876 0.180801,0.285813 0.403776,0.544395 0.649054,0.782457 0.2559,0.224099 0.531923,0.428334 0.813836,0.622348 0.30204,0.207899 0.61664,0.397207 0.9492,0.557895 0.32124,0.150428 0.65587,0.27347 0.99101,0.392733 0.37013,0.138085 0.75967,0.199027 1.14961,0.260356 0.43008,0.0675 0.87152,0.06326 1.30521,0.03086 0.40553,-0.01929 0.79082,-0.133843 1.17065,-0.259585 0.33524,-0.127671 0.65329,-0.290056 0.96761,-0.457841 0.26325,-0.148114 0.50943,-0.321299 0.76554,-0.479403 0.17404,-0.106842 0.34771,-0.212142 0.51593,-0.327084 0.0793,-0.08601 0.17112,-0.157371 0.28373,-0.198256 0.0402,-0.0675 0.0402,-0.07521 0.12212,-0.09913 0.06,-0.01928 0.11297,-0.01928 0.17038,0.01157 0.0292,0.027 0.0662,0.04359 0.098,0.0675 0,0 -0.10859,1.336726 -0.10859,1.336726 v 0 c -0.0256,-0.03086 -0.0366,-0.05554 -0.0826,-0.06326 -0.0256,-0.027 0.0538,-0.03086 -0.0183,-0.01157 -0.0366,0.03086 0.011,-0.01543 0,0.01929 -0.0183,0.03857 -0.0899,0.05554 -0.12029,0.07521 -0.0969,0.04474 -0.16709,0.128828 -0.2563,0.184371 -0.17221,0.106842 -0.34588,0.21137 -0.52039,0.315127 -0.25667,0.157371 -0.51037,0.31937 -0.77545,0.46409 -0.32102,0.170485 -0.64686,0.336341 -0.99276,0.457725 -0.3918,0.123814 -0.79052,0.234899 -1.20625,0.251485 -0.44484,0.027 -0.89578,0.03471 -1.33741,-0.03086 -0.3983,-0.0621 -0.79723,-0.116871 -1.17778,-0.251485 -0.33754,-0.125356 -0.67938,-0.241842 -1.00442,-0.395163 -0.34083,-0.159299 -0.66204,-0.350998 -0.96995,-0.562022 -0.29056,-0.190542 -0.572481,-0.3947 -0.836538,-0.616793 -0.260652,-0.234899 -0.487452,-0.504088 -0.682786,-0.789978 -0.194401,-0.300856 -0.37209,-0.608501 -0.518928,-0.933078 -0.148809,-0.343284 -0.254547,-0.700609 -0.31184,-1.068 -0.0743,-0.803363 -0.034,-1.614054 -0.01243,-2.419576 0.02267,-0.358328 0.06296,-0.714842 0.148479,-1.065262 0.0743,-0.313585 0.192245,-0.614711 0.358786,-0.895355 0.193049,-0.309727 0.409443,-0.605569 0.669785,-0.869011 0.289134,-0.290442 0.619324,-0.539188 0.967065,-0.764946 0.365587,-0.214842 0.744607,-0.405268 1.145997,-0.554847 0.4436,-0.171643 0.89412,-0.327471 1.35557,-0.450783 0.49457,-0.137314 0.98822,-0.281185 1.5024,-0.339427 0.43679,-0.06519 0.88111,-0.105686 1.32358,-0.09797 0.2491,0.01543 0.49829,0.04474 0.73119,0.135385 0.15722,0.0567 0.29872,0.138085 0.4336,0.232199 0.16233,0.09257 0.33527,0.169328 0.48774,0.276556 0.14332,0.09566 0.28701,0.198642 0.40449,0.323227 0.13162,0.104529 0.23655,0.227957 0.36269,0.33827 0.12176,0.1431 0.25338,0.276942 0.36694,0.425866 0.10823,0.141171 0.20329,0.294299 0.28007,0.451554 0,0 -0.15649,1.329359 -0.15649,1.329359 z"
       inkscape:connector-curvature="0" />
    <flowRoot
       xml:space="preserve"
       id="flowRoot355"
       style="fill:black;fill-opacity:1;stroke:none;font-family:Streetwear;font-style:normal;font-weight:normal;font-size:40px;line-height:25px;letter-spacing:0px;word-spacing:0px;-inkscape-font-specification:Streetwear;font-stretch:normal;font-variant:normal;"><flowRegion
         id="flowRegion357"
         style="-inkscape-font-specification:Streetwear;font-family:Streetwear;font-weight:normal;font-style:normal;font-stretch:normal;font-variant:normal;"><rect
           id="rect359"
           width="313.63635"
           height="125.75758"
           x="77.272728"
           y="336.15604"
           style="-inkscape-font-specification:Streetwear;font-family:Streetwear;font-weight:normal;font-style:normal;font-stretch:normal;font-variant:normal;" /></flowRegion><flowPara
         id="flowPara361" /></flowRoot>    <flowRoot
       xml:space="preserve"
       id="flowRoot363"
       style="font-style:normal;font-weight:normal;font-size:40px;line-height:25px;font-family:sans-serif;letter-spacing:0px;word-spacing:0px;fill:#000000;fill-opacity:1;stroke:none"
       transform="matrix(0.26458333,0,0,0.26458333,-2.0044192,-38.083965)"><flowRegion
         id="flowRegion365"><rect
           id="rect367"
           width="377.27274"
           height="136.36363"
           x="93.939392"
           y="317.97424" /></flowRegion><flowPara
         id="flowPara369"
         style="font-style:normal;font-variant:normal;font-weight:normal;font-stretch:normal;font-family:Streetwear;-inkscape-font-specification:Streetwear">Pts</flowPara></flowRoot>    <path
       style="fill:#d40000;fill-opacity:1;stroke-width:0.28222224"
       id="path3408-9-8-3"
       d="m 37.196664,126.74025 c -0.55774,-0.76151 -1.10645,-0.96478 -1.96054,-1.13966 -0.59086,-0.0383 -1.16868,0.0945 -1.71727,0.33129 -0.21718,0.0937 -0.83464,0.45562 -0.63397,0.32539 3.01202,-1.95477 2.42413,-1.53786 1.35505,-0.69936 -1.08015,1.02601 -2.15752,2.22951 -2.64836,3.73406 -0.0777,0.2382 -0.11227,0.49056 -0.16841,0.73583 -0.0588,0.67932 0.0314,1.51961 0.72896,1.77425 0.36788,0.13431 0.62311,0.0516 0.99909,0.004 0.19791,-0.0624 0.39847,-0.11552 0.59373,-0.18711 0.20686,-0.0758 0.41382,-0.15418 0.61155,-0.25478 0.20398,-0.10378 0.78595,-0.47872 0.59062,-0.35681 -3.6736,2.29278 -2.16942,1.43486 -1.10172,0.44793 0.65987,-0.6581 1.19023,-1.43307 1.47536,-2.35853 0.0655,-0.23476 0.0141,-0.5952 -0.19725,-0.22066 4.86404,-2.99184 2.86048,-2.51406 2.52753,-1.17142 -0.15175,0.61194 -0.2154,1.24089 -0.28632,1.86803 -0.19411,2.1425 -0.30802,4.29066 -0.37801,6.44172 -0.0285,2.09263 0.0564,4.18243 0.26222,6.26271 0,0 -2.82143,1.5949 -2.82143,1.5949 v 0 c -0.10039,-2.11568 -0.20566,-4.23142 -0.17933,-6.35118 0.0546,-2.13608 0.15355,-4.26924 0.26208,-6.40271 0.0468,-0.74981 0.1015,-1.49968 0.22331,-2.24052 0.0163,-0.0994 -0.0163,-0.23919 0.0606,-0.29581 0.95995,-0.70679 1.98844,-1.29657 2.98266,-1.94485 0.42806,0.0778 0.6158,0.47525 0.53902,0.92879 -0.30046,0.99391 -0.80951,1.85091 -1.50803,2.57779 -1.35237,1.34846 -2.55506,1.93521 -4.35104,3.0372 -0.59092,0.36258 -1.23651,0.58628 -1.90426,0.70337 -0.47495,-2e-4 -0.70327,0.0623 -1.139918,-0.1744 -0.767842,-0.41626 -0.918238,-1.34261 -0.854783,-2.18351 0.05546,-0.26801 0.08793,-0.54288 0.16639,-0.80399 0.465218,-1.54816 1.535071,-2.8044 2.595641,-3.90083 1.60085,-1.35785 0.8805,-0.79929 4.06019,-2.71411 0.761,-0.45827 1.65866,-0.61167 2.51336,-0.51845 0.92551,0.22643 1.52936,0.53579 2.18752,1.28898 0,0 -2.8842,1.86241 -2.8842,1.86241 z"
       inkscape:connector-curvature="0" />
    <path
       style="opacity:0.98999999;fill:#d40000;fill-opacity:1;stroke-width:1.05983913"
       d="m 140.34402,33.572428 c -0.011,0 -0.0146,0 -0.0183,0 0.0146,0.140785 0.0329,0.279256 0.0391,0.421391 -0.011,0.269613 -0.011,0.539882 -0.001,0.809226 0.0146,0.377998 0.0183,0.75511 0.0183,1.134382 0.011,0.511068 0.0219,1.021405 0.0256,1.532822 0.011,0.588366 0.011,1.177928 0.011,1.766411 -5.3e-4,0.663503 0,1.326966 0.011,1.990123 0.011,0.636581 0.0219,1.271772 0.0424,1.907389 0.0183,0.715497 0.0219,1.432537 0.0183,2.148728 -0.001,0.835994 -0.011,1.671911 -0.0146,2.507828 0,0.66979 -0.011,1.34012 -0.0366,2.00829 -0.0146,0.542235 -0.0146,1.085319 -0.0219,1.628171 -0.0183,0.427486 -0.0293,0.85528 -0.0293,1.284192 l 0.98575,0.158143 c -0.0256,-0.417033 -0.011,-0.839929 5.3e-4,-1.25808 -5.3e-4,-0.544279 0.011,-1.087247 0.0219,-1.630755 0.0183,-0.67276 0.0146,-1.347565 0.0146,-2.021135 -0.011,-0.836264 0.011,-1.672296 0.011,-2.50829 0.011,-0.718236 0.011,-1.436472 0,-2.154476 -0.0219,-0.635115 -0.0292,-1.270808 -0.0424,-1.906424 -0.011,-0.660996 -0.011,-1.322378 -0.011,-1.983605 0,-0.589987 0,-1.18086 0,-1.770769 0,-0.51107 -0.011,-1.021484 -0.0183,-1.53236 0,-0.380699 0,-0.758852 -0.011,-1.138855 -0.011,-0.202115 0,-0.404421 0,-0.606226 -0.0702,-0.07521 -0.12248,-0.181285 -0.14625,-0.318599 -0.0413,-0.03471 -0.0793,-0.0729 -0.12321,-0.101056 -0.0899,-0.05747 -0.18647,-0.107614 -0.2797,-0.161228 -0.0877,-0.05014 -0.15576,-0.104529 -0.21243,-0.158528 -0.11005,0 -0.20584,-0.01929 -0.23509,-0.04783 z"
       id="path3718-8-8-7-8"
       inkscape:connector-curvature="0" />
    <path
       style="opacity:0.98999999;fill:#d40000;fill-opacity:1;stroke:none;stroke-width:2.01369405;stroke-miterlimit:4;stroke-dasharray:none;stroke-opacity:1"
       id="path4541-7-8-4-7"
       d="m 140.69063,35.526913 c -0.0702,-0.162001 -0.16124,-0.313971 -0.26032,-0.461313 -0.10384,-0.153129 -0.2351,-0.285428 -0.35539,-0.426483 -0.11407,-0.109929 -0.22156,-0.2268 -0.34003,-0.332871 -0.11882,-0.120342 -0.25447,-0.221784 -0.3918,-0.32207 -0.14625,-0.108771 -0.31005,-0.19247 -0.47187,-0.277713 -0.13638,-0.07946 -0.268,-0.167014 -0.41462,-0.229499 -0.21608,-0.09913 -0.45224,-0.129214 -0.68825,-0.151585 -0.43101,-0.027 -0.86491,0.01157 -1.29117,0.0675 -0.51027,0.05014 -0.99524,0.204813 -1.48435,0.339812 -0.45649,0.126129 -0.90278,0.280799 -1.34081,0.455219 -0.39479,0.150042 -0.76347,0.347142 -1.12329,0.55994 -0.33608,0.227185 -0.65678,0.469837 -0.9291,0.76429 -0.25125,0.265369 -0.46217,0.559977 -0.63769,0.874681 -0.15572,0.280413 -0.25992,0.579533 -0.31553,0.891073 -0.0867,0.345599 -0.1136,0.700299 -0.13075,1.054075 0,0.06403 -0.0102,0.128057 -0.0102,0.192086 0,0.124584 0,0.259199 -0.0102,0.383784 -5.3e-4,0.06326 -0.001,0.252641 -0.001,0.189385 0.0102,-1.150196 -0.0197,-1.458341 0.0216,-0.90897 0.0392,0.363727 0.13755,0.718698 0.27232,1.060477 0.13908,0.322072 0.3077,0.631258 0.49582,0.929877 0.18076,0.285813 0.40376,0.544395 0.64904,0.782458 0.2559,0.224098 0.53192,0.428333 0.81382,0.622347 0.30204,0.207899 0.61666,0.397207 0.94923,0.557895 0.32123,0.150428 0.65586,0.273471 0.991,0.392733 0.37013,0.138085 0.75966,0.199028 1.14961,0.260356 0.43008,0.0675 0.87151,0.06326 1.30521,0.03471 0.40551,-0.01928 0.79082,-0.133842 1.17067,-0.259584 0.33528,-0.127671 0.65325,-0.290056 0.96759,-0.457842 0.26323,-0.148113 0.50942,-0.321298 0.76554,-0.479403 0.17403,-0.106841 0.34769,-0.212141 0.51592,-0.327084 0.0793,-0.08601 0.17112,-0.15737 0.28373,-0.198257 0.0402,-0.0675 0.0402,-0.07521 0.12212,-0.09913 0.06,-0.01929 0.11298,-0.01929 0.17038,0.01157 0.0293,0.027 0.0662,0.04359 0.098,0.0675 0,0 -0.10859,1.336766 -0.10859,1.336766 v 0 c -0.0256,-0.03086 -0.0366,-0.05554 -0.0826,-0.06326 -0.0219,-0.027 0.0537,-0.03086 -0.0183,-0.01157 -0.0366,0.03086 0.011,-0.01543 0,0.01928 -0.0146,0.03857 -0.0896,0.05554 -0.11992,0.07521 -0.0969,0.04474 -0.16709,0.128828 -0.2563,0.184371 -0.17221,0.106842 -0.34588,0.211371 -0.52039,0.315127 -0.25667,0.157371 -0.51034,0.319371 -0.77545,0.464051 -0.32102,0.170485 -0.64686,0.336342 -0.99274,0.457726 -0.3918,0.123814 -0.79053,0.234899 -1.20627,0.251485 -0.44484,0.027 -0.89576,0.03471 -1.33741,-0.03086 -0.39831,-0.0621 -0.79721,-0.116871 -1.17778,-0.251485 -0.33754,-0.125357 -0.67937,-0.241842 -1.00441,-0.395124 -0.34084,-0.1593 -0.66206,-0.350999 -0.96996,-0.562061 -0.29056,-0.190542 -0.57248,-0.3947 -0.83654,-0.616755 -0.2606,-0.234899 -0.4874,-0.504126 -0.68273,-0.789978 -0.1944,-0.300856 -0.3721,-0.608501 -0.51893,-0.933117 -0.14877,-0.342898 -0.25455,-0.700608 -0.31184,-1.068 -0.0743,-0.803362 -0.034,-1.614015 -0.0124,-2.419537 0.0227,-0.358327 0.063,-0.71488 0.14848,-1.0653 0.0743,-0.313585 0.19224,-0.614711 0.35878,-0.895356 0.19305,-0.309727 0.40945,-0.60553 0.66979,-0.868972 0.28913,-0.290442 0.61934,-0.539188 0.96708,-0.764945 0.36558,-0.214842 0.74459,-0.405269 1.14599,-0.554848 0.4436,-0.171642 0.89411,-0.32747 1.35556,-0.450783 0.49458,-0.137314 0.98823,-0.281184 1.5024,-0.339427 0.4368,-0.06519 0.88112,-0.105685 1.32358,-0.09797 0.2491,0.01543 0.49828,0.04474 0.73119,0.135385 0.15721,0.0567 0.29872,0.138085 0.43358,0.232199 0.16233,0.09257 0.33528,0.169328 0.48777,0.276556 0.14334,0.09604 0.28702,0.198642 0.4045,0.323228 0.13162,0.104528 0.23656,0.227956 0.3627,0.33827 0.12176,0.143099 0.25337,0.276941 0.3669,0.425865 0.10822,0.141171 0.20329,0.294299 0.28007,0.451516 0,0 -0.1565,1.329359 -0.1565,1.329359 z"
       inkscape:connector-curvature="0" />
    <path
       style="opacity:0.98999999;fill:#d40000;fill-opacity:1;stroke-width:1.05983913"
       d="m 140.15042,34.423003 v 0 h -0.0183 c 0.0146,0.140784 0.0329,0.278869 0.0402,0.421082 -0.011,0.269613 -0.0146,0.540691 -0.002,0.809997 0.0183,0.377998 0.0183,0.753953 0.0183,1.133185 0.011,0.511108 0.0219,1.021521 0.0256,1.532939 0.011,0.588365 0.011,1.178353 0.011,1.766834 -5.3e-4,0.663503 -2.2e-4,1.326852 0.011,1.990008 0.011,0.636581 0.0219,1.271464 0.0424,1.90708 0.0183,0.715497 0.0219,1.433425 0.0183,2.149578 -0.001,0.836032 -0.011,1.672797 -0.011,2.508714 0,0.66979 -0.011,1.338963 -0.0366,2.007095 -0.0146,0.542235 -0.0146,1.085743 -0.0183,1.628634 -0.011,0.266142 -0.0146,0.532708 -0.0183,0.799428 0.30419,-0.08948 0.62799,-0.027 0.94923,-0.01157 0.007,-3.18e-4 0.0183,2.31e-4 0.0256,0 -10e-4,-0.201342 -0.004,-0.402877 0.002,-0.603835 -5.3e-4,-0.544278 0.011,-1.087247 0.0183,-1.630793 0.0183,-0.672606 0.0183,-1.348297 0.0146,-2.021906 -0.011,-0.836226 0.011,-1.672798 0.011,-2.508792 0.011,-0.718236 0.011,-1.435739 0,-2.153743 -0.0219,-0.635077 -0.0293,-1.271425 -0.0424,-1.907042 -0.011,-0.660996 -0.011,-1.322532 -0.011,-1.98372 v -1.771078 c 0,-0.511108 -0.0146,-1.019902 -0.0183,-1.53074 0,-0.380698 2.6e-4,-0.759622 -0.011,-1.139627 -0.011,-0.202113 0,-0.404072 0,-0.605916 -0.0702,-0.07521 -0.12321,-0.18167 -0.14698,-0.318984 -0.0413,-0.03471 -0.079,-0.07406 -0.12285,-0.102214 -0.0899,-0.05747 -0.1872,-0.107614 -0.28007,-0.161614 -0.0877,-0.05014 -0.15502,-0.103371 -0.21169,-0.157371 -0.11005,0 -0.20658,-0.01929 -0.23583,-0.04899 z"
       id="path3718-8-7-5-0"
       inkscape:connector-curvature="0" />
    <path
       style="opacity:0.98999999;fill:#d40000;fill-opacity:1;stroke:none;stroke-width:2.01369405;stroke-miterlimit:4;stroke-dasharray:none;stroke-opacity:1"
       id="path4541-7-6-4-3"
       d="m 140.49645,36.379801 c -0.0702,-0.162001 -0.16124,-0.313971 -0.26032,-0.461314 -0.10384,-0.153127 -0.2351,-0.285427 -0.35539,-0.426481 -0.11407,-0.109544 -0.22157,-0.226801 -0.34003,-0.332871 -0.11883,-0.120342 -0.25447,-0.221785 -0.3918,-0.322071 -0.14625,-0.108771 -0.31005,-0.192855 -0.47187,-0.277713 -0.13638,-0.07946 -0.268,-0.167014 -0.41462,-0.229499 -0.21608,-0.09913 -0.45227,-0.129214 -0.68826,-0.151585 -0.43101,-0.027 -0.86491,0.01157 -1.29118,0.0675 -0.51025,0.05014 -0.99523,0.204813 -1.48434,0.339814 -0.4565,0.126128 -0.90278,0.280797 -1.3408,0.455218 -0.3948,0.150041 -0.76349,0.347526 -1.1233,0.559978 -0.33608,0.227183 -0.65679,0.469797 -0.92909,0.764251 -0.25126,0.26537 -0.46218,0.559978 -0.6377,0.874681 -0.15572,0.280412 -0.25992,0.579533 -0.31553,0.891111 -0.0867,0.3456 -0.1136,0.700263 -0.13075,1.054038 0,0.06403 -0.0102,0.128057 -0.0102,0.192084 0,0.124587 0,0.259199 -0.0102,0.383785 -5.3e-4,0.06326 -0.001,0.252641 -0.001,0.189385 0.0102,-1.150157 -0.0197,-1.458342 0.0216,-0.908932 0.0392,0.363726 0.13755,0.718659 0.27232,1.060479 0.13908,0.32207 0.30771,0.631258 0.49581,0.929876 0.18076,0.285814 0.40377,0.544357 0.64904,0.782457 0.2559,0.224099 0.53193,0.428334 0.81383,0.622309 0.30204,0.2079 0.61665,0.397246 0.94922,0.557895 0.32124,0.150428 0.65585,0.273471 0.99101,0.392772 0.37013,0.138085 0.75966,0.199027 1.1496,0.260356 0.43009,0.0675 0.87152,0.06326 1.30522,0.03086 0.40552,-0.01929 0.79082,-0.133843 1.17064,-0.259585 0.33528,-0.127671 0.6533,-0.290056 0.96759,-0.45788 0.26324,-0.148113 0.50946,-0.321298 0.76554,-0.479402 0.17403,-0.106842 0.3477,-0.212142 0.51596,-0.327084 0.0793,-0.08601 0.17112,-0.157371 0.28373,-0.198257 0.0402,-0.0675 0.0402,-0.07521 0.12212,-0.09913 0.06,-0.01929 0.11297,-0.01929 0.17038,0.01157 0.0293,0.027 0.0662,0.04359 0.098,0.0675 0,0 -0.10859,1.336765 -0.10859,1.336765 v 0 c -0.0256,-0.03086 -0.0366,-0.05554 -0.0826,-0.06326 -0.0256,-0.027 0.0537,-0.03086 -0.0183,-0.01157 -0.0366,0.03086 0.011,-0.01543 0,0.01928 -0.0183,0.03857 -0.0899,0.05554 -0.12029,0.07521 -0.0969,0.04474 -0.16709,0.128828 -0.2563,0.184371 -0.17221,0.106842 -0.34588,0.211371 -0.52039,0.315127 -0.25667,0.157371 -0.51037,0.319371 -0.77545,0.464051 -0.32102,0.170485 -0.6469,0.336342 -0.99278,0.457764 -0.39179,0.123814 -0.7905,0.234899 -1.20624,0.251485 -0.44484,0.027 -0.89576,0.03471 -1.3374,-0.03086 -0.39831,-0.0621 -0.79722,-0.116871 -1.17778,-0.251485 -0.33751,-0.125356 -0.67938,-0.241842 -1.00442,-0.395162 -0.34083,-0.1593 -0.66204,-0.350999 -0.96996,-0.562023 -0.29051,-0.190542 -0.57242,-0.394738 -0.83648,-0.616793 -0.26065,-0.234899 -0.48746,-0.504126 -0.68279,-0.789978 -0.1944,-0.300856 -0.37209,-0.608501 -0.51892,-0.933117 -0.14881,-0.343284 -0.25455,-0.700608 -0.31184,-1.068 -0.0743,-0.803362 -0.034,-1.614015 -0.0124,-2.419537 0.0227,-0.358328 0.063,-0.71488 0.14848,-1.0653 0.0743,-0.313585 0.19224,-0.614711 0.35878,-0.895317 0.19305,-0.309727 0.40945,-0.605569 0.66979,-0.869011 0.28914,-0.290442 0.61933,-0.539188 0.96708,-0.764945 0.36558,-0.214842 0.74459,-0.405269 1.14599,-0.554848 0.4436,-0.171642 0.89411,-0.32747 1.35557,-0.450783 0.49457,-0.137314 0.98821,-0.281184 1.50239,-0.339427 0.43679,-0.06519 0.88112,-0.105685 1.32359,-0.09797 0.2491,0.01543 0.49828,0.04474 0.73118,0.135385 0.15722,0.0567 0.29872,0.138085 0.4336,0.232585 0.16233,0.09257 0.33527,0.169328 0.48774,0.276556 0.14332,0.09566 0.28701,0.198642 0.40452,0.323227 0.13163,0.104528 0.23656,0.228342 0.3627,0.33827 0.12175,0.1431 0.25338,0.276942 0.36694,0.425866 0.10822,0.141171 0.20329,0.294299 0.28007,0.451554 0,0 -0.15649,1.32932 -0.15649,1.32932 z"
       inkscape:connector-curvature="0" />
    <path
       style="opacity:0.98999999;fill:#d40000;fill-opacity:1;stroke-width:1.05983913"
       d="m 139.91463,33.948922 v 0.002 h -0.0183 c 0.0146,0.140786 0.0329,0.278871 0.0402,0.420967 -0.011,0.269614 -0.0146,0.540808 -0.002,0.810113 0.0183,0.377998 0.0183,0.755997 0.0219,1.135269 0.011,0.511069 0.0219,1.019439 0.0256,1.530855 0.011,0.588367 0.011,1.178275 0.011,1.766757 -5.3e-4,0.663465 -2.5e-4,1.326853 0.011,1.990008 0.011,0.636581 0.0219,1.271542 0.0424,1.907158 0.0146,0.715497 0.0219,1.433309 0.0183,2.1495 -0.001,0.835994 -0.011,1.672875 -0.011,2.508792 0,0.669829 -0.011,1.338847 -0.0366,2.007018 -0.0146,0.542196 -0.0183,1.085704 -0.0219,1.628595 -0.0146,0.427485 -0.0293,0.855279 -0.0293,1.284192 l 0.16928,0.027 c 0.26105,-0.102214 0.53779,-0.08601 0.81622,-0.0621 -0.011,-0.35447 -0.011,-0.710714 0.002,-1.065184 -5.3e-4,-0.54428 0.011,-1.087132 0.0183,-1.630678 0.0183,-0.672838 0.0146,-1.348375 0.0146,-2.021984 -0.011,-0.836264 0.011,-1.672798 0.011,-2.50883 0.011,-0.718236 0.011,-1.4357 0,-2.153743 -0.0219,-0.635076 -0.0293,-1.271425 -0.0424,-1.907041 -0.011,-0.660997 -0.011,-1.322495 -0.011,-1.983722 v -1.770961 c 0,-0.511108 -0.011,-1.019979 -0.0183,-1.530855 0,-0.380699 2.5e-4,-0.759623 -0.011,-1.139627 -0.011,-0.202114 0,-0.404073 0,-0.605916 -0.0702,-0.07521 -0.12322,-0.181671 -0.14698,-0.318985 -0.0413,-0.03471 -0.079,-0.07406 -0.12285,-0.102214 -0.0899,-0.05747 -0.1872,-0.106071 -0.28007,-0.159299 -0.0877,-0.05014 -0.15502,-0.1053 -0.21169,-0.1593 -0.11006,0 -0.20658,-0.01928 -0.23583,-0.04899 z"
       id="path3718-8-6-4-7"
       inkscape:connector-curvature="0" />
    <path
       style="opacity:0.98999999;fill:#d40000;fill-opacity:1;stroke:none;stroke-width:2.01369405;stroke-miterlimit:4;stroke-dasharray:none;stroke-opacity:1"
       id="path4541-7-9-3-4"
       d="m 140.26044,35.905952 c -0.0702,-0.162 -0.16124,-0.313971 -0.26032,-0.461312 -0.10384,-0.153129 -0.2351,-0.285427 -0.35539,-0.426522 -0.11407,-0.109543 -0.22157,-0.226798 -0.34003,-0.332869 -0.11883,-0.120343 -0.25447,-0.221786 -0.3918,-0.322071 -0.14625,-0.108771 -0.31005,-0.192857 -0.47187,-0.277714 -0.13638,-0.07946 -0.268,-0.167013 -0.41462,-0.229499 -0.21616,-0.09913 -0.45227,-0.129214 -0.68825,-0.151585 -0.43102,-0.027 -0.86491,0.01157 -1.29118,0.0675 -0.51026,0.05014 -0.99524,0.204813 -1.48434,0.339813 -0.45651,0.126128 -0.90279,0.280799 -1.34082,0.455257 -0.39479,0.150043 -0.76348,0.347528 -1.12329,0.559977 -0.33608,0.227185 -0.65678,0.469837 -0.92909,0.764291 -0.25126,0.265371 -0.46218,0.559939 -0.6377,0.874642 -0.15572,0.280414 -0.25992,0.579572 -0.31553,0.891112 -0.0867,0.345599 -0.1136,0.700301 -0.13075,1.054077 0,0.06403 -0.0102,0.128056 -0.0102,0.192084 0,0.124586 0,0.259199 -0.0102,0.383785 -5.3e-4,0.06326 -10e-4,0.252642 -10e-4,0.189384 0.0102,-1.150195 -0.0197,-1.458342 0.0216,-0.908971 0.0392,0.363728 0.13755,0.718699 0.27232,1.06048 0.13912,0.322069 0.30771,0.631256 0.49581,0.929876 0.1808,0.285812 0.40378,0.544395 0.64905,0.782457 0.2559,0.224098 0.53193,0.428334 0.81384,0.622348 0.30204,0.207899 0.61664,0.397207 0.9492,0.557895 0.32124,0.150428 0.65587,0.27347 0.99101,0.392733 0.37013,0.138085 0.75967,0.199027 1.14961,0.260356 0.43008,0.0675 0.87152,0.06326 1.30521,0.03086 0.40553,-0.01929 0.79082,-0.133843 1.17065,-0.259585 0.33524,-0.127671 0.65329,-0.290056 0.96761,-0.457841 0.26325,-0.148114 0.50943,-0.321299 0.76554,-0.479403 0.17404,-0.106842 0.34771,-0.212142 0.51593,-0.327084 0.0793,-0.08601 0.17112,-0.157371 0.28373,-0.198256 0.0402,-0.0675 0.0402,-0.07521 0.12212,-0.09913 0.06,-0.01928 0.11297,-0.01928 0.17038,0.01157 0.0292,0.027 0.0662,0.04359 0.098,0.0675 0,0 -0.10859,1.336726 -0.10859,1.336726 v 0 c -0.0256,-0.03086 -0.0366,-0.05554 -0.0826,-0.06326 -0.0256,-0.027 0.0538,-0.03086 -0.0183,-0.01157 -0.0366,0.03086 0.011,-0.01543 0,0.01929 -0.0183,0.03857 -0.0899,0.05554 -0.12029,0.07521 -0.0969,0.04474 -0.16709,0.128828 -0.2563,0.184372 -0.17221,0.106841 -0.34588,0.21137 -0.52039,0.315127 -0.25667,0.15737 -0.51037,0.31937 -0.77545,0.46409 -0.32102,0.170485 -0.64686,0.336341 -0.99276,0.457724 -0.3918,0.123815 -0.79052,0.234899 -1.20625,0.251486 -0.44484,0.027 -0.89578,0.03471 -1.33741,-0.03086 -0.3983,-0.0621 -0.79723,-0.116871 -1.17778,-0.251484 -0.33754,-0.125356 -0.67938,-0.241843 -1.00442,-0.395163 -0.34083,-0.159299 -0.66204,-0.350998 -0.96995,-0.562022 -0.29056,-0.190543 -0.57248,-0.394701 -0.83654,-0.616793 -0.26065,-0.2349 -0.48745,-0.504089 -0.68279,-0.789979 -0.1944,-0.300856 -0.37208,-0.608501 -0.51892,-0.933078 -0.14881,-0.343284 -0.25455,-0.700609 -0.31184,-1.068 -0.0743,-0.803363 -0.034,-1.614054 -0.0124,-2.419576 0.0227,-0.358328 0.063,-0.714842 0.14848,-1.065262 0.0743,-0.313585 0.19224,-0.614711 0.35878,-0.895355 0.19305,-0.309727 0.40944,-0.605569 0.66979,-0.869011 0.28913,-0.290442 0.61932,-0.539188 0.96706,-0.764946 0.36559,-0.214842 0.74461,-0.405268 1.146,-0.554847 0.4436,-0.171643 0.89412,-0.327471 1.35557,-0.450783 0.49457,-0.137314 0.98822,-0.281185 1.5024,-0.339427 0.43679,-0.06519 0.88111,-0.105686 1.32358,-0.09797 0.2491,0.01543 0.49829,0.04474 0.73119,0.135385 0.15722,0.0567 0.29872,0.138085 0.4336,0.232199 0.16233,0.09257 0.33527,0.169328 0.48774,0.276556 0.14332,0.09566 0.28701,0.198642 0.40449,0.323227 0.13162,0.104529 0.23655,0.227957 0.36269,0.33827 0.12176,0.1431 0.25338,0.276942 0.36694,0.425866 0.10823,0.141171 0.20329,0.294299 0.28007,0.451554 0,0 -0.15649,1.329359 -0.15649,1.329359 z"
       inkscape:connector-curvature="0" />
    <path
       style="fill:#000000;fill-opacity:1;stroke-width:0.28222224"
       id="path3408-9-8-3-2"
       d="m 107.35134,76.228893 c -0.55774,-0.76151 -1.10645,-0.96478 -1.96054,-1.13966 -0.59086,-0.0383 -1.16868,0.0945 -1.71727,0.33129 -0.21718,0.0937 -0.83464,0.45562 -0.63397,0.32539 3.01202,-1.95477 2.42413,-1.53786 1.35505,-0.69936 -1.08015,1.02601 -2.15752,2.2295 -2.64836,3.73405 -0.0777,0.23821 -0.11227,0.49056 -0.16841,0.73584 -0.0588,0.67932 0.0314,1.5196 0.72896,1.77425 0.36788,0.1343 0.62311,0.0516 0.99909,0.004 0.19791,-0.0624 0.39847,-0.11552 0.59373,-0.18712 0.20686,-0.0758 0.41382,-0.15418 0.61155,-0.25478 0.20398,-0.10378 0.78595,-0.47872 0.59062,-0.35681 -3.6736,2.29278 -2.16942,1.43486 -1.10172,0.44793 0.65987,-0.65809 1.19023,-1.43307 1.47536,-2.35852 0.0655,-0.23477 0.0141,-0.59521 -0.19725,-0.22067 4.86404,-2.99183 2.86048,-2.51406 2.52753,-1.17142 -0.15175,0.61194 -0.2154,1.24089 -0.28632,1.86803 -0.19411,2.14251 -0.30802,4.29067 -0.37801,6.44173 -0.0285,2.09263 0.0564,4.18243 0.26222,6.26271 0,0 -2.82143,1.5949 -2.82143,1.5949 v 0 c -0.10039,-2.11568 -0.20566,-4.23142 -0.17933,-6.35119 0.0546,-2.13608 0.15355,-4.26923 0.26208,-6.4027 0.0468,-0.74981 0.1015,-1.49968 0.22331,-2.24052 0.0163,-0.0994 -0.0163,-0.23919 0.0606,-0.29581 0.95995,-0.70679 1.98844,-1.29657 2.98266,-1.94485 0.42806,0.0778 0.6158,0.47525 0.53902,0.92879 -0.30046,0.99391 -0.80951,1.85091 -1.50803,2.57779 -1.35237,1.34846 -2.55506,1.93521 -4.35104,3.0372 -0.59092,0.36258 -1.23651,0.58627 -1.90426,0.70336 -0.47495,-2e-4 -0.70327,0.0623 -1.139924,-0.17439 -0.76784,-0.41627 -0.91824,-1.34261 -0.85478,-2.18352 0.0555,-0.268 0.0879,-0.54288 0.16639,-0.80398 0.46522,-1.54817 1.535074,-2.8044 2.595644,-3.90084 1.60085,-1.35784 0.8805,-0.79928 4.06019,-2.7141 0.761,-0.45827 1.65866,-0.61167 2.51336,-0.51845 0.92551,0.22643 1.52936,0.53579 2.18752,1.28898 0,0 -2.8842,1.86241 -2.8842,1.86241 z"
       inkscape:connector-curvature="0" />
    <path
       style="opacity:0.98999999;fill:#000000;fill-opacity:1;stroke-width:1.05983913"
       d="m 139.94314,74.863463 c -0.011,0 -0.0146,0 -0.0183,0 0.0146,0.14079 0.0329,0.27926 0.0391,0.42139 -0.011,0.26961 -0.011,0.53988 -0.001,0.80923 0.0146,0.378 0.0183,0.75511 0.0183,1.13438 0.011,0.51107 0.0219,1.0214 0.0256,1.53282 0.011,0.58837 0.011,1.17793 0.011,1.76641 -5.3e-4,0.66351 0,1.32697 0.011,1.99013 0.011,0.63658 0.0219,1.27177 0.0424,1.90738 0.0183,0.7155 0.0219,1.43254 0.0183,2.14873 -0.001,0.836 -0.011,1.67191 -0.0146,2.50783 0,0.66979 -0.011,1.34012 -0.0366,2.00829 -0.0146,0.54224 -0.0146,1.08532 -0.0219,1.62817 -0.0183,0.42749 -0.0293,0.85528 -0.0293,1.28419 l 0.98575,0.15815 c -0.0256,-0.41704 -0.011,-0.83993 5.3e-4,-1.25808 -5.3e-4,-0.54428 0.011,-1.08725 0.0219,-1.63076 0.0183,-0.67276 0.0146,-1.34756 0.0146,-2.02113 -0.011,-0.83627 0.011,-1.6723 0.011,-2.50829 0.011,-0.71824 0.011,-1.43648 0,-2.15448 -0.0219,-0.63511 -0.0292,-1.27081 -0.0424,-1.90642 -0.011,-0.661 -0.011,-1.32238 -0.011,-1.98361 0,-0.58999 0,-1.18086 0,-1.77077 0,-0.51107 -0.011,-1.02148 -0.0183,-1.53236 0,-0.3807 0,-0.75885 -0.011,-1.13885 -0.011,-0.20212 0,-0.40442 0,-0.60623 -0.0701,-0.0752 -0.12241,-0.18128 -0.14618,-0.3186 -0.0413,-0.0347 -0.0793,-0.0729 -0.12321,-0.10105 -0.0899,-0.0575 -0.18647,-0.10762 -0.2797,-0.16123 -0.0877,-0.0501 -0.15576,-0.10453 -0.21243,-0.15853 -0.11005,0 -0.20584,-0.0193 -0.23509,-0.0478 z"
       id="path3718-8-8-7-8-9"
       inkscape:connector-curvature="0" />
    <path
       style="opacity:0.98999999;fill:#000000;fill-opacity:1;stroke:none;stroke-width:2.01369405;stroke-miterlimit:4;stroke-dasharray:none;stroke-opacity:1"
       id="path4541-7-8-4-7-7"
       d="m 140.28975,76.817953 c -0.0702,-0.16201 -0.16124,-0.31398 -0.26032,-0.46132 -0.10384,-0.15313 -0.2351,-0.28543 -0.35539,-0.42648 -0.11407,-0.10993 -0.22156,-0.2268 -0.34003,-0.33287 -0.11882,-0.12034 -0.25447,-0.22179 -0.3918,-0.32207 -0.14625,-0.10877 -0.31005,-0.19247 -0.47187,-0.27771 -0.13638,-0.0795 -0.268,-0.16702 -0.41462,-0.2295 -0.21608,-0.0991 -0.45224,-0.12922 -0.68825,-0.15159 -0.43101,-0.027 -0.86491,0.0116 -1.29117,0.0675 -0.51027,0.0501 -0.99524,0.20481 -1.48435,0.33981 -0.45649,0.12613 -0.90278,0.2808 -1.34081,0.45522 -0.39479,0.15004 -0.76347,0.34714 -1.12329,0.55994 -0.33608,0.22719 -0.65678,0.46984 -0.9291,0.76429 -0.25125,0.26537 -0.46217,0.55998 -0.63769,0.87468 -0.15572,0.28042 -0.25992,0.57954 -0.31553,0.89108 -0.0867,0.3456 -0.1136,0.7003 -0.13075,1.05407 0,0.064 -0.0102,0.12806 -0.0102,0.19209 0,0.12458 0,0.2592 -0.0102,0.38378 -5.3e-4,0.0633 -0.001,0.25264 -0.001,0.18939 0.0102,-1.1502 -0.0197,-1.45834 0.0216,-0.90897 0.0392,0.36372 0.13755,0.71869 0.27232,1.06047 0.13908,0.32208 0.3077,0.63126 0.49582,0.92988 0.18076,0.28581 0.40376,0.5444 0.64904,0.78246 0.2559,0.2241 0.53192,0.42833 0.81382,0.62235 0.30204,0.20789 0.61666,0.3972 0.94923,0.55789 0.32123,0.15043 0.65586,0.27347 0.991,0.39273 0.37013,0.13809 0.75966,0.19903 1.14961,0.26036 0.43008,0.0675 0.87151,0.0633 1.30521,0.0347 0.40551,-0.0193 0.79082,-0.13384 1.17067,-0.25958 0.33528,-0.12768 0.65325,-0.29006 0.96759,-0.45785 0.26323,-0.14811 0.50942,-0.32129 0.76554,-0.4794 0.17403,-0.10684 0.34769,-0.21214 0.51592,-0.32708 0.0793,-0.086 0.17112,-0.15737 0.28373,-0.19826 0.0402,-0.0675 0.0402,-0.0752 0.12212,-0.0991 0.06,-0.0193 0.11298,-0.0193 0.17038,0.0116 0.0293,0.027 0.0662,0.0436 0.098,0.0675 0,0 -0.10859,1.33677 -0.10859,1.33677 v 0 c -0.0256,-0.0309 -0.0366,-0.0555 -0.0826,-0.0633 -0.0219,-0.027 0.0537,-0.0309 -0.0183,-0.0116 -0.0366,0.0309 0.011,-0.0154 0,0.0193 -0.0146,0.0386 -0.0896,0.0555 -0.11992,0.0752 -0.0969,0.0447 -0.16709,0.12882 -0.2563,0.18437 -0.17221,0.10684 -0.34588,0.21137 -0.52039,0.31512 -0.25667,0.15737 -0.51034,0.31937 -0.77545,0.46405 -0.32102,0.17049 -0.64686,0.33635 -0.99274,0.45773 -0.3918,0.12381 -0.79053,0.2349 -1.20627,0.25149 -0.44484,0.027 -0.89576,0.0347 -1.33741,-0.0309 -0.39831,-0.0621 -0.79721,-0.11688 -1.17778,-0.25149 -0.33754,-0.12536 -0.67937,-0.24184 -1.00441,-0.39512 -0.34084,-0.1593 -0.66206,-0.351 -0.96996,-0.56206 -0.29056,-0.19055 -0.57248,-0.3947 -0.83654,-0.61676 -0.26056,-0.2349 -0.48736,-0.50413 -0.68269,-0.78998 -0.1944,-0.30085 -0.3721,-0.6085 -0.51893,-0.93311 -0.14877,-0.3429 -0.25455,-0.70061 -0.31184,-1.068 -0.0743,-0.80337 -0.034,-1.61402 -0.0124,-2.41954 0.0227,-0.35833 0.063,-0.71488 0.14848,-1.0653 0.0743,-0.31359 0.19224,-0.61471 0.35878,-0.89536 0.19305,-0.30972 0.40945,-0.60553 0.66979,-0.86897 0.28913,-0.29044 0.61934,-0.53919 0.96708,-0.76494 0.36558,-0.21485 0.74459,-0.40527 1.14599,-0.55485 0.4436,-0.17164 0.89411,-0.32747 1.35556,-0.45079 0.49458,-0.13731 0.98823,-0.28118 1.5024,-0.33942 0.4368,-0.0652 0.88112,-0.10569 1.32358,-0.098 0.2491,0.0154 0.49828,0.0447 0.73119,0.13538 0.15721,0.0567 0.29872,0.13809 0.43358,0.2322 0.16233,0.0926 0.33528,0.16933 0.48777,0.27656 0.14334,0.096 0.28702,0.19864 0.4045,0.32323 0.13162,0.10452 0.23656,0.22795 0.3627,0.33827 0.12176,0.14309 0.25337,0.27694 0.3669,0.42586 0.10822,0.14117 0.20329,0.2943 0.28007,0.45152 0,0 -0.1565,1.32936 -0.1565,1.32936 z"
       inkscape:connector-curvature="0" />
    <path
       style="opacity:0.98999999;fill:#000000;fill-opacity:1;stroke-width:1.05983913"
       d="m 139.74954,75.714043 v 0 h -0.0183 c 0.0146,0.14078 0.0329,0.27886 0.0402,0.42108 -0.011,0.26961 -0.0146,0.54069 -0.002,0.80999 0.0183,0.378 0.0183,0.75396 0.0183,1.13319 0.011,0.51111 0.0219,1.02152 0.0256,1.53294 0.011,0.58836 0.011,1.17835 0.011,1.76683 -5.3e-4,0.66351 -2.2e-4,1.32685 0.011,1.99001 0.011,0.63658 0.0219,1.27146 0.0424,1.90708 0.0183,0.7155 0.0219,1.43343 0.0183,2.14958 -0.001,0.83603 -0.011,1.6728 -0.011,2.50871 0,0.66979 -0.011,1.33897 -0.0366,2.0071 -0.0146,0.54223 -0.0146,1.08574 -0.0183,1.62863 -0.011,0.26614 -0.0146,0.53271 -0.0183,0.79943 0.30419,-0.0895 0.62799,-0.027 0.94923,-0.0116 0.007,-3.2e-4 0.0183,2.3e-4 0.0256,0 -10e-4,-0.20134 -0.004,-0.40288 0.002,-0.60384 -5.3e-4,-0.54427 0.011,-1.08724 0.0183,-1.63079 0.0183,-0.6726 0.0183,-1.3483 0.0146,-2.0219 -0.011,-0.83623 0.011,-1.6728 0.011,-2.5088 0.011,-0.71823 0.011,-1.43574 0,-2.15374 -0.0219,-0.63508 -0.0293,-1.27142 -0.0424,-1.90704 -0.011,-0.661 -0.011,-1.32253 -0.011,-1.98372 v -1.77108 c 0,-0.51111 -0.0146,-1.0199 -0.0183,-1.53074 0,-0.3807 2.6e-4,-0.75962 -0.011,-1.13963 -0.011,-0.20211 0,-0.40407 0,-0.60591 -0.0702,-0.0752 -0.1232,-0.18167 -0.14698,-0.31899 -0.0413,-0.0347 -0.079,-0.0741 -0.12285,-0.10221 -0.0899,-0.0575 -0.18719,-0.10761 -0.28007,-0.16161 -0.0877,-0.0501 -0.15502,-0.10338 -0.21169,-0.15738 -0.11004,0 -0.20657,-0.0193 -0.23582,-0.049 z"
       id="path3718-8-7-5-0-0"
       inkscape:connector-curvature="0" />
    <path
       style="opacity:0.98999999;fill:#000000;fill-opacity:1;stroke:none;stroke-width:2.01369405;stroke-miterlimit:4;stroke-dasharray:none;stroke-opacity:1"
       id="path4541-7-6-4-3-9"
       d="m 140.09557,77.670833 c -0.0702,-0.162 -0.16124,-0.31397 -0.26032,-0.46131 -0.10384,-0.15313 -0.2351,-0.28543 -0.35539,-0.42648 -0.11407,-0.10955 -0.22157,-0.2268 -0.34003,-0.33287 -0.11883,-0.12034 -0.25447,-0.22179 -0.3918,-0.32207 -0.14625,-0.10877 -0.31005,-0.19286 -0.47187,-0.27772 -0.13638,-0.0795 -0.268,-0.16701 -0.41462,-0.2295 -0.21608,-0.0991 -0.45227,-0.12921 -0.68826,-0.15158 -0.43101,-0.027 -0.86491,0.0116 -1.29118,0.0675 -0.51025,0.0501 -0.99523,0.20481 -1.48434,0.33981 -0.4565,0.12613 -0.90278,0.2808 -1.3408,0.45522 -0.3948,0.15004 -0.76349,0.34753 -1.1233,0.55998 -0.33608,0.22718 -0.65679,0.4698 -0.92909,0.76425 -0.25126,0.26537 -0.46218,0.55998 -0.6377,0.87468 -0.15572,0.28041 -0.25992,0.57953 -0.31553,0.89111 -0.0867,0.3456 -0.1136,0.70027 -0.13075,1.05404 0,0.064 -0.0102,0.12806 -0.0102,0.19208 0,0.12459 0,0.2592 -0.0102,0.38379 -5.3e-4,0.0633 -0.001,0.25264 -0.001,0.18938 0.0102,-1.15015 -0.0197,-1.45834 0.0216,-0.90893 0.0392,0.36373 0.13755,0.71866 0.27232,1.06048 0.13908,0.32207 0.30771,0.63126 0.49581,0.92988 0.18076,0.28581 0.40377,0.54435 0.64904,0.78245 0.2559,0.2241 0.53193,0.42834 0.81383,0.62231 0.30204,0.2079 0.61665,0.39725 0.94922,0.5579 0.32124,0.15043 0.65585,0.27347 0.99101,0.39277 0.37013,0.13809 0.75966,0.19903 1.1496,0.26036 0.43009,0.0675 0.87152,0.0633 1.30522,0.0309 0.40552,-0.0193 0.79082,-0.13385 1.17064,-0.25959 0.33528,-0.12767 0.6533,-0.29005 0.96759,-0.45788 0.26324,-0.14811 0.50946,-0.3213 0.76554,-0.4794 0.17403,-0.10684 0.3477,-0.21214 0.51596,-0.32708 0.0793,-0.086 0.17112,-0.15738 0.28373,-0.19826 0.0402,-0.0675 0.0402,-0.0752 0.12212,-0.0991 0.06,-0.0193 0.11297,-0.0193 0.17038,0.0116 0.0293,0.027 0.0662,0.0436 0.098,0.0675 0,0 -0.10859,1.33676 -0.10859,1.33676 v 0 c -0.0256,-0.0309 -0.0366,-0.0555 -0.0826,-0.0633 -0.0256,-0.027 0.0537,-0.0309 -0.0183,-0.0116 -0.0366,0.0309 0.011,-0.0154 0,0.0193 -0.0183,0.0386 -0.0899,0.0555 -0.12029,0.0752 -0.0969,0.0447 -0.16709,0.12883 -0.2563,0.18437 -0.17221,0.10685 -0.34588,0.21138 -0.52039,0.31513 -0.25667,0.15737 -0.51037,0.31937 -0.77545,0.46405 -0.32102,0.17049 -0.6469,0.33634 -0.99278,0.45777 -0.39179,0.12381 -0.7905,0.2349 -1.20624,0.25148 -0.44484,0.027 -0.89576,0.0347 -1.3374,-0.0309 -0.39831,-0.0621 -0.79722,-0.11687 -1.17778,-0.25148 -0.33751,-0.12536 -0.67938,-0.24185 -1.00442,-0.39517 -0.34083,-0.1593 -0.66204,-0.35099 -0.96996,-0.56202 -0.29051,-0.19054 -0.57242,-0.39474 -0.83648,-0.61679 -0.26061,-0.2349 -0.48743,-0.50413 -0.68275,-0.78998 -0.1944,-0.30086 -0.3721,-0.6085 -0.51893,-0.93312 -0.14881,-0.34328 -0.25454,-0.7006 -0.31183,-1.068 -0.0743,-0.80336 -0.034,-1.61401 -0.0124,-2.41953 0.0227,-0.35833 0.063,-0.71488 0.14848,-1.0653 0.0743,-0.31359 0.19224,-0.61471 0.35878,-0.89532 0.19305,-0.30973 0.40945,-0.60557 0.66979,-0.86901 0.28914,-0.29044 0.61933,-0.53919 0.96708,-0.76495 0.36558,-0.21484 0.74459,-0.40527 1.14599,-0.55484 0.4436,-0.17165 0.89411,-0.32747 1.35557,-0.45079 0.49457,-0.13731 0.98821,-0.28118 1.50239,-0.33942 0.43679,-0.0652 0.88112,-0.10569 1.32359,-0.098 0.2491,0.0154 0.49828,0.0447 0.73118,0.13538 0.15722,0.0567 0.29872,0.13809 0.4336,0.23259 0.16233,0.0926 0.33527,0.16932 0.48774,0.27655 0.14332,0.0957 0.28701,0.19864 0.40452,0.32323 0.13163,0.10453 0.23656,0.22834 0.3627,0.33827 0.12175,0.1431 0.25338,0.27694 0.36694,0.42586 0.10822,0.14118 0.20329,0.2943 0.28007,0.45156 0,0 -0.15649,1.32932 -0.15649,1.32932 z"
       inkscape:connector-curvature="0" />
    <path
       style="opacity:0.98999999;fill:#000000;fill-opacity:1;stroke-width:1.05983913"
       d="m 139.51375,75.239953 v 0.002 h -0.0183 c 0.0146,0.14079 0.0329,0.27888 0.0402,0.42097 -0.011,0.26962 -0.0146,0.54081 -0.002,0.81011 0.0183,0.378 0.0183,0.756 0.0219,1.13527 0.011,0.51107 0.0219,1.01944 0.0256,1.53086 0.011,0.58837 0.011,1.17827 0.011,1.76676 -5.3e-4,0.66346 -2.5e-4,1.32685 0.011,1.99 0.011,0.63658 0.0219,1.27155 0.0424,1.90716 0.0146,0.7155 0.0219,1.43331 0.0183,2.1495 -0.001,0.836 -0.011,1.67288 -0.011,2.50879 0,0.66983 -0.011,1.33885 -0.0366,2.00702 -0.0146,0.5422 -0.0183,1.08571 -0.0219,1.6286 -0.0146,0.42748 -0.0293,0.85528 -0.0293,1.28419 l 0.16928,0.027 c 0.26105,-0.10222 0.5378,-0.086 0.81622,-0.0621 -0.011,-0.35447 -0.011,-0.71072 0.002,-1.06519 -5.2e-4,-0.54428 0.011,-1.08713 0.0183,-1.63067 0.0183,-0.67284 0.0146,-1.34838 0.0146,-2.02199 -0.011,-0.83626 0.011,-1.6728 0.011,-2.50883 0.011,-0.71823 0.011,-1.4357 0,-2.15374 -0.0219,-0.63508 -0.0293,-1.27143 -0.0424,-1.90704 -0.011,-0.661 -0.011,-1.3225 -0.011,-1.98372 v -1.77096 c 0,-0.51111 -0.011,-1.01998 -0.0183,-1.53086 0,-0.3807 2.5e-4,-0.75962 -0.011,-1.13963 -0.011,-0.20211 0,-0.40407 0,-0.60591 -0.0702,-0.0752 -0.12321,-0.18167 -0.14697,-0.31899 -0.0413,-0.0347 -0.079,-0.0741 -0.12286,-0.10221 -0.0899,-0.0575 -0.18719,-0.10607 -0.28006,-0.1593 -0.0877,-0.0501 -0.15502,-0.1053 -0.2117,-0.1593 -0.11005,0 -0.20657,-0.0193 -0.23582,-0.049 z"
       id="path3718-8-6-4-7-7"
       inkscape:connector-curvature="0" />
    <path
       style="opacity:0.98999999;fill:#000000;fill-opacity:1;stroke:none;stroke-width:2.01369405;stroke-miterlimit:4;stroke-dasharray:none;stroke-opacity:1"
       id="path4541-7-9-3-4-1"
       d="m 139.85956,77.196983 c -0.0702,-0.162 -0.16124,-0.31397 -0.26032,-0.46131 -0.10384,-0.15313 -0.2351,-0.28542 -0.35539,-0.42652 -0.11407,-0.10954 -0.22157,-0.2268 -0.34003,-0.33287 -0.11883,-0.12034 -0.25447,-0.22178 -0.3918,-0.32207 -0.14625,-0.10877 -0.31005,-0.19286 -0.47187,-0.27771 -0.13638,-0.0795 -0.268,-0.16702 -0.41462,-0.2295 -0.21616,-0.0991 -0.45227,-0.12922 -0.68825,-0.15159 -0.43102,-0.027 -0.86491,0.0116 -1.29118,0.0675 -0.51026,0.0501 -0.99524,0.20482 -1.48434,0.33982 -0.45651,0.12612 -0.90279,0.28079 -1.34082,0.45525 -0.39479,0.15005 -0.76348,0.34753 -1.12329,0.55998 -0.33608,0.22718 -0.65678,0.46984 -0.92909,0.76429 -0.25126,0.26537 -0.46218,0.55994 -0.6377,0.87464 -0.15572,0.28042 -0.25992,0.57957 -0.31553,0.89111 -0.0867,0.3456 -0.1136,0.70031 -0.13075,1.05408 0,0.064 -0.0102,0.12806 -0.0102,0.19209 0,0.12458 0,0.25919 -0.0102,0.38378 -5.3e-4,0.0633 -10e-4,0.25264 -10e-4,0.18938 0.0102,-1.15019 -0.0197,-1.45834 0.0216,-0.90897 0.0392,0.36373 0.13755,0.7187 0.27232,1.06048 0.13912,0.32207 0.30771,0.63126 0.49581,0.92988 0.1808,0.28581 0.40378,0.54439 0.64905,0.78246 0.2559,0.22409 0.53193,0.42833 0.81384,0.62234 0.30204,0.2079 0.61664,0.39721 0.9492,0.5579 0.32124,0.15043 0.65587,0.27347 0.99101,0.39273 0.37013,0.13809 0.75967,0.19903 1.14961,0.26036 0.43008,0.0675 0.87152,0.0633 1.30521,0.0309 0.40553,-0.0193 0.79082,-0.13384 1.17065,-0.25959 0.33524,-0.12767 0.65329,-0.29005 0.96761,-0.45784 0.26325,-0.14811 0.50943,-0.3213 0.76554,-0.4794 0.17404,-0.10684 0.34771,-0.21214 0.51593,-0.32708 0.0793,-0.086 0.17112,-0.15738 0.28373,-0.19826 0.0402,-0.0675 0.0402,-0.0752 0.12212,-0.0991 0.06,-0.0193 0.11297,-0.0193 0.17038,0.0116 0.0292,0.027 0.0662,0.0436 0.098,0.0675 0,0 -0.10859,1.33673 -0.10859,1.33673 v 0 c -0.0256,-0.0309 -0.0366,-0.0555 -0.0826,-0.0633 -0.0256,-0.027 0.0538,-0.0309 -0.0183,-0.0116 -0.0366,0.0309 0.011,-0.0154 0,0.0193 -0.0183,0.0386 -0.0899,0.0555 -0.12029,0.0752 -0.0969,0.0447 -0.16709,0.12882 -0.2563,0.18437 -0.17221,0.10684 -0.34588,0.21137 -0.52039,0.31513 -0.25667,0.15737 -0.51037,0.31936 -0.77545,0.46408 -0.32102,0.17049 -0.64686,0.33635 -0.99276,0.45773 -0.3918,0.12381 -0.79052,0.2349 -1.20625,0.25148 -0.44484,0.027 -0.89578,0.0347 -1.33741,-0.0309 -0.3983,-0.0621 -0.79723,-0.11687 -1.17778,-0.25148 -0.33754,-0.12535 -0.67938,-0.24184 -1.00442,-0.39516 -0.34083,-0.1593 -0.66204,-0.351 -0.96995,-0.56202 -0.29056,-0.19055 -0.57248,-0.3947 -0.83654,-0.6168 -0.26065,-0.2349 -0.48745,-0.50409 -0.68279,-0.78998 -0.1944,-0.30085 -0.37208,-0.6085 -0.51892,-0.93307 -0.14881,-0.34329 -0.25455,-0.70061 -0.31184,-1.068 -0.0743,-0.80337 -0.034,-1.61406 -0.0124,-2.41958 0.0227,-0.35833 0.063,-0.71484 0.14848,-1.06526 0.0743,-0.31359 0.19224,-0.61471 0.35878,-0.89536 0.19305,-0.30972 0.40944,-0.60557 0.66979,-0.86901 0.28913,-0.29044 0.61932,-0.53919 0.96706,-0.76494 0.36559,-0.21485 0.74461,-0.40527 1.146,-0.55485 0.4436,-0.17164 0.89412,-0.32747 1.35557,-0.45078 0.49457,-0.13732 0.98822,-0.28119 1.5024,-0.33943 0.43679,-0.0652 0.88111,-0.10569 1.32358,-0.098 0.2491,0.0154 0.49829,0.0447 0.73119,0.13538 0.15722,0.0567 0.29872,0.13809 0.4336,0.2322 0.16233,0.0926 0.33527,0.16933 0.48774,0.27656 0.14332,0.0957 0.28701,0.19864 0.40449,0.32323 0.13162,0.10452 0.23655,0.22795 0.36269,0.33827 0.12176,0.1431 0.25338,0.27694 0.36694,0.42586 0.10823,0.14117 0.20329,0.2943 0.28007,0.45156 0,0 -0.15649,1.32935 -0.15649,1.32935 z"
       inkscape:connector-curvature="0" />
    <flowRoot
       xml:space="preserve"
       id="flowRoot363-5"
       style="font-style:normal;font-weight:normal;font-size:40px;line-height:25px;font-family:sans-serif;letter-spacing:0px;word-spacing:0px;fill:#000000;fill-opacity:1;stroke:none"
       transform="matrix(0.26458333,0,0,0.26458333,28.339907,-37.319423)"><flowRegion
         id="flowRegion365-2"><rect
           id="rect367-7"
           width="377.27274"
           height="136.36363"
           x="93.939392"
           y="317.97424" /></flowRegion><flowPara
         id="flowPara369-5"
         style="font-style:normal;font-variant:normal;font-weight:normal;font-stretch:normal;font-family:Streetwear;-inkscape-font-specification:Streetwear">Pts</flowPara></flowRoot>    <flowRoot
       xml:space="preserve"
       id="flowRoot551"
       style="font-style:normal;font-weight:normal;font-size:40px;line-height:25px;font-family:sans-serif;letter-spacing:0px;word-spacing:0px;fill:#000000;fill-opacity:1;stroke:none"
       transform="matrix(0.26458333,0,0,0.26458333,-2.4053026,52.515783)"><flowRegion
         id="flowRegion553"><rect
           id="rect555"
           width="154.54546"
           height="60.60606"
           x="113.63636"
           y="319.48938" /></flowRegion><flowPara
         id="flowPara557"
         style="font-style:normal;font-variant:normal;font-weight:bold;font-stretch:normal;font-family:Arial;-inkscape-font-specification:'Arial Bold'">Pts</flowPara></flowRoot>    <flowRoot
       xml:space="preserve"
       id="flowRoot551-5"
       style="font-style:normal;font-weight:normal;font-size:40px;line-height:25px;font-family:sans-serif;letter-spacing:0px;word-spacing:0px;fill:#d40000;fill-opacity:1;stroke:none;"
       transform="matrix(0.26458333,0,0,0.26458333,66.991902,1.1079082)"><flowRegion
         id="flowRegion553-7"
         style="fill:#d40000;"><rect
           id="rect555-0"
           width="154.54546"
           height="60.60606"
           x="113.63636"
           y="319.48938"
           style="fill:#d40000;" /></flowRegion><flowPara
         id="flowPara557-0"
         style="font-style:normal;font-variant:normal;font-weight:bold;font-stretch:normal;font-family:Arial;-inkscape-font-specification:'Arial Bold';fill:#d40000;">Pts</flowPara></flowRoot>    <path
       id="path588"
       d="m 26.545753,81.937439 h 19.42746 v -3.699082 l 6.47582,7.398165 -6.47582,7.398165 v -3.699082 h -19.42746 z"
       style="fill:#339966;fill-opacity:1;fill-rule:evenodd;stroke:none;stroke-width:0.26458332"
       inkscape:connector-curvature="0" />
    <path
       id="path590"
       d="m 26.545753,81.937439 h 19.42746 v -3.699082 l 6.47582,7.398165 -6.47582,7.398165 v -3.699082 h -19.42746 v -7.398166"
       style="fill:#00aa44;stroke:#1c1c1c;stroke-width:0.00970888px;stroke-linecap:round;stroke-linejoin:round;stroke-miterlimit:4;stroke-dasharray:none;stroke-opacity:1"
       inkscape:connector-curvature="0" />
    <path
       id="path592"
       d="m 49.992693,94.83083 h -18.50513 v -4.009767 l -6.16513,8.019533 6.16513,8.019524 v -4.00976 h 18.50513 z"
       style="fill:#339966;fill-opacity:1;fill-rule:evenodd;stroke:none;stroke-width:0.26458332"
       inkscape:connector-curvature="0" />
    <path
       id="path594"
       d="m 49.992693,94.83083 h -18.50513 v -4.009767 l -6.16513,8.019533 6.16513,8.019524 v -4.00976 h 18.50513 v -8.01953"
       style="fill:#00aa44;stroke:#1c1c1c;stroke-width:0.00970888px;stroke-linecap:round;stroke-linejoin:round;stroke-miterlimit:4;stroke-dasharray:none;stroke-opacity:1"
       inkscape:connector-curvature="0" />
    <path
       style="fill:#d40000;fill-opacity:1;stroke-width:0.28222224;filter:url(#filter5110)"
       id="path3408-9-8-3-0"
       d="m 90.558517,126.46224 c -0.55774,-0.76151 -1.10645,-0.96478 -1.96054,-1.13966 -0.59086,-0.0383 -1.16868,0.0945 -1.71727,0.33129 -0.21718,0.0937 -0.83464,0.45562 -0.63397,0.32539 3.01202,-1.95477 2.42413,-1.53786 1.35505,-0.69936 -1.08015,1.02601 -2.15752,2.22951 -2.64836,3.73406 -0.0777,0.2382 -0.11227,0.49056 -0.16841,0.73583 -0.0588,0.67932 0.0314,1.51961 0.72896,1.77425 0.36788,0.13431 0.62311,0.0516 0.99909,0.004 0.19791,-0.0624 0.39847,-0.11552 0.59373,-0.18711 0.20686,-0.0758 0.41382,-0.15418 0.61155,-0.25478 0.20398,-0.10378 0.78595,-0.47872 0.59062,-0.35681 -3.6736,2.29278 -2.16942,1.43486 -1.10172,0.44793 0.65987,-0.6581 1.19023,-1.43307 1.47536,-2.35853 0.0655,-0.23476 0.0141,-0.5952 -0.19725,-0.22066 4.864039,-2.99184 2.86048,-2.51406 2.52753,-1.17142 -0.15175,0.61194 -0.2154,1.24089 -0.28632,1.86803 -0.19411,2.1425 -0.30802,4.29066 -0.37801,6.44172 -0.0285,2.09263 0.0564,4.18243 0.26222,6.26271 0,0 -2.82143,1.5949 -2.82143,1.5949 v 0 c -0.10039,-2.11568 -0.20566,-4.23142 -0.17933,-6.35118 0.0546,-2.13608 0.15355,-4.26924 0.26208,-6.40271 0.0468,-0.74981 0.1015,-1.49968 0.22331,-2.24052 0.0163,-0.0994 -0.0163,-0.23919 0.0606,-0.29581 0.95995,-0.70679 1.98844,-1.29657 2.98266,-1.94485 0.42806,0.0778 0.6158,0.47525 0.53902,0.92879 -0.30046,0.99391 -0.80951,1.85091 -1.50803,2.57779 -1.35237,1.34846 -2.55506,1.93521 -4.35104,3.0372 -0.59092,0.36258 -1.23651,0.58628 -1.90426,0.70337 -0.47495,-2e-4 -0.70327,0.0623 -1.139918,-0.1744 -0.767842,-0.41626 -0.918238,-1.34261 -0.854783,-2.18351 0.05546,-0.26801 0.08793,-0.54288 0.16639,-0.80399 0.465218,-1.54816 1.535071,-2.8044 2.595641,-3.90083 1.60085,-1.35785 0.8805,-0.79929 4.06019,-2.71411 0.761,-0.45827 1.65866,-0.61167 2.51336,-0.51845 0.925509,0.22643 1.529359,0.53579 2.187519,1.28898 0,0 -2.884199,1.86241 -2.884199,1.86241 z"
       inkscape:connector-curvature="0"
       transform="matrix(0.86312608,0,0,0.88876259,11.033481,13.440353)" />
    <flowRoot
       xml:space="preserve"
       id="flowRoot551-0"
       style="font-style:normal;font-weight:normal;font-size:40px;line-height:25px;font-family:sans-serif;letter-spacing:0px;word-spacing:0px;fill:#000000;fill-opacity:1;stroke:none;filter:url(#filter5130)"
       transform="matrix(0.22836877,0,0,0.23515177,55.015405,59.867334)"><flowRegion
         id="flowRegion553-0"><rect
           id="rect555-5"
           width="154.54546"
           height="60.60606"
           x="113.63636"
           y="319.48938" /></flowRegion><flowPara
         id="flowPara557-4"
         style="font-style:normal;font-variant:normal;font-weight:bold;font-stretch:normal;font-family:Arial;-inkscape-font-specification:'Arial Bold'">Pts</flowPara></flowRoot>    <path
       id="path588-7"
       d="m 123.96053,130.0435 h 19.42746 v -3.69908 l 6.47582,7.39816 -6.47582,7.39817 v -3.69909 h -19.42746 z"
       style="fill:#339966;fill-opacity:1;fill-rule:evenodd;stroke:none;stroke-width:0.26458332;filter:url(#filter5174)"
       inkscape:connector-curvature="0"
       transform="matrix(0.61366547,0,0,0.672572,46.467707,40.863345)" />
    <path
       id="path590-7"
       d="m 123.96053,130.0435 h 19.42746 v -3.69908 l 6.47582,7.39816 -6.47582,7.39817 v -3.69909 h -19.42746 v -7.39816"
       style="fill:none;stroke:#1c1c1c;stroke-width:0.00970888px;stroke-linecap:round;stroke-linejoin:round;stroke-miterlimit:4;stroke-dasharray:none;stroke-opacity:1;filter:url(#filter5194)"
       inkscape:connector-curvature="0"
       transform="matrix(0.61366547,0,0,0.672572,46.467707,40.863345)" />
    <path
       id="path592-4"
       d="m 147.40747,142.93689 h -18.50513 v -4.00977 l -6.16513,8.01954 6.16513,8.01952 v -4.00976 h 18.50513 z"
       style="fill:#339966;fill-opacity:1;fill-rule:evenodd;stroke:none;stroke-width:0.26458332;filter:url(#filter5214)"
       inkscape:connector-curvature="0"
       transform="matrix(0.61366547,0,0,0.672572,46.467707,40.863345)" />
    <path
       id="path594-9"
       d="m 147.40747,142.93689 h -18.50513 v -4.00977 l -6.16513,8.01954 6.16513,8.01952 v -4.00976 h 18.50513 v -8.01953"
       style="fill:none;stroke:#1c1c1c;stroke-width:0.00970888px;stroke-linecap:round;stroke-linejoin:round;stroke-miterlimit:4;stroke-dasharray:none;stroke-opacity:1;filter:url(#filter5234)"
       inkscape:connector-curvature="0"
       transform="matrix(0.61366547,0,0,0.672572,46.467707,40.863345)" />
    <path
       style="fill:#000000;fill-opacity:1;stroke-width:0.38621491;filter:url(#filter5281)"
       id="path3408-9-8-3-2-6"
       d="m 53.689135,166.60237 c -0.748862,-1.06214 -1.4856,-1.34565 -2.632363,-1.58957 -0.793331,-0.0534 -1.569154,0.1318 -2.305731,0.46207 -0.291602,0.1307 -1.120648,0.63549 -0.851214,0.45385 4.044156,-2.72647 3.254812,-2.14497 1.819388,-0.97545 -1.450287,1.43106 -2.896842,3.10966 -3.55588,5.20818 -0.104325,0.33225 -0.150742,0.68422 -0.226119,1.02633 -0.07895,0.9475 0.04216,2.11951 0.978754,2.47469 0.493943,0.18732 0.836633,0.072 1.341451,0.006 0.265728,-0.087 0.535015,-0.16113 0.797185,-0.261 0.277745,-0.10572 0.555624,-0.21504 0.821111,-0.35536 0.273878,-0.14475 1.055273,-0.66771 0.793009,-0.49767 -4.932441,3.19792 -2.91282,2.00131 -1.479249,0.62477 0.885989,-0.9179 1.598089,-1.99882 1.980925,-3.28962 0.08794,-0.32745 0.01893,-0.83019 -0.264842,-0.30779 6.530812,-4.17294 3.840688,-3.50656 3.393645,-1.63387 -0.203751,0.85352 -0.289212,1.73077 -0.384434,2.60549 -0.260626,2.98833 -0.41357,5.98454 -0.507544,8.98479 -0.03827,2.91876 0.07573,5.83357 0.352076,8.7351 0,0 -3.788256,2.22454 -3.788256,2.22454 v 0 c -0.134791,-2.95091 -0.276134,-5.9019 -0.240782,-8.85851 0.07331,-2.97936 0.206168,-5.95464 0.351888,-8.93036 0.06284,-1.04582 0.136281,-2.09172 0.299832,-3.12503 0.02189,-0.13864 -0.02188,-0.33362 0.08137,-0.41259 1.288898,-0.98581 2.669824,-1.80843 4.004735,-2.71263 0.574745,0.10851 0.826818,0.66286 0.723728,1.29545 -0.40342,1.38629 -1.086907,2.58161 -2.024791,3.59545 -1.81579,1.88081 -3.430608,2.69919 -5.842021,4.23623 -0.793412,0.50571 -1.660228,0.81771 -2.556797,0.98103 -0.637703,-2.8e-4 -0.944262,0.0869 -1.530539,-0.24324 -1.030958,-0.5806 -1.232896,-1.87264 -1.14769,-3.04553 0.07452,-0.3738 0.118021,-0.75719 0.223407,-1.12137 0.624638,-2.15936 2.061096,-3.91152 3.485094,-5.44081 2.149418,-1.89389 1.182224,-1.11482 5.451506,-3.78557 1.021773,-0.63919 2.227036,-0.85315 3.374619,-0.72313 1.242656,0.31582 2.053429,0.74731 2.937122,1.79785 0,0 -3.872535,2.59765 -3.872535,2.59765 z"
       inkscape:connector-curvature="0"
       transform="matrix(0.46755778,0,0,0.44706917,32.983709,126.63029)" />
    <flowRoot
       xml:space="preserve"
       id="flowRoot551-5-6"
       style="font-style:normal;font-weight:normal;font-size:40px;line-height:25px;font-family:sans-serif;letter-spacing:0px;word-spacing:0px;fill:#d40000;fill-opacity:1;stroke:none;filter:url(#filter5301)"
       transform="matrix(0.1660993,0,0,0.16498434,32.749756,154.27041)"><flowRegion
         id="flowRegion553-7-2"
         style="fill:#d40000"><rect
           id="rect555-0-6"
           width="154.54546"
           height="60.60606"
           x="113.63636"
           y="319.48938"
           style="fill:#d40000" /></flowRegion><flowPara
         id="flowPara557-0-4"
         style="font-style:normal;font-variant:normal;font-weight:bold;font-stretch:normal;font-family:Arial;-inkscape-font-specification:'Arial Bold';fill:#d40000">Pts</flowPara></flowRoot>    <path
       id="path588-79"
       d="m 97.502192,165.72216 h 19.427458 v -3.69908 l 6.47582,7.39817 -6.47582,7.39816 v -3.69908 H 97.502192 Z"
       style="fill:#339966;fill-opacity:1;fill-rule:evenodd;stroke:none;stroke-width:0.26458332;filter:url(#filter5373)"
       inkscape:connector-curvature="0"
       transform="matrix(0.53774716,0,0,0.5589368,20.59616,107.46128)" />
    <path
       id="path590-0"
       d="m 97.502192,165.72216 h 19.427458 v -3.69908 l 6.47582,7.39817 -6.47582,7.39816 v -3.69908 H 97.502192 v -7.39817"
       style="fill:#00aa44;stroke:#1c1c1c;stroke-width:0.00970888px;stroke-linecap:round;stroke-linejoin:round;stroke-miterlimit:4;stroke-dasharray:none;stroke-opacity:1;filter:url(#filter5393)"
       inkscape:connector-curvature="0"
       transform="matrix(0.53774716,0,0,0.5589368,20.59616,107.46128)" />
    <path
       id="path592-6"
       d="M 120.94913,178.61556 H 102.444 v -4.00977 l -6.165128,8.01953 6.165128,8.01953 v -4.00976 h 18.50513 z"
       style="fill:#339966;fill-opacity:1;fill-rule:evenodd;stroke:none;stroke-width:0.26458332;filter:url(#filter5413)"
       inkscape:connector-curvature="0"
       transform="matrix(0.53774716,0,0,0.5589368,20.59616,107.46128)" />
    <path
       id="path594-7"
       d="M 120.94913,178.61556 H 102.444 v -4.00977 l -6.165128,8.01953 6.165128,8.01953 v -4.00976 h 18.50513 v -8.01953"
       style="fill:#00aa44;stroke:#1c1c1c;stroke-width:0.00970888px;stroke-linecap:round;stroke-linejoin:round;stroke-miterlimit:4;stroke-dasharray:none;stroke-opacity:1;filter:url(#filter5433)"
       inkscape:connector-curvature="0"
       transform="matrix(0.53774716,0,0,0.5589368,20.59616,107.46128)" />
  </g>
</svg>
